SplineFontDB: 3.0
FontName: RaviPrakash
FullName: Ravi Prakash
FamilyName: Ravi Prakash
Weight: Book
Copyright: Copyright (c) 2011 SiliconAndhra (fonts.siliconandhra.org)
Version: 1.0.3
ItalicAngle: 0
UnderlinePosition: -300
UnderlineWidth: 20
Ascent: 819
Descent: 205
InvalidEm: 0
sfntRevision: 0x00010000
LayerCount: 2
Layer: 0 1 "Back" 1
Layer: 1 1 "Fore" 0
XUID: [1021 184 -1251295923 14096630]
FSType: 0
OS2Version: 3
OS2_WeightWidthSlopeOnly: 0
OS2_UseTypoMetrics: 1
CreationTime: 1322744940
ModificationTime: 1418319952
PfmFamily: 17
TTFWeight: 400
TTFWidth: 5
LineGap: 0
VLineGap: 0
Panose: 2 0 6 0 0 0 0 0 0 0
OS2TypoAscent: 938
OS2TypoAOffset: 0
OS2TypoDescent: -684
OS2TypoDOffset: 0
OS2TypoLinegap: 0
OS2WinAscent: 938
OS2WinAOffset: 0
OS2WinDescent: 684
OS2WinDOffset: 0
HheadAscent: 938
HheadAOffset: 0
HheadDescent: -684
HheadDOffset: 0
OS2SubXSize: 717
OS2SubYSize: 666
OS2SubXOff: 0
OS2SubYOff: 205
OS2SupXSize: 717
OS2SupYSize: 666
OS2SupXOff: 0
OS2SupYOff: 512
OS2StrikeYSize: 50
OS2StrikeYPos: 250
OS2CapHeight: 0
OS2XHeight: 0
OS2Vendor: 'SA  '
OS2CodePages: 00000001.00000000
OS2UnicodeRanges: 80208001.00002042.00000030.00000000
Lookup: 6 0 0 "'abvs' Above Base Substitutions in Telugu lookup 0" { "'abvs' Above Base Substitutions in Telugu lookup 0 subtable"  } ['abvs' ('telu' <'dflt' > ) ]
Lookup: 4 0 0 "'abvs' Above Base Substitutions in Telugu lookup 1" { "'abvs' Above Base Substitutions in Telugu lookup 1 subtable"  } ['abvs' ('telu' <'dflt' > ) ]
Lookup: 1 0 0 "'abvs' Above Base Substitutions in Telugu lookup 2" { "'abvs' Above Base Substitutions in Telugu lookup 2 subtable"  } ['abvs' ('telu' <'dflt' > ) ]
Lookup: 4 0 0 "'akhn' Akhand in Telugu lookup 3" { "'akhn' Akhand in Telugu lookup 3 subtable"  } ['akhn' ('telu' <'dflt' > ) ]
Lookup: 4 0 0 "'blwf' Below Base Forms in Telugu lookup 4" { "'blwf' Below Base Forms in Telugu lookup 4 subtable"  } ['blwf' ('telu' <'dflt' > ) ]

StartChar: .notdef
Encoding: 65536 -1 0
Width: 374
Flags: W
LayerCount: 2
Back
Fore
SplineSet
34 0 m 1,0,-1
 34 682 l 1,1,-1
 306 682 l 1,2,-1
 306 0 l 1,3,-1
 34 0 l 1,0,-1
68 34 m 1,4,-1
 272 34 l 1,5,-1
 272 648 l 1,6,-1
 68 648 l 1,7,-1
 68 34 l 1,4,-1
EndSplineSet
EndChar

StartChar: exclam
Encoding: 33 33 4
GlifName: exclam
Width: 290
VWidth: 0
Flags: W
LayerCount: 2
Back
Fore
SplineSet
145 -11 m 256
 174 -11 174 -11 194.5 9.5 c 0
 215 30 215 30 215 59 c 0
 215 87 215 87 194.5 107.5 c 0
 174 128 174 128 145 128 c 0
 116 128 116 128 95.5 107.5 c 0
 75 87 75 87 75 59 c 0
 75 30 75 30 95.5 9.5 c 0
 116 -11 116 -11 145 -11 c 256
222 512 m 257
 86 488 l 257
 110 170 l 257
 176 176 l 257
 242 482 l 257
 222 512 l 257
EndSplineSet
EndChar

StartChar: parenleft
Encoding: 40 40 5
GlifName: parenleft
Width: 300
VWidth: 0
Flags: W
LayerCount: 2
Back
Fore
SplineSet
218 -60 m 257
 139 77 139 77 139 206 c 0
 139 375 139 375 278 530 c 1
 152 554 l 257
 60 412 60 412 60 260 c 0
 60 88 60 88 173 -74 c 1
 218 -60 l 257
EndSplineSet
EndChar

StartChar: parenright
Encoding: 41 41 6
GlifName: parenright
Width: 300
VWidth: 0
Flags: W
LayerCount: 2
Back
Fore
SplineSet
127 -74 m 257
 240 86 240 86 240 260 c 0
 240 412 240 412 148 554 c 1
 23 530 l 257
 161 374 161 374 161 206 c 0
 161 78 161 78 83 -60 c 1
 127 -74 l 257
EndSplineSet
EndChar

StartChar: plus
Encoding: 43 43 7
GlifName: plus
Width: 460
VWidth: 0
Flags: W
LayerCount: 2
Back
Fore
SplineSet
208 81 m 257
 271 74 l 257
 271 207 l 257
 384 215 l 257
 392 277 l 257
 271 277 l 257
 271 390 l 257
 188 398 l 257
 196 277 l 257
 75 277 l 257
 68 194 l 257
 200 203 l 257
 208 81 l 257
EndSplineSet
EndChar

StartChar: comma
Encoding: 44 44 8
GlifName: comma
Width: 210
VWidth: 0
Flags: W
LayerCount: 2
Back
Fore
SplineSet
108 -5 m 257
 98 -56 98 -56 55 -92 c 1
 111 -137 l 257
 177 -78 177 -78 177 41 c 0
 177 80 177 80 172 104 c 1
 148 128 148 128 104 128 c 0
 67 128 67 128 52.5 111.5 c 0
 38 95 38 95 38 59 c 0
 38 26 38 26 49 7.5 c 0
 60 -11 60 -11 79 -11 c 0
 94 -11 94 -11 105 -3 c 1
 108 -5 l 257
EndSplineSet
EndChar

StartChar: hyphen
Encoding: 45 45 9
GlifName: hyphen
Width: 330
VWidth: 0
Flags: W
LayerCount: 2
Back
Fore
SplineSet
281 206 m 257
 281 275 l 257
 56 275 l 257
 53 170 l 257
 281 206 l 257
EndSplineSet
EndChar

StartChar: period
Encoding: 46 46 10
GlifName: period
Width: 210
VWidth: 0
Flags: W
LayerCount: 2
Back
Fore
SplineSet
107 -8 m 256
 143 -8 143 -8 160 10.5 c 0
 177 29 177 29 177 59 c 0
 177 88 177 88 160 106.5 c 0
 143 125 143 125 107 125 c 0
 38 125 38 125 38 59 c 0
 38 29 38 29 54.5 10.5 c 0
 71 -8 71 -8 107 -8 c 256
EndSplineSet
EndChar

StartChar: slash
Encoding: 47 47 11
GlifName: slash
Width: 370
VWidth: 0
Flags: W
LayerCount: 2
Back
Fore
SplineSet
60 -51 m 257
 113 -68 l 257
 312 531 l 257
 228 554 l 257
 60 -51 l 257
EndSplineSet
EndChar

StartChar: zero
Encoding: 48 48 12
GlifName: zero
Width: 480
VWidth: 0
Flags: W
LayerCount: 2
Back
Fore
SplineSet
423 237 m 256
 423 348 423 348 379 452 c 1
 329 499 329 499 238 499 c 0
 193 499 193 499 138 481 c 1
 107 447 107 447 84 386 c 0
 61 325 61 325 61 245 c 0
 61 135 61 135 104 29 c 1
 154 -17 154 -17 246 -17 c 0
 289 -17 289 -17 346 1 c 1
 377 34 377 34 400 95.5 c 0
 423 157 423 157 423 237 c 256
157 119 m 256
 157 200 157 200 186.5 285 c 0
 216 370 216 370 269 430 c 1
 298 430 298 430 322 424 c 1
 327 402 327 402 327 363 c 0
 327 282 327 282 297.5 196.5 c 0
 268 111 268 111 215 52 c 1
 182 52 182 52 162 57 c 1
 157 81 157 81 157 119 c 256
EndSplineSet
EndChar

StartChar: one
Encoding: 49 49 13
GlifName: one
Width: 350
VWidth: 0
Flags: W
LayerCount: 2
Back
Fore
SplineSet
260 500 m 257
 0 369 l 257
 39 288 l 257
 125 349 l 257
 153 -11 l 257
 236 -3 l 257
 287 488 l 257
 260 500 l 257
EndSplineSet
EndChar

StartChar: two
Encoding: 50 50 14
GlifName: two
Width: 430
VWidth: 0
Flags: W
LayerCount: 2
Back
Fore
SplineSet
68 373 m 257
 182 450 l 257
 221 426 221 426 221 362 c 0
 221 280 221 280 163.5 184 c 0
 106 88 106 88 25 50 c 1
 30 0 l 257
 374 0 l 257
 374 85 l 257
 139 61 l 257
 139 68 l 257
 236 128 236 128 302.5 221.5 c 0
 369 315 369 315 369 403 c 0
 369 433 369 433 360 463 c 257
 302 499 302 499 206 499 c 0
 146 499 146 499 107.5 488 c 0
 69 477 69 477 29 454 c 1
 68 373 l 257
EndSplineSet
EndChar

StartChar: three
Encoding: 51 51 15
GlifName: three
Width: 430
VWidth: 0
Flags: W
LayerCount: 2
Back
Fore
SplineSet
170 191 m 257
 213 216 213 216 259 228 c 1
 270 208 270 208 270 127 c 0
 270 83 270 83 259 39 c 1
 155 43 155 43 71 96 c 1
 35 29 l 257
 119 -18 119 -18 220 -18 c 0
 314 -18 314 -18 357.5 17 c 0
 401 52 401 52 401 123 c 0
 401 216 401 216 340 275 c 1
 321 281 321 281 293 281 c 1
 367 350 367 350 367 424 c 0
 367 438 367 438 360 463 c 1
 302 499 302 499 206 499 c 0
 147 499 147 499 113 488.5 c 0
 79 478 79 478 36 454 c 1
 75 373 l 257
 182 450 l 257
 227 423 227 423 227 367 c 0
 227 335 227 335 210.5 296 c 0
 194 257 194 257 161 225 c 2
 151 215 l 257
 170 191 l 257
EndSplineSet
EndChar

StartChar: four
Encoding: 52 52 16
GlifName: four
Width: 430
VWidth: 0
Flags: W
LayerCount: 2
Back
Fore
SplineSet
210 510 m 257
 149 479 149 479 102.5 397.5 c 0
 56 316 56 316 56 218 c 0
 56 169 56 169 68 114 c 1
 94 94 94 94 143.5 81 c 0
 193 68 193 68 252 68 c 0
 273 68 273 68 284 69 c 1
 290 -11 l 257
 374 -3 l 257
 402 264 l 257
 272 255 l 257
 279 141 l 257
 247 136 247 136 204 136 c 0
 163 136 163 136 131 140 c 1
 131 218 131 218 194 295.5 c 0
 257 373 257 373 347 419 c 1
 210 510 l 257
EndSplineSet
EndChar

StartChar: five
Encoding: 53 53 17
GlifName: five
Width: 430
VWidth: 0
Flags: W
LayerCount: 2
Back
Fore
SplineSet
53 480 m 257
 41 464 l 257
 88 198 l 257
 148 191 l 257
 195 220 195 220 259 228 c 1
 270 208 270 208 270 127 c 0
 270 83 270 83 259 39 c 1
 155 43 155 43 71 96 c 1
 35 29 l 257
 119 -18 119 -18 220 -18 c 0
 314 -18 314 -18 357.5 17 c 0
 401 52 401 52 401 123 c 0
 401 216 401 216 340 275 c 1
 323 281 323 281 296 281 c 0
 225 281 225 281 158 238 c 1
 199 417 l 257
 354 404 l 257
 368 492 l 257
 53 480 l 257
EndSplineSet
EndChar

StartChar: six
Encoding: 54 54 18
GlifName: six
Width: 430
VWidth: 0
Flags: W
LayerCount: 2
Back
Fore
SplineSet
251 228 m 257
 263 207 263 207 263 127 c 0
 263 79 263 79 251 39 c 1
 229 34 229 34 212 34 c 0
 181 34 181 34 149 50 c 1
 175 203 175 203 251 228 c 257
142 176 m 257
 189 317 189 317 347 419 c 1
 210 510 l 257
 145 468 145 468 95.5 373 c 0
 46 278 46 278 46 155 c 0
 46 95 46 95 59 31 c 1
 119 -18 119 -18 227 -18 c 0
 320 -18 320 -18 356.5 16 c 0
 393 50 393 50 393 123 c 0
 393 216 393 216 332 275 c 1
 312 283 312 283 287 283 c 0
 198 283 198 283 151 171 c 1
 142 176 l 257
EndSplineSet
EndChar

StartChar: seven
Encoding: 55 55 19
GlifName: seven
Width: 380
VWidth: 0
Flags: W
LayerCount: 2
Back
Fore
SplineSet
11 492 m 257
 25 404 l 257
 164 416 l 257
 136 -11 l 257
 218 -3 l 257
 345 464 l 257
 334 480 l 257
 11 492 l 257
EndSplineSet
EndChar

StartChar: eight
Encoding: 56 56 20
GlifName: eight
Width: 460
VWidth: 0
Flags: W
LayerCount: 2
Back
Fore
SplineSet
86 8 m 257
 154 -18 154 -18 236 -18 c 0
 422 -18 422 -18 422 124 c 0
 422 185 422 185 377 243 c 1
 348 253 l 257
 409 298 409 298 409 364 c 0
 409 419 409 419 367 475 c 1
 299 499 299 499 227 499 c 0
 54 499 54 499 54 368 c 0
 54 314 54 314 96 257 c 0
 103 254 103 254 111 252 c 1
 41 205 41 205 41 128 c 0
 41 68 41 68 86 8 c 257
291 136 m 256
 291 70 291 70 242 30 c 1
 203 30 203 30 178 50 c 1
 166 77 166 77 166 111 c 0
 166 190 166 190 218 232 c 1
 240 232 240 232 261 229 c 1
 291 194 291 194 291 136 c 256
168 356 m 256
 168 413 168 413 221 450 c 1
 261 450 261 450 288 433 c 1
 300 409 300 409 300 378 c 0
 300 309 300 309 245 271 c 1
 222.5 271 222.5 271 200 274 c 257
 168 304 168 304 168 356 c 256
EndSplineSet
EndChar

StartChar: nine
Encoding: 57 57 21
GlifName: nine
Width: 430
VWidth: 0
Flags: W
LayerCount: 2
Back
Fore
SplineSet
293 392 m 256
 293 269 293 269 188 253 c 1
 177 273 177 273 177 354 c 0
 177 398 177 398 188 442 c 1
 210 447 210 447 228 447 c 0
 259 447 259 447 290 431 c 1
 293 410 293 410 293 392 c 256
270 239 m 257
 198 107 198 107 92 40 c 1
 220 -46 l 257
 285 -4 285 -4 339 99.5 c 0
 393 203 393 203 393 326 c 0
 393 386 393 386 380 450 c 1
 322 499 322 499 212 499 c 0
 119 499 119 499 82.5 465 c 0
 46 431 46 431 46 358 c 0
 46 265 46 265 107 206 c 1
 134 198 134 198 154 198 c 0
 214 198 214 198 265 242 c 1
 270 239 l 257
EndSplineSet
EndChar

StartChar: colon
Encoding: 58 58 22
GlifName: colon
Width: 210
VWidth: 0
Flags: W
LayerCount: 2
Back
Fore
SplineSet
110 243 m 256
 179 243 179 243 179 309 c 0
 179 375 179 375 110 375 c 0
 74 375 74 375 57 356.5 c 0
 40 338 40 338 40 309 c 0
 40 280 40 280 57 261.5 c 0
 74 243 74 243 110 243 c 256
107 -8 m 256
 143 -8 143 -8 160 10.5 c 0
 177 29 177 29 177 59 c 0
 177 88 177 88 160 106.5 c 0
 143 125 143 125 107 125 c 0
 38 125 38 125 38 59 c 0
 38 29 38 29 54.5 10.5 c 0
 71 -8 71 -8 107 -8 c 256
EndSplineSet
EndChar

StartChar: semicolon
Encoding: 59 59 23
GlifName: semicolon
Width: 210
VWidth: 0
Flags: W
LayerCount: 2
Back
Fore
SplineSet
108 -5 m 257
 98 -56 98 -56 55 -92 c 1
 111 -137 l 257
 177 -78 177 -78 177 41 c 0
 177 80 177 80 172 104 c 1
 148 128 148 128 104 128 c 0
 67 128 67 128 52.5 111.5 c 0
 38 95 38 95 38 59 c 0
 38 26 38 26 49 7.5 c 0
 60 -11 60 -11 79 -11 c 0
 94 -11 94 -11 105 -3 c 1
 108 -5 l 257
110 243 m 256
 179 243 179 243 179 309 c 0
 179 375 179 375 110 375 c 0
 74 375 74 375 57 356.5 c 0
 40 338 40 338 40 309 c 0
 40 280 40 280 57 261.5 c 0
 74 243 74 243 110 243 c 256
EndSplineSet
EndChar

StartChar: equal
Encoding: 61 61 24
GlifName: equal
Width: 460
VWidth: 0
Flags: W
LayerCount: 2
Back
Fore
SplineSet
384 290 m 257
 392 352 l 257
 75 352 l 257
 68 269 l 257
 384 290 l 257
75 182 m 257
 68 119 l 257
 384 119 l 257
 392 202 l 257
 75 182 l 257
EndSplineSet
EndChar

StartChar: question
Encoding: 63 63 25
GlifName: question
Width: 310
VWidth: 0
Flags: W
LayerCount: 2
Back
Fore
SplineSet
145 -11 m 256
 174 -11 174 -11 194.5 9.5 c 0
 215 30 215 30 215 59 c 0
 215 87 215 87 194.5 107.5 c 0
 174 128 174 128 145 128 c 0
 116 128 116 128 95.5 107.5 c 0
 75 87 75 87 75 59 c 0
 75 30 75 30 95.5 9.5 c 0
 116 -11 116 -11 145 -11 c 256
98 225 m 257
 141 173 l 257
 197 200 197 200 243.5 259.5 c 0
 290 319 290 319 290 393 c 0
 290 435 290 435 280 476 c 1
 235 512 235 512 134 512 c 0
 75 512 75 512 32 498 c 1
 58 368 l 257
 113 394 113 394 193 394 c 1
 193 290 193 290 98 225 c 257
EndSplineSet
EndChar

StartChar: backslash
Encoding: 92 92 26
GlifName: backslash
Width: 370
VWidth: 0
Flags: W
LayerCount: 2
Back
Fore
SplineSet
144 554 m 257
 60 531 l 257
 260 -68 l 257
 312 -51 l 257
 144 554 l 257
EndSplineSet
EndChar

StartChar: underscore
Encoding: 95 95 27
GlifName: underscore
Width: 430
VWidth: 0
Flags: W
LayerCount: 2
Back
Fore
SplineSet
391 -74 m 257
 401 -11 l 257
 41 -11 l 257
 30 -94 l 257
 391 -74 l 257
EndSplineSet
EndChar

StartChar: bar
Encoding: 124 124 28
GlifName: bar
Width: 270
VWidth: 0
Flags: W
LayerCount: 2
Back
Fore
SplineSet
104 -77 m 257
 163 -77 l 257
 186 554 l 257
 81 554 l 257
 104 -77 l 257
EndSplineSet
EndChar

StartChar: uni0964
Encoding: 2404 2404 29
Width: 168
GlyphClass: 2
Flags: W
LayerCount: 2
Back
Fore
SplineSet
88 -20 m 1,0,-1
 0 -20 l 1,1,-1
 0 472 l 1,2,-1
 88 472 l 1,3,-1
 88 -20 l 1,0,-1
EndSplineSet
EndChar

StartChar: uni0965
Encoding: 2405 2405 30
Width: 368
GlyphClass: 2
Flags: W
LayerCount: 2
Back
Fore
SplineSet
88 -20 m 1,0,-1
 0 -20 l 1,1,-1
 0 472 l 1,2,-1
 88 472 l 1,3,-1
 88 -20 l 1,0,-1
288 -20 m 1,4,-1
 200 -20 l 1,5,-1
 200 472 l 1,6,-1
 288 472 l 1,7,-1
 288 -20 l 1,4,-1
EndSplineSet
EndChar

StartChar: U0C01
Encoding: 3073 3073 31
Width: 382
GlyphClass: 2
Flags: W
LayerCount: 2
Back
Fore
SplineSet
187 416 m 1,0,1
 159.5 398.5 159.5 398.5 140.75 366.25 c 0,2,3
 101.74025974 299.153246753 101.74025974 299.153246753 94 262 c 0,4,5
 88.5940131264 238.445342908 88.5940131264 238.445342908 88.5940131264 216.114251584 c 0,6,7
 88.5940131264 139.93820246 88.5940131264 139.93820246 151.5 78 c 0,8,9
 184 46 184 46 218.5 27 c 128,-1,10
 253 8 253 8 268 0 c 1,11,-1
 136 0 l 1,12,13
 94 20 94 20 65 54 c 0,14,15
 7.71282298699 113.40892431 7.71282298699 113.40892431 7.71282298699 196.048009228 c 0,16,17
 7.71282298699 212.560275276 7.71282298699 212.560275276 10 230 c 0,18,19
 27.6129032258 325.612903226 27.6129032258 325.612903226 102.5 400.5 c 0,20,21
 120 418 120 418 131 426 c 1,22,-1
 187 416 l 1,0,1
EndSplineSet
EndChar

StartChar: U0C02
Encoding: 3074 3074 32
Width: 537
GlyphClass: 2
Flags: W
LayerCount: 2
Back
Fore
SplineSet
393.5 373 m 0,0,1
 419 349 419 349 431 318.5 c 0,2,3
 439.727272727 296.318181818 439.727272727 296.318181818 439.727272727 265.673553719 c 0,4,5
 439.727272727 254.181818182 439.727272727 254.181818182 438.5 241.5 c 0,6,7
 434 195 434 195 412 148 c 128,-1,8
 390 101 390 101 351.5 62.5 c 128,-1,9
 313 24 313 24 258 7 c 0,10,11
 230.52826124 0.00719377008816 230.52826124 0.00719377008816 204.813990026 0.00719377008816 c 0,12,13
 136.750434675 0.00719377008816 136.750434675 0.00719377008816 81 49 c 0,14,15
 48 78 48 78 28 115.5 c 128,-1,16
 8 153 8 153 1.5 184.5 c 0,17,18
 -0.377777777778 193.6 -0.377777777778 193.6 -0.377777777778 203.659753086 c 0,19,20
 -0.377777777778 228.422222222 -0.377777777778 228.422222222 11 259 c 0,21,22
 27 302 27 302 55 341.5 c 128,-1,23
 83 381 83 381 117 409 c 128,-1,24
 151 437 151 437 179 440 c 0,25,26
 193.964448816 441.094959669 193.964448816 441.094959669 208.277326142 441.094959669 c 0,27,28
 321.149105351 441.094959669 321.149105351 441.094959669 393.5 373 c 0,0,1
264 76 m 0,29,30
 265.666666667 75.8333333333 265.666666667 75.8333333333 267.315972222 75.8333333333 c 0,31,32
 285.458333333 75.8333333333 285.458333333 75.8333333333 301.5 96 c 0,33,34
 319 118 319 118 329.5 150.5 c 0,35,36
 340.517241379 184.600985222 340.517241379 184.600985222 340.517241379 221.469678954 c 0,37,38
 340.517241379 255.862068966 340.517241379 255.862068966 327 280 c 0,39,40
 292.078817734 329.300492611 292.078817734 329.300492611 240 351 c 0,41,42
 209.711704511 363.62012312 209.711704511 363.62012312 188.106798745 363.62012312 c 0,43,44
 169.243793062 363.62012312 169.243793062 363.62012312 157 354 c 0,45,46
 146 348 146 348 132 327.5 c 128,-1,47
 118 307 118 307 107 279.5 c 128,-1,48
 96 252 96 252 94.5 220 c 0,49,50
 94.3676470588 217.176470588 94.3676470588 217.176470588 94.3676470588 214.380190311 c 0,51,52
 94.3676470588 185.485294118 94.3676470588 185.485294118 108.5 159.5 c 0,53,54
 144.026071842 94.1778679027 144.026071842 94.1778679027 264 76 c 0,29,30
EndSplineSet
EndChar

StartChar: U0C03
Encoding: 3075 3075 33
Width: 283
GlyphClass: 2
Flags: W
LayerCount: 2
Back
Fore
SplineSet
142 436.5 m 0,0,1
 185.82183085 415.319448422 185.82183085 415.319448422 185.82183085 368.680634702 c 0,2,3
 185.82183085 364.683801055 185.82183085 364.683801055 185.5 360.5 c 0,4,5
 182.166666667 317.166666667 182.166666667 317.166666667 149.5 284.5 c 0,6,7
 133 268 133 268 109.5 262 c 0,8,9
 97.2391304348 258.869565217 97.2391304348 258.869565217 86.3393194707 258.869565217 c 0,10,11
 76.347826087 258.869565217 76.347826087 258.869565217 67.5 261.5 c 0,12,13
 49 267 49 267 35.5 279.5 c 0,14,15
 8.09900990099 304.871287129 8.09900990099 304.871287129 1 338 c 0,16,17
 -0.0244568971213 342.439313221 -0.0244568971213 342.439313221 -0.0244568971213 347.321722801 c 0,18,19
 -0.0244568971213 370.965352729 -0.0244568971213 370.965352729 24 405 c 0,20,21
 51.4375 443.869791667 51.4375 443.869791667 81.71875 447.434895833 c 0,22,23
 87.6946806977 448.13846043 87.6946806977 448.13846043 93.6596578166 448.13846043 c 0,24,25
 117.920426697 448.13846043 117.920426697 448.13846043 142 436.5 c 0,0,1
111 301 m 0,26,27
 111.908059701 300.870277186 111.908059701 300.870277186 112.792777902 300.870277186 c 0,28,29
 125.587164179 300.870277186 125.587164179 300.870277186 133.5 328 c 0,30,31
 137 340 137 340 137 353 c 128,-1,32
 137 366 137 366 128.5 378.5 c 128,-1,33
 120 391 120 391 102 399 c 128,-1,34
 84 407 84 407 76 401.5 c 128,-1,35
 68 396 68 396 60 382.5 c 0,36,37
 51.48 368.1225 51.48 368.1225 51.48 350.6432 c 0,38,39
 51.48 334.4 51.48 334.4 63 320 c 0,40,41
 75 305 75 305 111 301 c 0,26,27
142 210 m 0,42,43
 185.825000498 189.548333101 185.825000498 189.548333101 185.825000498 142.754664084 c 0,44,45
 185.825000498 138.725006471 185.825000498 138.725006471 185.5 134.5 c 0,46,47
 182.166666667 91.1666666667 182.166666667 91.1666666667 149.5 58.5 c 0,48,49
 133 42 133 42 109.5 36 c 0,50,51
 97.2391304348 32.8695652174 97.2391304348 32.8695652174 86.3393194707 32.8695652174 c 0,52,53
 76.347826087 32.8695652174 76.347826087 32.8695652174 67.5 35.5 c 0,54,55
 49 41 49 41 35.5 53.5 c 0,56,57
 0.400499467711 85.9995375299 0.400499467711 85.9995375299 0.400499467711 119.292299915 c 0,58,59
 0.400499467711 131.344177165 0.400499467711 131.344177165 5 143.5 c 0,60,61
 20.0905459387 183.382157124 20.0905459387 183.382157124 50.5 207.5 c 0,62,63
 65 219 65 219 77 220 c 0,64,65
 84.7777777778 220.888888889 84.7777777778 220.888888889 92.3086419753 220.888888889 c 0,66,67
 118.666666667 220.888888889 118.666666667 220.888888889 142 210 c 0,42,43
110 75 m 0,68,69
 110.908059701 74.8702771855 110.908059701 74.8702771855 111.792777902 74.8702771855 c 0,70,71
 124.587164179 74.8702771855 124.587164179 74.8702771855 132.5 102 c 0,72,73
 136 114 136 114 136 126.5 c 128,-1,74
 136 139 136 139 127.5 152 c 128,-1,75
 119 165 119 165 100.5 172.5 c 128,-1,76
 82 180 82 180 74.5 175 c 128,-1,77
 67 170 67 170 59 156 c 0,78,79
 50.48 141.09 50.48 141.09 50.48 125.2608 c 0,80,81
 50.48 110.4 50.48 110.4 62 96 c 0,82,83
 74 81 74 81 110 75 c 0,68,69
EndSplineSet
EndChar

StartChar: U0C05
Encoding: 3077 3077 34
Width: 727
GlyphClass: 2
Flags: W
LayerCount: 2
Back
Fore
SplineSet
407 433.5 m 128,-1,1
 428 450 428 450 445.5 455.5 c 0,2,3
 455.125 458.525 455.125 458.525 468.6825 458.525 c 0,4,5
 479.775 458.525 479.775 458.525 493.5 456.5 c 0,6,7
 524 452 524 452 554.5 430.5 c 0,8,9
 628 378.68852459 628 378.68852459 628 252 c 0,10,11
 628 186 628 186 595 138.5 c 128,-1,12
 562 91 562 91 513 60.5 c 128,-1,13
 464 30 464 30 406.5 15 c 128,-1,14
 349 0 349 0 308 0 c 128,-1,15
 267 0 267 0 226 12 c 128,-1,16
 185 24 185 24 146.5 43 c 0,17,18
 11.9834077856 109.384811742 11.9834077856 109.384811742 2 190.5 c 0,19,20
 0.774461550019 200.457499906 0.774461550019 200.457499906 0.774461550019 210.469077595 c 0,21,22
 0.774461550019 270.269828071 0.774461550019 270.269828071 44.5 332 c 0,23,24
 70 368 70 368 110.5 399 c 128,-1,25
 151 430 151 430 189.5 434.5 c 0,26,27
 201.05 435.85 201.05 435.85 211.97 435.85 c 0,28,29
 237.45 435.85 237.45 435.85 259.5 428.5 c 0,30,31
 291 418 291 418 311 396.5 c 128,-1,32
 331 375 331 375 333 355 c 0,33,34
 333.177777778 351.711111111 333.177777778 351.711111111 333.177777778 348.481481481 c 0,35,36
 333.177777778 315.377777778 333.177777778 315.377777778 314.5 288.5 c 0,37,38
 294 259 294 259 258 248.5 c 0,39,40
 235.764705882 242.014705882 235.764705882 242.014705882 219.060986159 242.014705882 c 0,41,42
 208.720588235 242.014705882 208.720588235 242.014705882 200.5 244.5 c 0,43,44
 154.466257669 258.417177914 154.466257669 258.417177914 126 294 c 1,45,46
 107.72972973 260.972972973 107.72972973 260.972972973 107.72972973 231.15558802 c 0,47,48
 107.72972973 218.540540541 107.72972973 218.540540541 111 206.5 c 0,49,50
 122 166 122 166 155.5 135.5 c 128,-1,51
 189 105 189 105 238.5 88.5 c 128,-1,52
 288 72 288 72 336.5 72 c 128,-1,53
 385 72 385 72 421.5 87.5 c 128,-1,54
 458 103 458 103 483.5 128.5 c 0,55,56
 537 182 537 182 537 246 c 0,57,58
 537 295.333333333 537 295.333333333 498.5 331.5 c 0,59,60
 465.751927518 362.263340816 465.751927518 362.263340816 440.795011147 362.263340816 c 0,61,62
 435.73752806 362.263340816 435.73752806 362.263340816 431 361 c 0,63,64
 418.866917782 358.793985051 418.866917782 358.793985051 418.866917782 346.767759224 c 0,65,66
 418.866917782 332.269765725 418.866917782 332.269765725 436.5 303.5 c 0,67,68
 446 288 446 288 457.5 270.5 c 0,69,70
 468.08 254.4 468.08 254.4 468.08 234.4912 c 0,71,72
 468.08 210.914545455 468.08 210.914545455 456 189.5 c 0,73,74
 430.217046581 143.793855302 430.217046581 143.793855302 379 140 c 0,75,76
 365.4 138.4 365.4 138.4 346.68 138.4 c 0,77,78
 342 138.4 342 138.4 337 138.5 c 0,79,80
 312 139 312 139 286.5 139 c 128,-1,81
 261 139 261 139 231 140 c 1,82,-1
 231 212 l 1,83,-1
 376 212 l 2,84,85
 398 212 398 212 400 228.5 c 0,86,87
 400.333333333 231.25 400.333333333 231.25 400.333333333 233.930555556 c 0,88,89
 400.333333333 247.333333333 400.333333333 247.333333333 392 259 c 0,90,91
 362 298 362 298 360.5 332.5 c 0,92,93
 360.35 335.95 360.35 335.95 360.35 339.305 c 0,94,95
 360.35 369.5 360.35 369.5 372.5 392 c 0,96,0
 386 417 386 417 407 433.5 c 128,-1,1
188 377 m 0,97,98
 174 367 174 367 176.5 349.5 c 128,-1,99
 179 332 179 332 191.5 318.5 c 128,-1,100
 204 305 204 305 221.5 300 c 0,101,102
 226.105263158 298.684210526 226.105263158 298.684210526 230.537396122 298.684210526 c 0,103,104
 242.947368421 298.684210526 242.947368421 298.684210526 254 309 c 0,105,106
 266.857142857 321 266.857142857 321 266.857142857 334.102040816 c 0,107,108
 266.857142857 351.142857143 266.857142857 351.142857143 252 366 c 0,109,110
 240 378 240 378 222 382 c 0,111,112
 216.461538462 383.230769231 216.461538462 383.230769231 211.112426036 383.230769231 c 0,113,114
 199.076923077 383.230769231 199.076923077 383.230769231 188 377 c 0,97,98
EndSplineSet
EndChar

StartChar: U0C06
Encoding: 3078 3078 35
Width: 712
GlyphClass: 2
Flags: W
LayerCount: 2
Back
Fore
SplineSet
231 218 m 1,0,1
 264 214.333333333 264 214.333333333 302.5 214.333333333 c 128,-1,2
 341 214.333333333 341 214.333333333 385 218 c 0,3,4
 395 218 395 218 402.5 219.5 c 128,-1,5
 410 221 410 221 418 221 c 1,6,7
 411 235 411 235 399 253 c 256,8,9
 395 259 395 259 391 265 c 0,10,11
 359.807573976 306.589901365 359.807573976 306.589901365 359.807573976 345.723197893 c 0,12,13
 359.807573976 371.650782401 359.807573976 371.650782401 373.5 396.5 c 0,14,15
 387 421 387 421 408 437 c 128,-1,16
 429 453 429 453 454 458.5 c 0,17,18
 462.870967742 460.451612903 462.870967742 460.451612903 472.560353798 460.451612903 c 0,19,20
 490.177419355 460.451612903 490.177419355 460.451612903 510.5 454 c 0,21,22
 542 444 542 444 565 422.5 c 128,-1,23
 588 401 588 401 600.5 371 c 0,24,25
 611.660714286 344.214285714 611.660714286 344.214285714 611.660714286 316.232780612 c 0,26,27
 611.660714286 312.875 611.660714286 312.875 611.5 309.5 c 0,28,29
 608.067270375 237.412677878 608.067270375 237.412677878 536 190 c 1,30,31
 546.502357735 168.24511612 546.502357735 168.24511612 546.502357735 147.428883835 c 0,32,33
 546.502357735 116.958864194 546.502357735 116.958864194 524 88.5 c 0,34,35
 491.826154645 47.809548521 491.826154645 47.809548521 422.5 22.5 c 0,36,37
 360.451387585 -0.152668024526 360.451387585 -0.152668024526 305.90530887 -0.152668024526 c 0,38,39
 301.427372711 -0.152668024526 301.427372711 -0.152668024526 297 0 c 0,40,41
 256.941176471 0 256.941176471 0 212.470588235 13.5 c 128,-1,42
 168 27 168 27 138.5 42 c 0,43,44
 70.9482038429 76.3483709273 70.9482038429 76.3483709273 25 137 c 0,45,46
 0.352587352412 168.133573871 0.352587352412 168.133573871 0.352587352412 211.455641159 c 0,47,48
 0.352587352412 235.586943836 0.352587352412 235.586943836 8 263.5 c 0,49,50
 30.0695652174 344.053913043 30.0695652174 344.053913043 110 406 c 0,51,52
 158.056586336 441.163355856 158.056586336 441.163355856 207.788600543 441.163355856 c 0,53,54
 233.175997134 441.163355856 233.175997134 441.163355856 259 432 c 0,55,56
 290 421 290 421 310 400.5 c 128,-1,57
 330 380 330 380 333 361 c 0,58,59
 333.216216216 357.108108108 333.216216216 357.108108108 333.216216216 353.309715121 c 0,60,61
 333.216216216 321.972972973 333.216216216 321.972972973 318.5 297 c 0,62,63
 302 269 302 269 253 253 c 0,64,65
 239.66204887 248.731855638 239.66204887 248.731855638 225.368324198 248.731855638 c 0,66,67
 196.617606016 248.731855638 196.617606016 248.731855638 164 266 c 0,68,69
 143 278 143 278 125 295 c 1,70,71
 106.064935065 260.636363636 106.064935065 260.636363636 106.064935065 230.699106089 c 0,72,73
 106.064935065 217.948051948 106.064935065 217.948051948 109.5 206 c 0,74,75
 121 166 121 166 154.5 137 c 128,-1,76
 188 108 188 108 238 92 c 128,-1,77
 288 76 288 76 331 76 c 128,-1,78
 374 76 374 76 395.5 83.5 c 128,-1,79
 417 91 417 91 428.5 102 c 0,80,81
 444.752101719 117.545488601 444.752101719 117.545488601 444.752101719 144.754002921 c 0,82,83
 444.752101719 150.607135389 444.752101719 150.607135389 444 157 c 1,84,85
 417 152.5 417 152.5 391 146 c 0,86,87
 354 142 354 142 311.5 142 c 128,-1,88
 269 142 269 142 231 146 c 1,89,-1
 231 218 l 1,0,1
221.5 386.5 m 0,90,91
 215.95 387.85 215.95 387.85 210.67 387.85 c 0,92,93
 198.35 387.85 198.35 387.85 187.5 380.5 c 0,94,95
 173.367647059 370.926470588 173.367647059 370.926470588 173.367647059 355.533737024 c 0,96,97
 173.367647059 337.058184143 173.367647059 337.058184143 186.5 320.5 c 0,98,99
 198 306 198 306 217 301.5 c 0,100,101
 221.5 300.434210526 221.5 300.434210526 225.887811634 300.434210526 c 0,102,103
 240.026315789 300.434210526 240.026315789 300.434210526 253 311.5 c 0,104,105
 267.820512821 324.141025641 267.820512821 324.141025641 267.820512821 337.92209073 c 0,106,107
 267.820512821 355.292307692 267.820512821 355.292307692 252.5 370 c 0,108,109
 240 382 240 382 221.5 386.5 c 0,90,91
489 250 m 1,110,111
 526.832878937 271.383801138 526.832878937 271.383801138 526.832878937 306.743471004 c 0,112,113
 526.832878937 310.060250988 526.832878937 310.060250988 526.5 313.5 c 0,114,115
 523.41003672 345.429620563 523.41003672 345.429620563 492 364.5 c 0,116,117
 475.115868318 374.75107995 475.115868318 374.75107995 459.693278707 374.75107995 c 0,118,119
 444.65151193 374.75107995 444.65151193 374.75107995 431 365 c 0,120,121
 415.715080973 355.65921615 415.715080973 355.65921615 415.715080973 340.822552777 c 0,122,123
 415.715080973 326.479435037 415.715080973 326.479435037 430 307 c 0,124,125
 443 290 443 290 459 277 c 128,-1,126
 475 264 475 264 479.5 259.5 c 2,127,-1
 489 250 l 1,110,111
EndSplineSet
EndChar

StartChar: U0C07
Encoding: 3079 3079 36
Width: 651
GlyphClass: 2
Flags: W
LayerCount: 2
Back
Fore
SplineSet
449 -9 m 1,0,1
 406.142857143 31 406.142857143 31 383 58 c 1,2,3
 321.604897419 13.8722700199 321.604897419 13.8722700199 230.5 1.5 c 0,4,5
 206.96537815 -1.69605975746 206.96537815 -1.69605975746 184.894023169 -1.69605975746 c 0,6,7
 130.802701028 -1.69605975746 130.802701028 -1.69605975746 85.5 17.5 c 0,8,9
 56 30 56 30 39.5 51.5 c 0,10,11
 25.5384615385 69.6923076923 25.5384615385 69.6923076923 25.5384615385 91.8224852071 c 0,12,13
 25.5384615385 95.8461538462 25.5384615385 95.8461538462 26 100 c 0,14,15
 29 127 29 127 47.5 145.5 c 128,-1,16
 66 164 66 164 92 174.5 c 0,17,18
 138.339868448 193.214177643 138.339868448 193.214177643 198.883544088 193.214177643 c 0,19,20
 205.36049308 193.214177643 205.36049308 193.214177643 212 193 c 0,21,22
 265.578947368 193 265.578947368 193 330 167.5 c 0,23,24
 354 158 354 158 369.5 148.5 c 128,-1,25
 385 139 385 139 389 137 c 1,26,27
 463.220901886 205.919408894 463.220901886 205.919408894 463.220901886 270.91947459 c 0,28,29
 463.220901886 274.465569819 463.220901886 274.465569819 463 278 c 0,30,31
 460.656804734 315.49112426 460.656804734 315.49112426 419 342 c 1,32,33
 395.324305448 352.761679342 395.324305448 352.761679342 374.21361978 352.761679342 c 0,34,35
 358.110585131 352.761679342 358.110585131 352.761679342 343.5 346.5 c 0,36,37
 326.753846154 339.323076923 326.753846154 339.323076923 320.876923077 323.161538462 c 0,38,39
 310.2 293.8 310.2 293.8 304 269 c 1,40,-1
 234 269 l 1,41,42
 240 290 240 290 240 307.5 c 0,43,44
 240 349.272727273 240 349.272727273 222 364 c 0,45,46
 211 371 211 371 187 374 c 0,47,48
 175 375.5 175 375.5 163.375 375.5 c 128,-1,49
 151.75 375.5 151.75 375.5 140.5 374 c 0,50,51
 118 371 118 371 104.5 359.5 c 0,52,53
 95.9746859408 352.237695431 95.9746859408 352.237695431 95.9746859408 341.932498365 c 0,54,55
 95.9746859408 325.557703949 95.9746859408 325.557703949 117.5 301.5 c 0,56,57
 132.443548387 284.798387097 132.443548387 284.798387097 154 275 c 1,58,-1
 84 220 l 1,59,60
 0.116977418411 295.494720323 0.116977418411 295.494720323 0.116977418411 343.501056475 c 0,61,62
 0.116977418411 356.2144586 0.116977418411 356.2144586 6 367 c 0,63,64
 27.6086956522 404.043478261 27.6086956522 404.043478261 127.5 444 c 0,65,66
 183.692307692 466.476923077 183.692307692 466.476923077 210.346153846 467.238461538 c 0,67,68
 212.961347869 467.313181368 212.961347869 467.313181368 215.368081715 467.313181368 c 0,69,70
 237.490584737 467.313181368 237.490584737 467.313181368 242 461 c 0,71,72
 248.857142857 448.428571429 248.857142857 448.428571429 257.428571429 420.714285714 c 128,-1,73
 266 393 266 393 271 379 c 1,74,75
 298.586715867 418.409594096 298.586715867 418.409594096 335.5 434.5 c 0,76,77
 343.417811631 437.951353788 343.417811631 437.951353788 356.779454816 437.951353788 c 0,78,79
 388.905059801 437.951353788 388.905059801 437.951353788 452.5 418 c 0,80,81
 499.361256545 403.298429319 499.361256545 403.298429319 512 387.5 c 2,82,-1
 526 370 l 1,83,84
 550.208834881 335.41595017 550.208834881 335.41595017 550.208834881 288.941173107 c 0,85,86
 550.208834881 266.37259947 550.208834881 266.37259947 544.5 241 c 0,87,88
 535.478208232 200.9031477 535.478208232 200.9031477 510.239104116 163.45157385 c 128,-1,89
 485 126 485 126 473 111 c 128,-1,90
 461 96 461 96 449 89 c 1,91,-1
 520 31 l 1,92,-1
 449 -9 l 1,0,1
130 113 m 0,93,94
 129.016547061 109.066188243 129.016547061 109.066188243 129.016547061 105.510791501 c 0,95,96
 129.016547061 75.7335993565 129.016547061 75.7335993565 198 72.5 c 0,97,98
 205.867857701 72.1311941702 205.867857701 72.1311941702 213.665578911 72.1311941702 c 0,99,100
 277.697463021 72.1311941702 277.697463021 72.1311941702 337 97 c 1,101,102
 326 110 326 110 294.5 121.5 c 128,-1,103
 263 133 263 133 228.5 137.5 c 0,104,105
 207.319046848 140.26273302 207.319046848 140.26273302 190.623921184 140.26273302 c 0,106,107
 138.178819906 140.26273302 138.178819906 140.26273302 130 113 c 0,93,94
EndSplineSet
EndChar

StartChar: U0C08
Encoding: 3080 3080 37
Width: 800
GlyphClass: 2
Flags: W
LayerCount: 2
Back
Fore
SplineSet
99 430 m 1,0,-1
 354 586 l 1,1,-1
 389 502 l 1,2,-1
 126 388 l 1,3,-1
 99 430 l 1,0,-1
476 315 m 256,4,5
 484.727272727 293.181818182 484.727272727 293.181818182 484.727272727 263.165289256 c 0,6,7
 484.727272727 251.909090909 484.727272727 251.909090909 483.5 239.5 c 0,8,9
 479 194 479 194 458 147.5 c 128,-1,10
 437 101 437 101 399.5 63 c 128,-1,11
 362 25 362 25 309 8 c 0,12,13
 281.225296384 0.2848045511 281.225296384 0.2848045511 255.198965243 0.2848045511 c 0,14,15
 190.136359802 0.2848045511 190.136359802 0.2848045511 136 48.5 c 0,16,17
 77.8219895288 100.314790576 77.8219895288 100.314790576 57 181 c 0,18,19
 55.4 189.8 55.4 189.8 55.4 199.311111111 c 0,20,21
 55.4 225.466666667 55.4 225.466666667 67.5 257 c 0,22,23
 84 300 84 300 111 339 c 128,-1,24
 138 378 138 378 171 405.5 c 128,-1,25
 204 433 204 433 230 436 c 0,26,27
 244.477715959 437.085828697 244.477715959 437.085828697 258.336362217 437.085828697 c 0,28,29
 368.077261774 437.085828697 368.077261774 437.085828697 439 369 c 0,30,31
 464 345 464 345 476 315 c 256,4,5
312 75 m 0,32,33
 312.816326531 74.9591836735 312.816326531 74.9591836735 313.632653061 74.9591836735 c 2,34,-1
 352 97.5 l 1,35,36
 372 121 372 121 384.5 153.5 c 128,-1,37
 397 186 397 186 399.5 221.5 c 0,38,39
 399.878787879 226.878787879 399.878787879 226.878787879 399.878787879 232.016528926 c 0,40,41
 399.878787879 260.787878788 399.878787879 260.787878788 388 282 c 0,42,43
 336.134310363 361.527390777 336.134310363 361.527390777 259.840227229 361.527390777 c 0,44,45
 258.424320421 361.527390777 258.424320421 361.527390777 257 361.5 c 0,46,47
 186.633027523 360.146788991 186.633027523 360.146788991 152.5 267.5 c 0,48,49
 140.146467963 233.96898447 140.146467963 233.96898447 140.146467963 205.606951704 c 0,50,51
 140.146467963 138.648578561 140.146467963 138.648578561 209 100.5 c 0,52,53
 246 80 246 80 312 75 c 0,32,33
558.5 270 m 128,-1,55
 590 269 590 269 605.5 269 c 128,-1,56
 621 269 621 269 643.5 260 c 128,-1,57
 666 251 666 251 682.5 234.5 c 0,58,59
 708.346982543 208.653017457 708.346982543 208.653017457 708.346982543 178.045443843 c 0,60,61
 708.346982543 141.008119237 708.346982543 141.008119237 670.5 97 c 0,62,63
 633.039724872 53.4415405487 633.039724872 53.4415405487 595.669230819 53.4415405487 c 0,64,65
 583.579917546 53.4415405487 583.579917546 53.4415405487 571.5 58 c 0,66,67
 545 68 545 68 525 112 c 0,68,69
 520.573480228 122.328546134 520.573480228 122.328546134 520.573480228 134.15146723 c 0,70,71
 520.573480228 153.146960456 520.573480228 153.146960456 532 176 c 0,72,73
 540 194 540 194 552 210 c 1,74,-1
 1 210 l 1,75,-1
 1 280 l 1,76,77
 154 278 154 278 243.5 276 c 128,-1,78
 333 274 333 274 386 273 c 128,-1,79
 439 272 439 272 483 271.5 c 128,-1,54
 527 271 527 271 558.5 270 c 128,-1,55
641.5 120 m 0,80,81
 657 121 657 121 663.5 131.5 c 128,-1,82
 670 142 670 142 659 158.5 c 128,-1,83
 648 175 648 175 632 189 c 128,-1,84
 616 203 616 203 601.5 209.5 c 128,-1,85
 587 216 587 216 585 207 c 0,86,87
 581.9375 193.4375 581.9375 193.4375 581.9375 182.076171875 c 0,88,89
 581.9375 167.46875 581.9375 167.46875 587 156.5 c 0,90,91
 596 137 596 137 611 128 c 0,92,93
 624.5 119.9 624.5 119.9 638.405 119.9 c 0,94,95
 639.95 119.9 639.95 119.9 641.5 120 c 0,80,81
637 359.5 m 0,96,97
 637 314.5 637 314.5 610 247 c 1,98,99
 604 245 604 245 598 245 c 256,100,101
 583.75 245 583.75 245 568 259 c 1,102,-1
 580 283 l 2,103,104
 596 315 596 315 596 329.5 c 128,-1,105
 596 344 596 344 588 347.5 c 0,106,107
 584.525676159 349.020016681 584.525676159 349.020016681 580.931822827 349.020016681 c 0,108,109
 570.017157155 349.020016681 570.017157155 349.020016681 558 335 c 0,110,111
 551 327 551 327 545 315 c 1,112,113
 512.4 315 512.4 315 489 341 c 1,114,115
 502.381489842 369.993227991 502.381489842 369.993227991 547.5 386.5 c 0,116,117
 574.264207001 396.291783049 574.264207001 396.291783049 594.886039127 396.291783049 c 0,118,119
 611.416433901 396.291783049 611.416433901 396.291783049 624 390 c 0,120,121
 637 382 637 382 637 359.5 c 0,96,97
EndSplineSet
EndChar

StartChar: U0C09
Encoding: 3081 3081 38
Width: 667
GlyphClass: 2
Flags: W
LayerCount: 2
Back
Fore
SplineSet
322 456 m 1,0,-1
 301 555 l 1,1,-1
 375 557 l 1,2,-1
 353 457 l 1,3,-1
 322 456 l 1,0,-1
529 319 m 1,4,-1
 528 262 l 1,5,-1
 0 256 l 1,6,-1
 0 317 l 1,7,-1
 529 319 l 1,4,-1
473 424 m 1,8,9
 447.8 369.4 447.8 369.4 442 352 c 1,10,11
 430 354 430 354 404.5 359 c 128,-1,12
 379 364 379 364 347 365.5 c 0,13,14
 338.332690714 365.906280123 338.332690714 365.906280123 329.922163552 365.906280123 c 0,15,16
 265.406312254 365.906280123 265.406312254 365.906280123 216 342 c 0,17,18
 143.04 300.96 143.04 300.96 113.5 225 c 0,19,20
 100.489272318 191.543843105 100.489272318 191.543843105 100.489272318 164.304095997 c 0,21,22
 100.489272318 143.607768608 100.489272318 143.607768608 108 126.5 c 0,23,24
 117 106 117 106 138 96 c 0,25,26
 141.111111111 95.1111111111 141.111111111 95.1111111111 144.790123457 95.1111111111 c 0,27,28
 157.666666667 95.1111111111 157.666666667 95.1111111111 177.5 106 c 0,29,30
 232.64 136.272941176 232.64 136.272941176 294 185 c 1,31,32
 320.960110041 129.154057772 320.960110041 129.154057772 366.5 92.5 c 0,33,34
 409.363636364 58 409.363636364 58 442 58 c 1,35,36
 442 -19 442 -19 489 75 c 1,37,38
 475.741582862 69.4756595257 475.741582862 69.4756595257 460.747865492 69.4756595257 c 0,39,40
 431.847475261 69.4756595257 431.847475261 69.4756595257 396.5 90 c 0,41,42
 381 99 381 99 372 113 c 0,43,44
 354 137 354 137 354 159 c 128,-1,45
 354 181 354 181 364 199 c 0,46,47
 385.260869565 237.269565217 385.260869565 237.269565217 418 246 c 0,48,49
 425 247 425 247 441.5 249.5 c 0,50,51
 447.392857143 250.392857143 447.392857143 250.392857143 453.668367347 250.392857143 c 0,52,53
 464.964285714 250.392857143 464.964285714 250.392857143 477.5 247.5 c 0,54,55
 526.845070423 236.112676056 526.845070423 236.112676056 551 174 c 0,56,57
 561.293346701 147.078939398 561.293346701 147.078939398 561.293346701 122.217050252 c 0,58,59
 561.293346701 85.6286467155 561.293346701 85.6286467155 539 53.5 c 0,60,61
 502 0 502 0 428 0 c 0,62,63
 392 0 392 0 365.5 15 c 128,-1,64
 339 30 339 30 319 46 c 128,-1,65
 299 62 299 62 285 74 c 128,-1,66
 271 86 271 86 256 76.5 c 128,-1,67
 241 67 241 67 215.5 50.5 c 128,-1,68
 190 34 190 34 165.5 20.5 c 0,69,70
 126.623053886 -0.921990716066 126.623053886 -0.921990716066 105.349620877 -0.921990716066 c 0,71,72
 95.1524883951 -0.921990716066 95.1524883951 -0.921990716066 89 4 c 0,73,74
 33.7453754081 51.633297062 33.7453754081 51.633297062 23 129 c 0,75,76
 20.579691171 146.426223569 20.579691171 146.426223569 20.579691171 163.440418965 c 0,77,78
 20.579691171 263.028297053 20.579691171 263.028297053 103.5 348.5 c 0,79,80
 136 382 136 382 179 404 c 0,81,82
 239.360652384 437.860853776 239.360652384 437.860853776 331.613197531 437.860853776 c 0,83,84
 341.136663447 437.860853776 341.136663447 437.860853776 351 437.5 c 0,85,86
 392 436 392 436 424.5 430.5 c 128,-1,87
 457 425 457 425 473 424 c 1,8,9
495 113 m 256,88,89
 504 120 504 120 502.5 138 c 128,-1,90
 501 156 501 156 490.5 171.5 c 0,91,92
 470.313587239 201.298990267 470.313587239 201.298990267 442.882833819 201.298990267 c 0,93,94
 432.463974045 201.298990267 432.463974045 201.298990267 421 197 c 1,95,96
 413.297702665 188.655844554 413.297702665 188.655844554 413.297702665 178.523811128 c 0,97,98
 413.297702665 160.378887424 413.297702665 160.378887424 438 136.5 c 0,99,100
 453 122 453 122 469.5 114 c 128,-1,101
 486 106 486 106 495 113 c 256,88,89
EndSplineSet
EndChar

StartChar: U0C0A
Encoding: 3082 3082 39
Width: 846
GlyphClass: 2
Flags: W
LayerCount: 2
Back
Fore
SplineSet
526 318 m 1,0,-1
 641 317 l 1,1,2
 685.856373429 314.639138241 685.856373429 314.639138241 718 283.5 c 0,3,4
 744.235298798 258.08455429 744.235298798 258.08455429 744.235298798 228.738403044 c 0,5,6
 744.235298798 194.971310846 744.235298798 194.971310846 709.5 156 c 0,7,8
 674.354462732 116.568421602 674.354462732 116.568421602 639.20107138 116.568421602 c 0,9,10
 628.100927241 116.568421602 628.100927241 116.568421602 617 120.5 c 0,11,12
 593 129 593 129 575 170 c 0,13,14
 570.54487395 179.652773109 570.54487395 179.652773109 570.54487395 190.88418332 c 0,15,16
 570.54487395 208.089747899 570.54487395 208.089747899 581 229 c 0,17,18
 588 246 588 246 599 262 c 1,19,-1
 0 256 l 1,20,-1
 0 317 l 1,21,22
 197 318 197 318 286.5 318 c 0,23,24
 406.25 318 406.25 318 526 318 c 1,0,-1
700 189 m 0,25,26
 702.652702754 193.168532899 702.652702754 193.168532899 702.652702754 198.200502929 c 0,27,28
 702.652702754 215.024372541 702.652702754 215.024372541 673 241.5 c 0,29,30
 659 254 659 254 646 259.5 c 128,-1,31
 633 265 633 265 632 258 c 0,32,33
 627.090909091 241.636363636 627.090909091 241.636363636 627.090909091 228.694214876 c 0,34,35
 627.090909091 217.909090909 627.090909091 217.909090909 630.5 209.5 c 0,36,37
 638 191 638 191 652 183 c 128,-1,38
 666 175 666 175 680.5 176.5 c 128,-1,39
 695 178 695 178 700 189 c 0,25,26
665 429 m 0,40,41
 677 421 677 421 677 389.625 c 128,-1,42
 677 358.25 677 358.25 654 295 c 1,43,44
 649 293 649 293 642.5 293 c 0,45,46
 626.75 293 626.75 293 611 307 c 1,47,48
 616 317 616 317 623.5 330 c 128,-1,49
 631 343 631 343 635.5 355 c 128,-1,50
 640 367 640 367 640 376.5 c 128,-1,51
 640 386 640 386 632 389.5 c 0,52,53
 628.449736936 391.05324009 628.449736936 391.05324009 624.924633435 391.05324009 c 0,54,55
 608.178418503 391.05324009 608.178418503 391.05324009 592 356 c 1,56,57
 578.5 357.5 578.5 357.5 562.75 366.25 c 128,-1,58
 547 375 547 375 540 383 c 1,59,60
 550.687022901 408.648854962 550.687022901 408.648854962 594.5 425.5 c 0,61,62
 619.489763969 435.11144768 619.489763969 435.11144768 638.495191397 435.11144768 c 0,63,64
 653.650168593 435.11144768 653.650168593 435.11144768 665 429 c 0,40,41
250 450 m 1,65,-1
 229 549 l 1,66,-1
 303 551 l 1,67,-1
 282 451 l 1,68,-1
 250 450 l 1,65,-1
358 456 m 1,69,-1
 338 551 l 1,70,-1
 412 553 l 1,71,-1
 390 457 l 1,72,-1
 358 456 l 1,69,-1
473 424 m 1,73,74
 447.8 369.4 447.8 369.4 442 352 c 1,75,76
 430 354 430 354 404.5 359 c 128,-1,77
 379 364 379 364 347 365.5 c 0,78,79
 338.332690714 365.906280123 338.332690714 365.906280123 329.922163552 365.906280123 c 0,80,81
 265.406312254 365.906280123 265.406312254 365.906280123 216 342 c 0,82,83
 143.04 300.96 143.04 300.96 113.5 225 c 0,84,85
 100.489272318 191.543843105 100.489272318 191.543843105 100.489272318 164.304095997 c 0,86,87
 100.489272318 143.607768608 100.489272318 143.607768608 108 126.5 c 0,88,89
 117 106 117 106 138 96 c 0,90,91
 141.111111111 95.1111111111 141.111111111 95.1111111111 144.790123457 95.1111111111 c 0,92,93
 157.666666667 95.1111111111 157.666666667 95.1111111111 177.5 106 c 0,94,95
 232.64 136.272941176 232.64 136.272941176 294 185 c 1,96,97
 320.960110041 129.154057772 320.960110041 129.154057772 366.5 92.5 c 0,98,99
 409.363636364 58 409.363636364 58 442 58 c 1,100,101
 442 -19 442 -19 489 75 c 1,102,103
 475.741582862 69.4756595257 475.741582862 69.4756595257 460.747865492 69.4756595257 c 0,104,105
 431.847475261 69.4756595257 431.847475261 69.4756595257 396.5 90 c 0,106,107
 381 99 381 99 372 113 c 0,108,109
 354 137 354 137 354 159 c 128,-1,110
 354 181 354 181 364 199 c 0,111,112
 385.260869565 237.269565217 385.260869565 237.269565217 418 246 c 0,113,114
 425 247 425 247 441.5 249.5 c 0,115,116
 447.392857143 250.392857143 447.392857143 250.392857143 453.668367347 250.392857143 c 0,117,118
 464.964285714 250.392857143 464.964285714 250.392857143 477.5 247.5 c 0,119,120
 526.845070423 236.112676056 526.845070423 236.112676056 551 174 c 0,121,122
 561.293346701 147.078939398 561.293346701 147.078939398 561.293346701 122.217050252 c 0,123,124
 561.293346701 85.6286467155 561.293346701 85.6286467155 539 53.5 c 0,125,126
 502 0 502 0 428 0 c 0,127,128
 392 0 392 0 365.5 15 c 128,-1,129
 339 30 339 30 319 46 c 128,-1,130
 299 62 299 62 285 74 c 128,-1,131
 271 86 271 86 256 76.5 c 128,-1,132
 241 67 241 67 215.5 50.5 c 128,-1,133
 190 34 190 34 165.5 20.5 c 0,134,135
 126.623053886 -0.921990716066 126.623053886 -0.921990716066 105.349620877 -0.921990716066 c 0,136,137
 95.1524883951 -0.921990716066 95.1524883951 -0.921990716066 89 4 c 0,138,139
 33.7453754081 51.633297062 33.7453754081 51.633297062 23 129 c 0,140,141
 20.579691171 146.426223569 20.579691171 146.426223569 20.579691171 163.440418965 c 0,142,143
 20.579691171 263.028297053 20.579691171 263.028297053 103.5 348.5 c 0,144,145
 136 382 136 382 179 404 c 0,146,147
 239.360652384 437.860853776 239.360652384 437.860853776 331.613197531 437.860853776 c 0,148,149
 341.136663447 437.860853776 341.136663447 437.860853776 351 437.5 c 0,150,151
 392 436 392 436 424.5 430.5 c 128,-1,152
 457 425 457 425 473 424 c 1,73,74
495 113 m 256,153,154
 504 120 504 120 502.5 138 c 128,-1,155
 501 156 501 156 490.5 171.5 c 0,156,157
 470.313587239 201.298990267 470.313587239 201.298990267 442.882833819 201.298990267 c 0,158,159
 432.463974045 201.298990267 432.463974045 201.298990267 421 197 c 1,160,161
 413.297702665 188.655844554 413.297702665 188.655844554 413.297702665 178.523811128 c 0,162,163
 413.297702665 160.378887424 413.297702665 160.378887424 438 136.5 c 0,164,165
 453 122 453 122 469.5 114 c 128,-1,166
 486 106 486 106 495 113 c 256,153,154
EndSplineSet
EndChar

StartChar: U0C0B
Encoding: 3083 3083 40
Width: 1125
GlyphClass: 2
Flags: W
LayerCount: 2
Back
Fore
SplineSet
444 438 m 1,0,1
 510.458598726 384.114649682 510.458598726 384.114649682 551 310.5 c 0,2,3
 568.19047619 279.285714286 568.19047619 279.285714286 568.19047619 252.982993197 c 0,4,5
 568.19047619 250.214285714 568.19047619 250.214285714 568 247.5 c 0,6,7
 566 219 566 219 555 182.5 c 128,-1,8
 544 146 544 146 522.5 110 c 0,9,10
 470.370504904 22.7134035598 470.370504904 22.7134035598 390 0 c 1,11,12
 370 7 370 7 351 21 c 128,-1,13
 332 35 332 35 314.5 47.5 c 128,-1,14
 297 60 297 60 280.5 69.5 c 128,-1,15
 264 79 264 79 250.5 77 c 128,-1,16
 237 75 237 75 206 62.5 c 128,-1,17
 175 50 175 50 139.5 36.5 c 0,18,19
 43.5185185185 0 43.5185185185 0 24 0 c 0,20,21
 15 3 15 3 6.5 23.5 c 0,22,23
 0.479166666667 38.0208333333 0.479166666667 38.0208333333 0.479166666667 57.8098958333 c 0,24,25
 0.479166666667 65.9583333333 0.479166666667 65.9583333333 1.5 75 c 0,26,27
 10.4702439024 154.450731707 10.4702439024 154.450731707 104 222 c 1,28,29
 97.8673803261 220.884978241 97.8673803261 220.884978241 91.6586098609 220.884978241 c 0,30,31
 56.0796226292 220.884978241 56.0796226292 220.884978241 18 257.5 c 0,32,33
 -2.34124197019 277.05888651 -2.34124197019 277.05888651 -2.34124197019 303.721245251 c 0,34,35
 -2.34124197019 314.527216273 -2.34124197019 314.527216273 1 326.5 c 0,36,37
 7 348 7 348 30 374 c 0,38,39
 66 416 66 416 108.5 429 c 0,40,41
 136.833333333 437.666666667 136.833333333 437.666666667 162.722222222 437.666666667 c 0,42,43
 175.666666667 437.666666667 175.666666667 437.666666667 188 435.5 c 0,44,45
 225 429 225 429 251.5 408 c 128,-1,46
 278 387 278 387 282 360 c 0,47,48
 282.188889559 356.59998794 282.188889559 356.59998794 282.188889559 353.247094702 c 0,49,50
 282.188889559 278.375757941 282.188889559 278.375757941 188 227 c 0,51,52
 137.054487179 199.211538462 137.054487179 199.211538462 115.5 163 c 0,53,54
 101.010606501 138.657818922 101.010606501 138.657818922 101.010606501 123.482536763 c 0,55,56
 101.010606501 112.213972721 101.010606501 112.213972721 109 106 c 0,57,58
 112.818181818 103.03030303 112.818181818 103.03030303 119.786042241 103.03030303 c 0,59,60
 129.242424242 103.03030303 129.242424242 103.03030303 144.5 108.5 c 0,61,62
 171 118 171 118 197.5 136.5 c 128,-1,63
 224 155 224 155 241 170 c 128,-1,64
 258 185 258 185 266.5 194.5 c 128,-1,65
 275 204 275 204 278 199.5 c 128,-1,66
 281 195 281 195 291.5 174 c 128,-1,67
 302 153 302 153 318.5 131 c 0,68,69
 355.504183267 81.6610889774 355.504183267 81.6610889774 381.672480199 81.6610889774 c 0,70,71
 385.983266932 81.6610889774 385.983266932 81.6610889774 390 83 c 0,72,73
 396 84 396 84 412 96.5 c 128,-1,74
 428 109 428 109 443 130.5 c 0,75,76
 471.56889681 171.448752094 471.56889681 171.448752094 471.56889681 215.511142225 c 0,77,78
 471.56889681 261.089765105 471.56889681 261.089765105 441 310 c 0,79,80
 394.461538462 384.461538462 394.461538462 384.461538462 332 438 c 1,81,-1
 444 438 l 1,0,1
88 381 m 0,82,83
 79.2888888889 366.688888889 79.2888888889 366.688888889 79.2888888889 353.152098765 c 0,84,85
 79.2888888889 344.933333333 79.2888888889 344.933333333 82.5 337 c 0,86,87
 91 316 91 316 109.5 302.5 c 128,-1,88
 128 289 128 289 149 285 c 0,89,90
 155 283.857142857 155 283.857142857 160.183673469 283.857142857 c 0,91,92
 173.142857143 283.857142857 173.142857143 283.857142857 181 291 c 1,93,94
 187.76 307.64 187.76 307.64 187.76 321.1704 c 0,95,96
 187.76 333.66 187.76 333.66 182 343.5 c 0,97,98
 170 364 170 364 150.5 374 c 128,-1,99
 131 384 131 384 111.5 385.5 c 128,-1,100
 92 387 92 387 88 381 c 0,82,83
497 125 m 1,101,102
 549.727272727 111.818181818 549.727272727 111.818181818 607 80 c 1,103,104
 630 89 630 89 653 119.5 c 128,-1,105
 676 150 676 150 681 197 c 0,106,107
 681.892857143 205.392857143 681.892857143 205.392857143 681.892857143 214.264030612 c 0,108,109
 681.892857143 255.071428571 681.892857143 255.071428571 663 306 c 0,110,111
 640 368 640 368 570 438 c 1,112,-1
 714 438 l 1,113,114
 774 338 774 338 774 225 c 0,115,116
 774 148.666666667 774 148.666666667 731.5 75 c 0,117,118
 709 36 709 36 670 -1 c 1,119,120
 625.873544955 29.3369378434 625.873544955 29.3369378434 549.954706773 29.3369378434 c 0,121,122
 521.249856799 29.3369378434 521.249856799 29.3369378434 488 25 c 0,123,124
 446.928571429 19.6428571429 446.928571429 19.6428571429 409 7 c 1,125,126
 452.2 61 452.2 61 497 125 c 1,101,102
927 -1 m 1,127,128
 882.873544955 29.3369378434 882.873544955 29.3369378434 806.954706773 29.3369378434 c 0,129,130
 778.249856799 29.3369378434 778.249856799 29.3369378434 745 25 c 0,131,132
 703.928571429 19.6428571429 703.928571429 19.6428571429 666 7 c 1,133,134
 686.8 39 686.8 39 709.9 72 c 128,-1,135
 733 105 733 105 745 126 c 1,136,137
 776.225806452 122.096774194 776.225806452 122.096774194 814.612903226 104.548387097 c 128,-1,138
 853 87 853 87 864 80 c 1,139,140
 887 89 887 89 910 119.5 c 128,-1,141
 933 150 933 150 938 197 c 0,142,143
 938.892857143 205.392857143 938.892857143 205.392857143 938.892857143 214.264030612 c 0,144,145
 938.892857143 255.071428571 938.892857143 255.071428571 920 306 c 0,146,147
 897 368 897 368 827 438 c 1,148,-1
 971 438 l 1,149,150
 1031 338 1031 338 1031 225 c 0,151,152
 1031 148.666666667 1031 148.666666667 988.5 75 c 0,153,154
 966 36 966 36 927 -1 c 1,127,128
EndSplineSet
EndChar

StartChar: U0C0C
Encoding: 3084 3084 41
Width: 768
GlyphClass: 2
Flags: W
LayerCount: 2
Back
Fore
SplineSet
586 272 m 1,0,1
 654.845070423 266.704225352 654.845070423 266.704225352 658 232 c 1,2,3
 635.235294118 84.0294117647 635.235294118 84.0294117647 527 13 c 0,4,5
 479.14953271 -18.4018691589 479.14953271 -18.4018691589 441.074766355 -25.2009345794 c 0,6,7
 419.134653465 -29.1188118812 419.134653465 -29.1188118812 398.381541025 -29.1188118812 c 0,8,9
 383.11980198 -29.1188118812 383.11980198 -29.1188118812 368.5 -27 c 0,10,11
 334 -22 334 -22 310 -12.5 c 128,-1,12
 286 -3 286 -3 259 12 c 128,-1,13
 232 27 232 27 208.5 46 c 128,-1,14
 185 65 185 65 172.5 86.5 c 0,15,16
 161.322812236 105.724762954 161.322812236 105.724762954 161.322812236 123.220246524 c 0,17,18
 161.322812236 150.751162278 161.322812236 150.751162278 189 174 c 0,19,20
 218 200 218 200 252.5 209.5 c 128,-1,21
 287 219 287 219 321.5 225 c 128,-1,22
 356 231 356 231 388.5 241.5 c 128,-1,23
 421 252 421 252 445 279 c 0,24,25
 453.592771581 289.502276377 453.592771581 289.502276377 453.592771581 304.436658531 c 0,26,27
 453.592771581 317.518071047 453.592771581 317.518071047 447 334 c 0,28,29
 433.903225806 366.741935484 433.903225806 366.741935484 413 383 c 1,30,31
 382.012652304 397.921419268 382.012652304 397.921419268 370.428571429 399 c 1,32,33
 325.25 399 325.25 399 316 362 c 0,34,35
 313 350 313 350 309.5 338 c 128,-1,36
 306 326 306 326 304 311 c 1,37,-1
 236 311 l 1,38,39
 240 334 240 334 240 351.5 c 0,40,41
 240 395.272727273 240 395.272727273 225.5 406.636363636 c 128,-1,42
 211 418 211 418 187 421.5 c 0,43,44
 174.076923077 423.384615385 174.076923077 423.384615385 161.733727811 423.384615385 c 0,45,46
 151.153846154 423.384615385 151.153846154 423.384615385 141 422 c 0,47,48
 119 419 119 419 105 407 c 0,49,50
 96.4782608696 399.695652174 96.4782608696 399.695652174 96.4782608696 389.612476371 c 0,51,52
 96.4782608696 383.130434783 96.4782608696 383.130434783 100 375.5 c 0,53,54
 122.548387097 326.64516129 122.548387097 326.64516129 151 314 c 1,55,-1
 81 259 l 1,56,57
 21.8388278388 314.344322344 21.8388278388 314.344322344 3.5 365.5 c 0,58,59
 -1.25 378.75 -1.25 378.75 -1.25 389.75 c 128,-1,60
 -1.25 400.75 -1.25 400.75 3.5 409.5 c 0,61,62
 13 427 13 427 32 442.5 c 128,-1,63
 51 458 51 458 75.5 471.5 c 128,-1,64
 100 485 100 485 127.5 496.5 c 128,-1,65
 155 508 155 508 178 514 c 0,66,67
 203.709424084 520.706806283 203.709424084 520.706806283 218.959424084 520.706806283 c 128,-1,68
 234.209424084 520.706806283 234.209424084 520.706806283 239 514 c 0,69,70
 248 497.5 248 497.5 255.5 469.75 c 128,-1,71
 263 442 263 442 268 426 c 1,72,73
 297.405405405 467.167567568 297.405405405 467.167567568 336 485.5 c 0,74,75
 345.743589744 490.128205128 345.743589744 490.128205128 359.64069691 490.128205128 c 0,76,77
 374.269230769 490.128205128 374.269230769 490.128205128 393.5 485 c 0,78,79
 431 475 431 475 464 458.5 c 128,-1,80
 497 442 497 442 515.5 421.5 c 0,81,82
 547 386.594594595 547 386.594594595 547 317 c 0,83,84
 547 251.671641791 547 251.671641791 473.5 204.5 c 0,85,86
 406.98678996 161.812417437 406.98678996 161.812417437 314 151 c 1,87,88
 273.913536575 135.313992573 273.913536575 135.313992573 273.913536575 120.385047722 c 0,89,90
 273.913536575 111.509794422 273.913536575 111.509794422 295.058823529 86.0294117647 c 0,91,92
 315 62 315 62 339.5 56 c 0,93,94
 359.1 51.2 359.1 51.2 379.34 51.2 c 0,95,96
 384.4 51.2 384.4 51.2 389.5 51.5 c 0,97,98
 443.873015873 54.6984126984 443.873015873 54.6984126984 478 82 c 0,99,100
 538.747076023 134.538011696 538.747076023 134.538011696 568 209 c 0,101,102
 581 242 581 242 586 272 c 1,0,1
EndSplineSet
EndChar

StartChar: U0C0E
Encoding: 3086 3086 42
Width: 566
GlyphClass: 2
Flags: W
LayerCount: 2
Back
Fore
SplineSet
368 0 m 1,0,1
 300.960121613 30.167945274 300.960121613 30.167945274 256.507664831 30.167945274 c 0,2,3
 253.190960207 30.167945274 253.190960207 30.167945274 250 30 c 0,4,5
 232.090909091 30 232.090909091 30 201.545454545 19.5 c 0,6,7
 144.818181818 1.7763568394e-15 144.818181818 1.7763568394e-15 136.409090909 8.881784197e-16 c 128,-1,8
 128 0 128 0 111.5 3.5 c 128,-1,9
 95 7 95 7 76.5 14.5 c 128,-1,10
 58 22 58 22 40.5 34 c 128,-1,11
 23 46 23 46 12 62.5 c 0,12,13
 0.0481331533963 80.4278002699 0.0481331533963 80.4278002699 0.0481331533963 100.474261147 c 0,14,15
 0.0481331533963 122.488472785 0.0481331533963 122.488472785 14.4615384615 147.057692308 c 0,16,17
 42 194 42 194 78 212 c 128,-1,18
 114 230 114 230 147.5 232 c 0,19,20
 153.590909091 232.363636364 153.590909091 232.363636364 159.433884298 232.363636364 c 0,21,22
 185.727272727 232.363636364 185.727272727 232.363636364 207 225 c 0,23,24
 233 216 233 216 240 204 c 0,25,26
 255.529411765 170.352941176 255.529411765 170.352941176 266 118 c 1,27,28
 276.482758621 91.7931034483 276.482758621 91.7931034483 300.5 81.5 c 0,29,30
 311 77 311 77 325.5 84 c 128,-1,31
 340 91 340 91 349 119 c 128,-1,32
 358 147 358 147 360 184 c 0,33,34
 360.646503958 195.960323219 360.646503958 195.960323219 360.646503958 207.201645335 c 0,35,36
 360.646503958 282.030244063 360.646503958 282.030244063 332 325 c 1,37,38
 282.28852459 385.17704918 282.28852459 385.17704918 194 433 c 1,39,-1
 344 439 l 1,40,41
 410.898734177 377.835443038 410.898734177 377.835443038 449.5 313.5 c 0,42,43
 469 281 469 281 469 253 c 256,44,45
 469 190.777777778 469 190.777777778 368 0 c 1,0,1
164 62 m 1,46,47
 173 73 173 73 177.5 92 c 0,48,49
 179.882352941 102.058823529 179.882352941 102.058823529 179.882352941 112.257785467 c 0,50,51
 179.882352941 121.323529412 179.882352941 121.323529412 178 130.5 c 0,52,53
 174 150 174 150 158.5 166 c 128,-1,54
 143 182 143 182 112 187 c 0,55,56
 102 188 102 188 95.5 171.5 c 0,57,58
 91.275 160.775 91.275 160.775 91.275 147.515 c 0,59,60
 91.275 140.375 91.275 140.375 92.5 132.5 c 0,61,62
 96 110 96 110 112 89.5 c 128,-1,63
 128 69 128 69 164 62 c 1,46,47
EndSplineSet
EndChar

StartChar: U0C0F
Encoding: 3087 3087 43
Width: 625
GlyphClass: 2
Flags: W
LayerCount: 2
Back
Fore
SplineSet
366 0 m 1,0,1
 298.960121613 30.167945274 298.960121613 30.167945274 254.507664831 30.167945274 c 0,2,3
 251.190960207 30.167945274 251.190960207 30.167945274 248 30 c 0,4,5
 231.090909091 30 231.090909091 30 200.545454545 19.5 c 0,6,7
 143.818181818 1.7763568394e-15 143.818181818 1.7763568394e-15 136 0 c 128,-1,8
 128 0 128 0 111 3.5 c 128,-1,9
 94 7 94 7 75.5 14.5 c 128,-1,10
 57 22 57 22 38.5 34 c 128,-1,11
 20 46 20 46 10 62.5 c 0,12,13
 -0.855108763366 80.4109294596 -0.855108763366 80.4109294596 -0.855108763366 99.9702826966 c 0,14,15
 -0.855108763366 122.675074244 -0.855108763366 122.675074244 13.7720588235 147.601102941 c 0,16,17
 41 194 41 194 77 212 c 128,-1,18
 113 230 113 230 146.5 232 c 0,19,20
 152.590909091 232.363636364 152.590909091 232.363636364 158.417355372 232.363636364 c 0,21,22
 184.636363636 232.363636364 184.636363636 232.363636364 205.5 225 c 0,23,24
 231 216 231 216 238 204 c 0,25,26
 253.529411765 170.352941176 253.529411765 170.352941176 264 118 c 1,27,28
 276.558052434 91.0898876404 276.558052434 91.0898876404 300 81.5 c 0,29,30
 305.729717369 79.1560247126 305.729717369 79.1560247126 311.152606245 79.1560247126 c 0,31,32
 334.065010297 79.1560247126 334.065010297 79.1560247126 351.5 121 c 0,33,34
 373.860410364 174.664984874 373.860410364 174.664984874 373.860410364 235.212317608 c 0,35,36
 373.860410364 250.146797321 373.860410364 250.146797321 372.5 265.5 c 0,37,38
 369 305 369 305 350.5 330 c 0,39,40
 314.194539249 379.061433447 314.194539249 379.061433447 291.097269625 397.530716724 c 128,-1,41
 268 416 268 416 254 426 c 1,42,-1
 406 433 l 1,43,44
 436.268292683 377.804878049 436.268292683 377.804878049 451.634146341 329.402439024 c 128,-1,45
 467 281 467 281 467 253 c 256,46,47
 467 190.777777778 467 190.777777778 366 0 c 1,0,1
163 62 m 1,48,49
 179.215964754 84.2969515366 179.215964754 84.2969515366 179.215964754 111.945559296 c 0,50,51
 179.215964754 120.939624942 179.215964754 120.939624942 177.5 130.5 c 0,52,53
 174 150 174 150 159 166 c 128,-1,54
 144 182 144 182 114 187 c 0,55,56
 102 188 102 188 95 171.5 c 0,57,58
 90.1 159.95 90.1 159.95 90.1 145.46 c 0,59,60
 90.1 139.25 90.1 139.25 91 132.5 c 0,61,62
 94 110 94 110 110.5 89.5 c 128,-1,63
 127 69 127 69 163 62 c 1,48,49
61 338 m 1,64,65
 59.2284580499 350.400793651 59.2284580499 350.400793651 59.2284580499 361.622969596 c 0,66,67
 59.2284580499 383.39399093 59.2284580499 383.39399093 65.8958333333 400.729166667 c 0,68,69
 87.0087719298 455.622807018 87.0087719298 455.622807018 130 492 c 0,70,71
 169.063829787 524.553191489 169.063829787 524.553191489 278 530 c 0,72,73
 291.142857143 530.571428571 291.142857143 530.571428571 304.530612245 530.571428571 c 0,74,75
 338 530.571428571 338 530.571428571 373 527 c 1,76,-1
 373 482 l 1,77,78
 338 484 338 484 309 484 c 0,79,80
 234.142857143 484 234.142857143 484 208.071428571 474 c 128,-1,81
 182 464 182 464 175 444.5 c 0,82,83
 167.024679097 422.283034626 167.024679097 422.283034626 167.024679097 396.641516646 c 0,84,85
 167.024679097 376.388944066 167.024679097 376.388944066 172 354 c 1,86,-1
 61 338 l 1,64,65
EndSplineSet
EndChar

StartChar: U0C10
Encoding: 3088 3088 44
Width: 671
GlyphClass: 2
Flags: W
LayerCount: 2
Back
Fore
SplineSet
377 501 m 0,0,1
 476.957264957 493.73038073 476.957264957 493.73038073 526 438 c 0,2,3
 563.137614679 395.798165138 563.137614679 395.798165138 567.568807339 319.899082569 c 0,4,5
 568.093382353 310.913970588 568.093382353 310.913970588 568.093382353 301.703214208 c 0,6,7
 568.093382353 233.108823529 568.093382353 233.108823529 539 152 c 0,8,9
 515.548076923 97.2788461538 515.548076923 97.2788461538 486.774038462 58.6394230769 c 0,10,11
 443.124025558 0.0236914631438 443.124025558 0.0236914631438 422.712440586 0.0236914631438 c 0,12,13
 418.964462805 0.0236914631438 418.964462805 0.0236914631438 416 2 c 0,14,15
 373.595605953 25.8524716515 373.595605953 25.8524716515 331.15807747 25.8524716515 c 0,16,17
 317.830672692 25.8524716515 317.830672692 25.8524716515 304.5 23.5 c 0,18,19
 279 19 279 19 252.5 11.5 c 128,-1,20
 226 4 226 4 197 1 c 0,21,22
 170.991572401 -3.48421165508 170.991572401 -3.48421165508 149.024374823 -3.48421165508 c 0,23,24
 83.0197376652 -3.48421165508 83.0197376652 -3.48421165508 53.5 37 c 0,25,26
 32.1401529091 66.2935045818 32.1401529091 66.2935045818 32.1401529091 109.094806825 c 0,27,28
 32.1401529091 129.510739061 32.1401529091 129.510739061 37 153 c 0,29,30
 43 182 43 182 55.5 205 c 128,-1,31
 68 228 68 228 81 234 c 0,32,33
 135.676384455 260.730676845 135.676384455 260.730676845 172.419538614 260.730676845 c 0,34,35
 210.17954877 260.730676845 210.17954877 260.730676845 229 232.5 c 0,36,37
 240 216 240 216 249.5 197 c 128,-1,38
 259 178 259 178 271.5 158.5 c 128,-1,39
 284 139 284 139 311 121.5 c 128,-1,40
 338 104 338 104 362.5 100.5 c 0,41,42
 369.645833333 99.4791666667 369.645833333 99.4791666667 376.28125 99.4791666667 c 0,43,44
 392.395833333 99.4791666667 392.395833333 99.4791666667 405.5 105.5 c 0,45,46
 472.909537167 136.471949509 472.909537167 136.471949509 477 296 c 0,47,48
 477 360 477 360 451.5 387.5 c 0,49,50
 427.728813559 413.13559322 427.728813559 413.13559322 397.005601839 413.13559322 c 0,51,52
 394.771186441 413.13559322 394.771186441 413.13559322 392.5 413 c 0,53,54
 359 411 359 411 345.5 397.5 c 0,55,56
 318 370 318 370 318 325 c 1,57,-1
 232 325 l 1,58,59
 231 331 231 331 231 336 c 0,60,61
 230 341 230 341 230 345.5 c 128,-1,62
 230 350 230 350 228 360 c 128,-1,63
 226 370 226 370 216 386.5 c 128,-1,64
 206 403 206 403 190.5 415.5 c 0,65,66
 166.223336001 435.077954838 166.223336001 435.077954838 143.167424686 435.077954838 c 0,67,68
 131.425398386 435.077954838 131.425398386 435.077954838 120 430 c 0,69,70
 91.5577458147 417.071702643 91.5577458147 417.071702643 91.5577458147 374.617352567 c 0,71,72
 91.5577458147 365.057282087 91.5577458147 365.057282087 93 354 c 0,73,74
 97 328 97 328 110 298 c 1,75,-1
 13 298 l 1,76,77
 0.04 321.76 0.04 321.76 0.04 346.816 c 0,78,79
 0.04 356.56 0.04 356.56 2 366.5 c 0,80,81
 9 402 9 402 30 431.5 c 128,-1,82
 51 461 51 461 81 480.5 c 128,-1,83
 111 500 111 500 141 501 c 0,84,85
 143.242765732 501.074758858 143.242765732 501.074758858 145.478435286 501.074758858 c 0,86,87
 193.903881469 501.074758858 193.903881469 501.074758858 239 466 c 0,88,89
 258 450 258 450 272 429 c 1,90,91
 284.633802817 462.690140845 284.633802817 462.690140845 342.5 492.5 c 0,92,93
 359 501 359 501 377 501 c 0,0,1
206 68 m 1,94,95
 212 95 212 95 212 115.5 c 128,-1,96
 212 136 212 136 206.5 151 c 0,97,98
 197.183673469 176.408163265 197.183673469 176.408163265 171.591836735 189.204081633 c 0,99,100
 150.860465116 199.569767442 150.860465116 199.569767442 123.955216033 199.569767442 c 0,101,102
 117.647286822 199.569767442 117.647286822 199.569767442 111 199 c 1,103,104
 98.7735849057 177.943396226 98.7735849057 177.943396226 98.7735849057 157.809540762 c 0,105,106
 98.7735849057 148.301886792 98.7735849057 148.301886792 101.5 139 c 0,107,108
 110 110 110 110 128.5 89.5 c 128,-1,109
 147 69 147 69 170.5 61.5 c 0,110,111
 178.697674419 58.8837209302 178.697674419 58.8837209302 185.495943753 58.8837209302 c 0,112,113
 198.186046512 58.8837209302 198.186046512 58.8837209302 206 68 c 1,94,95
EndSplineSet
EndChar

StartChar: U0C12
Encoding: 3090 3090 45
Width: 652
GlyphClass: 2
Flags: W
LayerCount: 2
Back
Fore
SplineSet
549 255 m 1,0,1
 550.561554861 235.090175522 550.561554861 235.090175522 550.561554861 216.430979662 c 0,2,3
 550.561554861 141.67975606 550.561554861 141.67975606 525.5 87 c 0,4,5
 509 51 509 51 475 36.5 c 128,-1,6
 441 22 441 22 407 11 c 0,7,8
 374.47826087 0.478260869565 374.47826087 0.478260869565 339.211720227 0.478260869565 c 0,9,10
 337.608695652 0.478260869565 337.608695652 0.478260869565 336 0.5 c 0,11,12
 253.139773895 1.6197327852 253.139773895 1.6197327852 181 72 c 1,13,14
 150.565217391 72 150.565217391 72 44 7.5 c 0,15,16
 25 -4 25 -4 21 -4.5 c 128,-1,17
 17 -5 17 -5 11.5 13.5 c 128,-1,18
 6 32 6 32 3 59 c 0,19,20
 0.329637967447 83.033258293 0.329637967447 83.033258293 0.329637967447 102.938503142 c 0,21,22
 0.329637967447 141.884873425 0.329637967447 141.884873425 10.5524193548 165.028225806 c 0,23,24
 26 200 26 200 50.5 218.5 c 0,25,26
 95.2563510393 252.295612009 95.2563510393 252.295612009 162 268 c 1,27,28
 93.8666666667 268 93.8666666667 268 46.5 292.5 c 0,29,30
 2.93338293492 315.034457103 2.93338293492 315.034457103 2.93338293492 363.274541466 c 0,31,32
 2.93338293492 370.822602501 2.93338293492 370.822602501 4 379 c 0,33,34
 14.3790278536 459.437465866 14.3790278536 459.437465866 128.5 487.5 c 0,35,36
 175.057277766 498.948510926 175.057277766 498.948510926 206.214714288 498.948510926 c 0,37,38
 213.527763008 498.948510926 213.527763008 498.948510926 219.992433062 498.317811409 c 0,39,40
 254 495 254 495 260 490 c 0,41,42
 283 476 283 476 289 452 c 0,43,44
 292.6 437.6 292.6 437.6 292.6 414.2 c 0,45,46
 292.6 398.6 292.6 398.6 291 379 c 0,47,48
 287 330 287 330 265 301 c 128,-1,49
 243 272 243 272 214.5 254.5 c 128,-1,50
 186 237 186 237 157.5 224.5 c 128,-1,51
 129 212 129 212 113 196 c 0,52,53
 92.4303677856 178.858639821 92.4303677856 178.858639821 92.4303677856 153.034424276 c 0,54,55
 92.4303677856 132.263747697 92.4303677856 132.263747697 110 124 c 1,56,57
 123.12 124 123.12 124 156.56 146 c 0,58,59
 219.178571429 187.196428571 219.178571429 187.196428571 227.589285714 189.098214286 c 128,-1,60
 236 191 236 191 244 185 c 128,-1,61
 252 179 252 179 261.5 168.5 c 128,-1,62
 271 158 271 158 282 144.5 c 128,-1,63
 293 131 293 131 302.5 120.5 c 128,-1,64
 312 110 312 110 326.5 96 c 128,-1,65
 341 82 341 82 358.5 72.5 c 0,66,67
 379.859849624 60.9046530612 379.859849624 60.9046530612 399.684365318 60.9046530612 c 0,68,69
 419.076747253 60.9046530612 419.076747253 60.9046530612 437 72 c 0,70,71
 449 79 449 79 455 103.5 c 0,72,73
 459.235294118 120.794117647 459.235294118 120.794117647 459.235294118 140.330449827 c 0,74,75
 459.235294118 148.470588235 459.235294118 148.470588235 458.5 157 c 0,76,77
 456 186 456 186 442.5 214 c 128,-1,78
 429 242 429 242 401 255 c 1,79,-1
 549 255 l 1,0,1
198 307 m 1,80,81
 206 329 206 329 206 350.5 c 128,-1,82
 206 372 206 372 201 390 c 0,83,84
 192.818181818 419.454545455 192.818181818 419.454545455 154 425 c 0,85,86
 142.934210526 426.844298246 142.934210526 426.844298246 134.133348723 426.844298246 c 0,87,88
 108.337719298 426.844298246 108.337719298 426.844298246 102 411 c 0,89,90
 97.12 400.02 97.12 400.02 97.12 384.77 c 128,-1,91
 97.12 369.52 97.12 369.52 102 350 c 0,92,93
 108.496 325.64 108.496 325.64 154 313 c 0,94,95
 173 308 173 308 198 307 c 1,80,81
EndSplineSet
EndChar

StartChar: U0C13
Encoding: 3091 3091 46
Width: 652
GlyphClass: 2
Flags: W
LayerCount: 2
Back
Fore
SplineSet
22 -3 m 0,0,1
 21.4948276155 -3.1010344769 21.4948276155 -3.1010344769 21.0002584532 -3.1010344769 c 0,2,3
 10.6797637285 -3.1010344769 10.6797637285 -3.1010344769 4.97653429603 40.8953068592 c 0,4,5
 0.309382844393 76.899046629 0.309382844393 76.899046629 0.309382844393 105.323221679 c 0,6,7
 0.309382844393 148.342518827 0.309382844393 148.342518827 11 174 c 0,8,9
 42.7493857494 239.941031941 42.7493857494 239.941031941 162 268 c 1,10,11
 92.7333333333 268 92.7333333333 268 47 292.5 c 0,12,13
 3.91444817782 315.581545619 3.91444817782 315.581545619 3.91444817782 363.993067481 c 0,14,15
 3.91444817782 371.67743603 3.91444817782 371.67743603 5 380 c 0,16,17
 15.444565811 460.945385035 15.444565811 460.945385035 127.5 488.5 c 0,18,19
 173.762920427 499.876127974 173.762920427 499.876127974 205.029385361 499.876127974 c 0,20,21
 212.300656276 499.876127974 212.300656276 499.876127974 218.760869565 499.260869565 c 0,22,23
 253 496 253 496 260 492 c 0,24,25
 283 477 283 477 287.5 453 c 0,26,27
 290.2 438.6 290.2 438.6 290.2 415.2 c 0,28,29
 290.2 399.6 290.2 399.6 289 380 c 0,30,31
 286 331 286 331 264 302 c 128,-1,32
 242 273 242 273 213.5 255.5 c 128,-1,33
 185 238 185 238 157 225.5 c 128,-1,34
 129 213 129 213 115 199.5 c 128,-1,35
 101 186 101 186 96.5 174 c 128,-1,36
 92 162 92 162 92.5 151 c 0,37,38
 98.0614370994 130.61521553 98.0614370994 130.61521553 110 125 c 1,39,40
 121.916666667 125 121.916666667 125 155.958333333 146.5 c 0,41,42
 219.058823529 186.352941176 219.058823529 186.352941176 227.529411765 189.676470588 c 128,-1,43
 236 193 236 193 244 186.5 c 128,-1,44
 252 180 252 180 261.5 169.5 c 128,-1,45
 271 159 271 159 282 145.5 c 128,-1,46
 293 132 293 132 302 121 c 128,-1,47
 311 110 311 110 325 96.5 c 128,-1,48
 339 83 339 83 356.5 73 c 0,49,50
 377.839315551 60.8061053996 377.839315551 60.8061053996 398.377992425 60.8061053996 c 0,51,52
 418.056486061 60.8061053996 418.056486061 60.8061053996 437 72 c 0,53,54
 449 79 449 79 454.5 103.5 c 0,55,56
 458.28125 120.34375 458.28125 120.34375 458.28125 139.314453125 c 0,57,58
 458.28125 147.9375 458.28125 147.9375 457.5 157 c 0,59,60
 455 186 455 186 441.5 214 c 128,-1,61
 428 242 428 242 401 256 c 1,62,-1
 549 256 l 1,63,64
 550.561554861 236.090175522 550.561554861 236.090175522 550.561554861 217.430979662 c 0,65,66
 550.561554861 142.67975606 550.561554861 142.67975606 525.5 88 c 0,67,68
 509 52 509 52 475 37.5 c 0,69,70
 389.413793103 1 389.413793103 1 336 1 c 1,71,72
 336 -74.7142857143 336 -74.7142857143 178 72 c 1,73,74
 148.913043478 72 148.913043478 72 44 8.5 c 0,75,76
 25 -3 25 -3 22 -3 c 0,0,1
116 426 m 0,77,78
 108 422 108 422 100.607296137 405.991416309 c 0,79,80
 96.6428090877 397.406489345 96.6428090877 397.406489345 96.6428090877 385.663056043 c 0,81,82
 96.6428090877 375.508139407 96.6428090877 375.508139407 99.6072961373 362.991416309 c 0,83,84
 106 336 106 336 121 327 c 0,85,86
 149.428571429 309.942857143 149.428571429 309.942857143 198 308 c 1,87,88
 206.801989522 340.273961579 206.801989522 340.273961579 206.801989522 362.428031395 c 0,89,90
 206.801989522 374.323870835 206.801989522 374.323870835 204.264150943 383.301886792 c 0,91,92
 197 409 197 409 182.5 416.5 c 0,93,94
 161.206745933 427.513752104 161.206745933 427.513752104 135.58899371 427.513752104 c 0,95,96
 126.09168069 427.513752104 126.09168069 427.513752104 116 426 c 0,77,78
230 488 m 1,97,98
 194 485 194 485 177.5 485 c 2,99,-1
 142 485 l 1,100,101
 126.6875 500.3125 126.6875 500.3125 124.34375 527.65625 c 0,102,103
 123.595744681 536.382978723 123.595744681 536.382978723 123.595744681 544.259846084 c 0,104,105
 123.595744681 561.063829787 123.595744681 561.063829787 127 574 c 0,106,107
 132 593 132 593 146 609.5 c 0,108,109
 176.445166531 645.381803412 176.445166531 645.381803412 247 649 c 0,110,111
 251.065886405 649.145210229 251.065886405 649.145210229 255.016755266 649.145210229 c 0,112,113
 343.080624188 649.145210229 343.080624188 649.145210229 374 577 c 0,114,115
 385.266666667 547.533333333 385.266666667 547.533333333 385.266666667 509.804444444 c 0,116,117
 385.266666667 504 385.266666667 504 385 498 c 1,118,-1
 309 495 l 1,119,120
 313.804167238 506.530001371 313.804167238 506.530001371 313.804167238 520.804206289 c 0,121,122
 313.804167238 541.709165182 313.804167238 541.709165182 303.5 568.5 c 0,123,124
 296 588 296 588 281 601.5 c 0,125,126
 269.75 611.625 269.75 611.625 250.90625 611.625 c 0,127,128
 244.625 611.625 244.625 611.625 237.5 610.5 c 0,129,130
 209 606 209 606 203 585.5 c 0,131,132
 200.321930864 576.349930452 200.321930864 576.349930452 200.321930864 566.224414243 c 0,133,134
 200.321930864 532.517103704 200.321930864 532.517103704 230 488 c 1,97,98
EndSplineSet
EndChar

StartChar: U0C14
Encoding: 3092 3092 47
Width: 730
GlyphClass: 2
Flags: W
LayerCount: 2
Back
Fore
SplineSet
93 150 m 128,-1,1
 93 124 93 124 110 124 c 0,2,3
 124.708333333 124 124.708333333 124 157.854166667 145.5 c 0,4,5
 219.542857143 185.514285714 219.542857143 185.514285714 228.271428571 188.257142857 c 128,-1,6
 237 191 237 191 245.5 185 c 128,-1,7
 254 179 254 179 263.5 168.5 c 0,8,9
 279.951219512 150.317073171 279.951219512 150.317073171 302 120 c 1,10,11
 356.218318466 60.3598496871 356.218318466 60.3598496871 400.927675663 60.3598496871 c 0,12,13
 419.812064879 60.3598496871 419.812064879 60.3598496871 437 71 c 0,14,15
 450 78 450 78 456.5 102.5 c 0,16,17
 461.194444444 120.194444444 461.194444444 120.194444444 461.194444444 140.236111111 c 0,18,19
 461.194444444 147.944444444 461.194444444 147.944444444 460.5 156 c 0,20,21
 458 185 458 185 444.5 213 c 128,-1,22
 431 241 431 241 404 255 c 1,23,-1
 552 255 l 1,24,25
 552.868544683 240.234740392 552.868544683 240.234740392 552.868544683 226.093623679 c 0,26,27
 552.868544683 146.713188399 552.868544683 146.713188399 525.5 87 c 0,28,29
 509 51 509 51 475.5 36.5 c 0,30,31
 391.172413793 1.7763568394e-14 391.172413793 1.7763568394e-14 337 0 c 0,32,33
 255.641025641 0 255.641025641 0 181 71 c 1,34,35
 147.260869565 71 147.260869565 71 44 8.5 c 0,36,37
 25 -3 25 -3 21 -4 c 128,-1,38
 17 -5 17 -5 11.5 13.5 c 128,-1,39
 6 32 6 32 3 59 c 0,40,41
 0.673280281991 79.9404774621 0.673280281991 79.9404774621 0.673280281991 98.4393700545 c 0,42,43
 0.673280281991 142.712000641 0.673280281991 142.712000641 14 173 c 0,44,45
 45.6823379924 238.801778907 45.6823379924 238.801778907 162 267 c 1,46,47
 93.8666666667 267 93.8666666667 267 46.5 291.5 c 0,48,49
 2.90465620567 314.049315756 2.90465620567 314.049315756 2.90465620567 362.864669179 c 0,50,51
 2.90465620567 370.602364243 2.90465620567 370.602364243 4 379 c 0,52,53
 14.3790278536 459.437465866 14.3790278536 459.437465866 128.5 487.5 c 0,54,55
 175.057277766 498.948510926 175.057277766 498.948510926 206.214714288 498.948510926 c 0,56,57
 213.527763008 498.948510926 213.527763008 498.948510926 219.992433062 498.317811409 c 0,58,59
 254 495 254 495 260 490 c 0,60,61
 283 476 283 476 289 452 c 0,62,63
 292.789473684 436.842105263 292.789473684 436.842105263 292.789473684 414.903047091 c 0,64,65
 292.789473684 402.105263158 292.789473684 402.105263158 291.5 387 c 0,66,67
 288 346 288 346 277 322.5 c 128,-1,68
 266 299 266 299 249.5 282.5 c 128,-1,69
 233 266 233 266 214 254.5 c 128,-1,70
 195 243 195 243 176 233 c 128,-1,71
 157 223 157 223 140 214.5 c 128,-1,72
 123 206 123 206 112.5 195.5 c 0,73,0
 93 176 93 176 93 150 c 128,-1,1
119 425 m 2,74,75
 110 421 110 421 100.892857143 405.007142857 c 0,76,77
 95.7776117055 396.024370673 95.7776117055 396.024370673 95.7776117055 383.566837052 c 0,78,79
 95.7776117055 373.845075519 95.7776117055 373.845075519 98.8928571429 362.007142857 c 0,80,81
 106 335 106 335 121 326 c 0,82,83
 149.428571429 308.942857143 149.428571429 308.942857143 198 307 c 1,84,85
 208.937249666 331.061949266 208.937249666 331.061949266 208.937249666 355.675871879 c 0,86,87
 208.937249666 372.213351135 208.937249666 372.213351135 204 389 c 0,88,89
 194.409448819 419.37007874 194.409448819 419.37007874 155 425 c 0,90,91
 146 426.5 146 426.5 137 426.5 c 2,92,-1
 119 425 l 2,74,75
224 468 m 1,93,-1
 217 468 l 1,94,-1
 224 468 l 1,93,-1
2 605 m 1,95,96
 -1.12888888889 637.853333333 -1.12888888889 637.853333333 -31 693 c 1,97,98
 -6.77283813851 694.053354864 -6.77283813851 694.053354864 23.6247520497 694.053354864 c 0,99,100
 142.293048058 694.053354864 142.293048058 694.053354864 355 678 c 0,101,102
 480.390243902 668.536585366 480.390243902 668.536585366 512.195121951 658.768292683 c 128,-1,103
 544 649 544 649 562.5 633 c 128,-1,104
 581 617 581 617 592 599 c 0,105,106
 608.958333333 571.25 608.958333333 571.25 617 523 c 0,107,108
 617.869104888 515.467757637 617.869104888 515.467757637 617.869104888 508.21007624 c 0,109,110
 617.869104888 465.308050522 617.869104888 465.308050522 587.5 432 c 0,111,112
 559.570424847 401.367562735 559.570424847 401.367562735 522.851763843 401.367562735 c 0,113,114
 498.809867149 401.367562735 498.809867149 401.367562735 471 414.5 c 0,115,116
 410.394495413 443.119266055 410.394495413 443.119266055 398.697247706 486.059633028 c 0,117,118
 390.181043475 517.322451775 390.181043475 517.322451775 390.181043475 541.229228655 c 0,119,120
 390.181043475 575.810354512 390.181043475 575.810354512 408 595 c 1,121,122
 362 603 362 603 316.5 606.5 c 128,-1,123
 271 610 271 610 237 615 c 1,124,125
 260.503448276 611.082758621 260.503448276 611.082758621 278.5 582.5 c 0,126,127
 296 554.705882353 296 554.705882353 296 526 c 0,128,129
 296 511.655172414 296 511.655172414 256.5 488.5 c 0,130,131
 242 480 242 480 229.5 474.5 c 128,-1,132
 217 469 217 469 217 468 c 0,133,134
 203 465 203 465 178.5 465 c 128,-1,135
 154 465 154 465 125.5 466 c 128,-1,136
 97 467 97 467 69.5 469.5 c 2,137,-1
 20 474 l 1,138,-1
 67 523 l 1,139,-1
 135 519 l 2,140,141
 143 519 143 519 155 520 c 0,142,143
 191 520 191 520 191 537 c 0,144,145
 191.428571429 541.142857143 191.428571429 541.142857143 191.428571429 545.020408163 c 0,146,147
 191.428571429 568.285714286 191.428571429 568.285714286 176 582 c 0,148,149
 158 598 158 598 129.5 604 c 0,150,151
 102.557466085 609.672112403 102.557466085 609.672112403 68.8243363624 609.672112403 c 0,152,153
 38.208871124 609.672112403 38.208871124 609.672112403 2 605 c 1,95,96
459.5 523.5 m 128,-1,155
 464 509 464 509 478.5 494.5 c 128,-1,156
 493 480 493 480 507 478 c 128,-1,157
 521 476 521 476 531.5 483 c 0,158,159
 548.726708075 494.48447205 548.726708075 494.48447205 548.726708075 515.448190871 c 0,160,161
 548.726708075 525.198757764 548.726708075 525.198757764 545 537 c 0,162,163
 540 551 540 551 522.5 566.5 c 0,164,165
 507.837837838 579.486486486 507.837837838 579.486486486 489.314828342 579.486486486 c 0,166,167
 485.72972973 579.486486486 485.72972973 579.486486486 482 579 c 0,168,169
 475 578 475 578 468 570 c 128,-1,170
 461 562 461 562 458 550 c 128,-1,154
 455 538 455 538 459.5 523.5 c 128,-1,155
EndSplineSet
EndChar

StartChar: U0C15
Encoding: 3093 3093 48
Width: 463
GlyphClass: 2
Flags: W
AnchorPoint: "Anchor-1" 264 -14 basechar 0
LayerCount: 2
Back
Fore
SplineSet
-3 367 m 1,0,-1
 -19 431 l 1,1,-1
 334 604 l 1,2,-1
 366 495 l 1,3,-1
 -3 367 l 1,0,-1
372 455 m 1,4,-1
 367 362 l 1,5,6
 207.030534351 328.458015267 207.030534351 328.458015267 138.5 298 c 0,7,8
 125 292 125 292 120 286 c 1,9,10
 215.088328076 272.731861199 215.088328076 272.731861199 296 238.5 c 0,11,12
 382.148598989 202.052515812 382.148598989 202.052515812 382.148598989 169.681813901 c 0,13,14
 382.148598989 163.315467488 382.148598989 163.315467488 373.5 118.5 c 0,15,16
 368 90 368 90 352.5 64 c 0,17,18
 314.346153846 3.5527136788e-14 314.346153846 3.5527136788e-14 227 0 c 2,19,-1
 1 0 l 1,20,-1
 0 133 l 1,21,22
 139.557921058 71.2724579935 139.557921058 71.2724579935 210.984802096 71.2724579935 c 0,23,24
 236.256992319 71.2724579935 236.256992319 71.2724579935 253 79 c 0,25,26
 288 94 288 94 292 116.5 c 0,27,28
 292.711111111 120.5 292.711111111 120.5 292.711111111 124.5 c 0,29,30
 292.711111111 143 292.711111111 143 277.5 161.5 c 0,31,32
 259 184 259 184 222 203 c 128,-1,33
 185 222 185 222 154 227 c 128,-1,34
 123 232 123 232 101.5 235.5 c 0,35,36
 61.1219512195 242.073170732 61.1219512195 242.073170732 14 246 c 1,37,-1
 -2 322 l 1,38,39
 75 353 75 353 123.5 372 c 128,-1,40
 172 391 172 391 202.5 403 c 128,-1,41
 233 415 233 415 261.5 424.5 c 0,42,43
 331.625 447.875 331.625 447.875 355 452 c 2,44,-1
 372 455 l 1,4,-1
EndSplineSet
MultipleSubs2: "Multiple Substitution lookup 324 subtable" U0C15_U0C46.abvs U0C56 U0C15_U0C46.abvs U0C56
EndChar

StartChar: U0C16
Encoding: 3094 3094 49
Width: 609
GlyphClass: 2
Flags: W
AnchorPoint: "Anchor-1" 335 -137 basechar 0
LayerCount: 2
Back
Fore
SplineSet
223 30 m 1,0,-1
 273 31 l 1,1,-1
 255 -76 l 1,2,-1
 178 -79 l 1,3,-1
 223 30 l 1,0,-1
295 137 m 1,4,5
 333.059701493 123.567164179 333.059701493 123.567164179 387 80 c 1,6,7
 437.513526332 134.609217656 437.513526332 134.609217656 437.513526332 207.236972607 c 0,8,9
 437.513526332 232.295952308 437.513526332 232.295952308 431.5 259.5 c 0,10,11
 411.011173184 352.18754988 411.011173184 352.18754988 334 438 c 1,12,-1
 464 438 l 1,13,14
 496.40549273 398.11631664 496.40549273 398.11631664 510.202746365 346.55815832 c 128,-1,15
 524 295 524 295 526 253.5 c 0,16,17
 526.32 246.86 526.32 246.86 526.32 240.1816 c 0,18,19
 526.32 205.12 526.32 205.12 517.5 169 c 0,20,21
 493.462510773 70.5607584028 493.462510773 70.5607584028 403 0 c 1,22,23
 387 6 387 6 368 19.5 c 128,-1,24
 349 33 349 33 328 43.5 c 0,25,26
 299.737140083 57.6314299583 299.737140083 57.6314299583 276.632714956 57.6314299583 c 0,27,28
 257.558463779 57.6314299583 257.558463779 57.6314299583 242 48 c 0,29,30
 154.84052016 0.202865894309 154.84052016 0.202865894309 102.645360629 0.202865894309 c 0,31,32
 87.9338500465 0.202865894309 87.9338500465 0.202865894309 76 4 c 0,33,34
 -0.302005258271 23.9048709369 -0.302005258271 23.9048709369 -0.302005258271 106.37544734 c 0,35,36
 -0.302005258271 111.563905351 -0.302005258271 111.563905351 0 117 c 0,37,38
 1 134 1 134 22.5 150.5 c 128,-1,39
 44 167 44 167 77.5 176 c 0,40,41
 108.87303293 184.428576011 108.87303293 184.428576011 139.950658726 184.428576011 c 0,42,43
 188.333322641 184.428576011 188.333322641 184.428576011 236 164 c 1,44,45
 242.41350211 179.392405063 242.41350211 179.392405063 242.41350211 196.281293952 c 0,46,47
 242.41350211 204.725738397 242.41350211 204.725738397 240.810126582 213.544303797 c 0,48,49
 233.235294118 255.205882353 233.235294118 255.205882353 215 278 c 1,50,51
 141.911986309 216.156296108 141.911986309 216.156296108 104.894397953 216.156296108 c 0,52,53
 94.5346504989 216.156296108 94.5346504989 216.156296108 87 221 c 0,54,55
 43.4366197183 250.042253521 43.4366197183 250.042253521 23.2183098592 280.021126761 c 128,-1,56
 3 310 3 310 0.5 333 c 0,57,58
 0.215909090909 335.613636364 0.215909090909 335.613636364 0.215909090909 338.188533058 c 0,59,60
 0.215909090909 358.272727273 0.215909090909 358.272727273 17.5 376 c 0,61,62
 37 396 37 396 63 411 c 128,-1,63
 89 426 89 426 115 432.5 c 0,64,65
 135.547023296 437.636755824 135.547023296 437.636755824 152.613403301 437.636755824 c 0,66,67
 185.120793788 437.636755824 185.120793788 437.636755824 205 419 c 1,68,69
 272.489361702 371.360450563 272.489361702 371.360450563 295.5 291.5 c 0,70,71
 303.527777778 263.638888889 303.527777778 263.638888889 303.527777778 239.345679012 c 2,72,-1
 303 188.666666667 l 2,73,74
 303 166.333333333 303 166.333333333 295 137 c 1,4,5
139.5 292 m 128,-1,76
 154 292 154 292 166.5 302 c 128,-1,77
 179 312 179 312 174 326.5 c 128,-1,78
 169 341 169 341 154 353.5 c 0,79,80
 126.810369758 376.158025201 126.810369758 376.158025201 97.860892899 376.158025201 c 0,81,82
 87.0530882049 376.158025201 87.0530882049 376.158025201 76 373 c 0,83,84
 67 371 67 371 67 361.5 c 128,-1,85
 67 352 67 352 72.5 340.5 c 128,-1,86
 78 329 78 329 88.5 317.5 c 128,-1,87
 99 306 99 306 112 299 c 128,-1,75
 125 292 125 292 139.5 292 c 128,-1,76
146.5 126 m 128,-1,89
 89.8461538462 126 89.8461538462 126 88 102 c 0,90,91
 87.660913465 99.1177644529 87.660913465 99.1177644529 87.660913465 96.4804365473 c 0,92,93
 87.660913465 71.5339086535 87.660913465 71.5339086535 118 68.5 c 0,94,95
 123.5451524 67.94548476 123.5451524 67.94548476 129.09953524 67.94548476 c 0,96,97
 150.77583563 67.94548476 150.77583563 67.94548476 172.592715232 76.3907284768 c 0,98,99
 220.847161572 95.0698689956 220.847161572 95.0698689956 219 108 c 1,100,88
 203 126 203 126 146.5 126 c 128,-1,89
EndSplineSet
MultipleSubs2: "Multiple Substitution lookup 324 subtable" U0C16_U0C46.abvs U0C56 U0C16_U0C46.abvs U0C56
EndChar

StartChar: U0C17
Encoding: 3095 3095 50
Width: 559
GlyphClass: 2
Flags: W
AnchorPoint: "Anchor-1" 307 0 basechar 0
LayerCount: 2
Back
Fore
SplineSet
49 429 m 1,0,-1
 438 549 l 1,1,-1
 455 437 l 1,2,-1
 54 369 l 1,3,-1
 49 429 l 1,0,-1
44 0 m 1,4,5
 1 61.4285714286 1 61.4285714286 1 142 c 256,6,7
 1 238.163636364 1 238.163636364 59.5 319 c 0,8,9
 121.258820042 404.339460421 121.258820042 404.339460421 214 414 c 0,10,11
 226.274908069 415.115900734 226.274908069 415.115900734 238.152412331 415.115900734 c 0,12,13
 317.750050882 415.115900734 317.750050882 415.115900734 379.5 365 c 0,14,15
 455.046169794 303.687166544 455.046169794 303.687166544 455.046169794 200.145208757 c 0,16,17
 455.046169794 197.585508474 455.046169794 197.585508474 455 195 c 0,18,19
 452.640113798 107.684210526 452.640113798 107.684210526 412 32.5 c 0,20,21
 402 14 402 14 395 1 c 1,22,-1
 280 0 l 1,23,24
 315 52 315 52 329 92.5 c 128,-1,25
 343 133 343 133 351.5 170.5 c 0,26,27
 356.482758621 192.482758621 356.482758621 192.482758621 356.482758621 213.606420927 c 0,28,29
 356.482758621 228.517241379 356.482758621 228.517241379 354 243 c 0,30,31
 348 278 348 278 329.5 302.5 c 0,32,33
 294.653025155 348.648696417 294.653025155 348.648696417 229.000621191 348.648696417 c 0,34,35
 221.216821278 348.648696417 221.216821278 348.648696417 213 348 c 0,36,37
 125.571246006 339.867092652 125.571246006 339.867092652 101 200 c 0,38,39
 99.1971153846 189.182692308 99.1971153846 189.182692308 99.1971153846 177.533284024 c 0,40,41
 99.1971153846 128.605769231 99.1971153846 128.605769231 131 65 c 0,42,43
 148 31 148 31 173 0 c 1,44,-1
 44 0 l 1,4,5
EndSplineSet
MultipleSubs2: "Multiple Substitution lookup 324 subtable" U0C17_U0C46.abvs U0C56 U0C17_U0C46.abvs U0C56
EndChar

StartChar: U0C18
Encoding: 3096 3096 51
Width: 795
GlyphClass: 2
Flags: W
LayerCount: 2
Back
Fore
SplineSet
590 -2 m 1,0,1
 538.104046243 18.7583815029 538.104046243 18.7583815029 479.608607037 18.7583815029 c 0,2,3
 462.583815029 18.7583815029 462.583815029 18.7583815029 445 17 c 1,4,5
 391.666666667 17 391.666666667 17 331 4 c 1,6,7
 342 22 342 22 354.5 38.5 c 128,-1,8
 367 55 367 55 381 74.5 c 128,-1,9
 395 94 395 94 410 113 c 0,10,11
 412.796884735 115.796884735 412.796884735 115.796884735 420.20296581 115.796884735 c 0,12,13
 430.538317757 115.796884735 430.538317757 115.796884735 449.85 110.35 c 0,14,15
 513.536170213 92.3872340426 513.536170213 92.3872340426 527 77 c 1,16,17
 560.243243243 88.0810810811 560.243243243 88.0810810811 585 134.5 c 0,18,19
 601.536001878 165.505003522 601.536001878 165.505003522 601.536001878 204.291803419 c 0,20,21
 601.536001878 227.725638883 601.536001878 227.725638883 595.5 254 c 0,22,23
 576.212667946 337.956621881 576.212667946 337.956621881 492 424 c 1,24,-1
 630 424 l 1,25,26
 691.901270086 324.670054978 691.901270086 324.670054978 691.901270086 226.644771325 c 0,27,28
 691.901270086 186.462774541 691.901270086 186.462774541 681.5 146.5 c 0,29,30
 660.145454545 64.4535885167 660.145454545 64.4535885167 590 -2 c 1,0,1
56 358 m 1,31,-1
 38 409 l 1,32,-1
 343 598 l 1,33,-1
 387 493 l 1,34,-1
 56 358 l 1,31,-1
453 247 m 0,35,36
 453 151.777777778 453 151.777777778 335 1 c 0,37,38
 332 1 332 1 318.5 8 c 128,-1,39
 305 15 305 15 285 24.5 c 0,40,41
 231.440767757 49.9406353154 231.440767757 49.9406353154 182.373732616 49.9406353154 c 0,42,43
 160.750668325 49.9406353154 160.750668325 49.9406353154 140 45 c 0,44,45
 109.666666667 37.7777777778 109.666666667 37.7777777778 81.3333333333 27.3888888889 c 128,-1,46
 53 17 53 17 40.5 16.5 c 128,-1,47
 28 16 28 16 18 31.5 c 128,-1,48
 8 47 8 47 3.5 70.5 c 0,49,50
 -0.88089046373 93.3779835328 -0.88089046373 93.3779835328 -0.88089046373 113.350542593 c 0,51,52
 -0.88089046373 144.960816932 -0.88089046373 144.960816932 10.0927694407 169.293315143 c 0,53,54
 28 209 28 209 52 228 c 128,-1,55
 76 247 76 247 100 253 c 0,56,57
 112 256 112 256 122.75 256 c 128,-1,58
 133.5 256 133.5 256 143 253 c 0,59,60
 162 247 162 247 167 230 c 0,61,62
 186.51226158 167.915531335 186.51226158 167.915531335 233.5 139 c 0,63,64
 266.29880146 118.816122178 266.29880146 118.816122178 291.840108327 118.816122178 c 0,65,66
 328.324274831 118.816122178 328.324274831 118.816122178 350 160 c 0,67,68
 370.473666444 198.899966243 370.473666444 198.899966243 370.473666444 238.389584279 c 0,69,70
 370.473666444 285.770364001 370.473666444 285.770364001 341 334 c 0,71,72
 329 354 329 354 313 375 c 1,73,-1
 431 421 l 1,74,75
 453.229143103 335.259019461 453.229143103 335.259019461 453.229143103 261.791678054 c 0,76,77
 453.229143103 254.332579284 453.229143103 254.332579284 453 247 c 0,35,36
81.5 129 m 128,-1,79
 78 113 78 113 88 102.5 c 128,-1,80
 98 92 98 92 113 97.5 c 128,-1,81
 128 103 128 103 139 117 c 128,-1,82
 150 131 150 131 153.5 147.5 c 128,-1,83
 157 164 157 164 147 171 c 0,84,85
 134 184 134 184 119.5 178.5 c 128,-1,86
 105 173 105 173 95 159 c 128,-1,78
 85 145 85 145 81.5 129 c 128,-1,79
152 30 m 1,87,-1
 202 31 l 1,88,-1
 183 -76 l 1,89,-1
 106 -79 l 1,90,-1
 152 30 l 1,87,-1
EndSplineSet
MultipleSubs2: "Multiple Substitution lookup 324 subtable" U0C18_U0C46.abvs U0C56 U0C18_U0C46.abvs U0C56
EndChar

StartChar: U0C19
Encoding: 3097 3097 52
Width: 728
GlyphClass: 2
Flags: W
AnchorPoint: "Anchor-1" 294 -22 basechar 0
LayerCount: 2
Back
Fore
SplineSet
621 259 m 1,0,1
 622.473469388 240.213265306 622.473469388 240.213265306 622.473469388 222.396314036 c 0,2,3
 622.473469388 148.315306122 622.473469388 148.315306122 597 91 c 0,4,5
 581 55 581 55 547.5 40.5 c 128,-1,6
 514 26 514 26 479.5 15 c 0,7,8
 446.5 4.47826086957 446.5 4.47826086957 411.670132325 4.47826086957 c 0,9,10
 410.086956522 4.47826086957 410.086956522 4.47826086957 408.5 4.5 c 0,11,12
 324.347222222 5.65277777778 324.347222222 5.65277777778 254 76 c 1,13,14
 219.5 76 219.5 76 115.5 12 c 0,15,16
 96 0 96 0 92.5 -0.5 c 128,-1,17
 89 -1 89 -1 83.5 17.5 c 128,-1,18
 78 36 78 36 75 63 c 0,19,20
 72.8397606383 82.4421542553 72.8397606383 82.4421542553 72.8397606383 100.091769466 c 0,21,22
 72.8397606383 169.761303191 72.8397606383 169.761303191 106.5 211.5 c 0,23,24
 119 227 119 227 131 240 c 0,25,26
 145 253 145 253 162 265 c 1,27,28
 144.467690723 263.246769072 144.467690723 263.246769072 128.763981896 263.246769072 c 0,29,30
 50.3149231957 263.246769072 50.3149231957 263.246769072 17.5 307 c 0,31,32
 1.38272328932 328.489702281 1.38272328932 328.489702281 1.38272328932 361.512433029 c 0,33,34
 1.38272328932 374.819795078 1.38272328932 374.819795078 4 390 c 0,35,36
 17.2608695652 469.565217391 17.2608695652 469.565217391 129 497.5 c 0,37,38
 174.810003609 508.952500902 174.810003609 508.952500902 204.20146945 508.952500902 c 0,39,40
 212.370492962 508.952500902 212.370492962 508.952500902 219.271186441 508.06779661 c 0,41,42
 251 504 251 504 258.5 496.5 c 128,-1,43
 266 489 266 489 274.5 481.5 c 128,-1,44
 283 474 283 474 287 463.5 c 0,45,46
 289.941901479 455.777508617 289.941901479 455.777508617 289.941901479 445.596625794 c 0,47,48
 289.941901479 411.271126892 289.941901479 411.271126892 256.5 349 c 0,49,50
 242 322 242 322 226.5 295 c 0,51,52
 188.232365145 228.340248963 188.232365145 228.340248963 185.116182573 211.670124481 c 128,-1,53
 182 195 182 195 178.5 180.5 c 128,-1,54
 175 166 175 166 173 154 c 0,55,56
 168.666666667 128 168.666666667 128 181 128 c 256,57,58
 194.36 128 194.36 128 228.68 150 c 0,59,60
 295.324324324 192.720720721 295.324324324 192.720720721 302.162162162 194.36036036 c 128,-1,61
 309 196 309 196 317.5 189.5 c 128,-1,62
 326 183 326 183 335 172.5 c 128,-1,63
 344 162 344 162 354.5 148.5 c 128,-1,64
 365 135 365 135 375 124.5 c 128,-1,65
 385 114 385 114 399.5 100 c 128,-1,66
 414 86 414 86 431.5 77 c 0,67,68
 453.604442059 65.632001227 453.604442059 65.632001227 473.372811096 65.632001227 c 0,69,70
 492.25169429 65.632001227 492.25169429 65.632001227 509 76 c 0,71,72
 521 83 521 83 528 107 c 0,73,74
 532.9 123.8 532.9 123.8 532.9 142.805 c 0,75,76
 532.9 150.95 532.9 150.95 532 159.5 c 0,77,78
 524.247011952 233.153386454 524.247011952 233.153386454 476 259 c 1,79,-1
 621 259 l 1,0,1
99 357 m 0,80,81
 105.208 333.72 105.208 333.72 151 321 c 0,82,83
 170 315 170 315 195 314 c 1,84,85
 205.63464503 339.523148073 205.63464503 339.523148073 205.63464503 364.050392917 c 0,86,87
 205.63464503 380.242206897 205.63464503 380.242206897 201 396 c 256,88,89
 193.488789238 421.538116592 193.488789238 421.538116592 154 430 c 0,90,91
 140.5 432.25 140.5 432.25 125.875 432.25 c 0,92,93
 121 432.25 121 432.25 116 432 c 1,94,95
 96.4655650893 420.837465765 96.4655650893 420.837465765 96.4655650893 385.550484535 c 0,96,97
 96.4655650893 372.840218192 96.4655650893 372.840218192 99 357 c 0,80,81
381 492 m 1,98,-1
 397.5 492 l 2,99,100
 412 492 412 492 429 493 c 128,-1,101
 446 494 446 494 470 495 c 1,102,-1
 421 314 l 1,103,-1
 329 305 l 1,104,105
 341 346 341 346 351 379.5 c 0,106,107
 378.669902913 472.194174757 378.669902913 472.194174757 381 492 c 1,98,-1
270 420 m 1,108,-1
 536 436 l 1,109,-1
 545 367 l 1,110,-1
 241 367 l 1,111,-1
 270 420 l 1,108,-1
EndSplineSet
MultipleSubs2: "Multiple Substitution lookup 324 subtable" U0C19_U0C46.abvs U0C56 U0C19_U0C46.abvs U0C56
EndChar

StartChar: U0C1A
Encoding: 3098 3098 53
Width: 659
GlyphClass: 2
Flags: W
LayerCount: 2
Back
Fore
SplineSet
165 403 m 1,0,-1
 482 535 l 1,1,-1
 496 420 l 1,2,-1
 168 347 l 1,3,-1
 165 403 l 1,0,-1
190 354 m 1,4,5
 191 357 191 357 191 365 c 128,-1,6
 191 373 191 373 187 403 c 1,7,8
 194 409 194 409 224.5 410 c 0,9,10
 228.857142857 410.142857143 228.857142857 410.142857143 233.459183673 410.142857143 c 0,11,12
 261.071428571 410.142857143 261.071428571 410.142857143 297.5 405 c 0,13,14
 340 399 340 399 387.5 386 c 128,-1,15
 435 373 435 373 475.5 351.5 c 0,16,17
 568.183387913 302.297707651 568.183387913 302.297707651 570 226 c 0,18,19
 570.04179339 223.450603215 570.04179339 223.450603215 570.04179339 220.923046531 c 0,20,21
 570.04179339 119.313760783 570.04179339 119.313760783 502.5 53 c 0,22,23
 475 26 475 26 447.5 13.5 c 128,-1,24
 420 1 420 1 398 -1.5 c 0,25,26
 394.071428571 -1.94642857143 394.071428571 -1.94642857143 390.142857143 -1.94642857143 c 2,27,-1
 354 7.5 l 1,28,29
 332 19 332 19 315.5 35 c 128,-1,30
 299 51 299 51 285.5 66.5 c 128,-1,31
 272 82 272 82 259 85 c 0,32,33
 253.666666667 86.9393939394 253.666666667 86.9393939394 247.56932966 86.9393939394 c 0,34,35
 228.515151515 86.9393939394 228.515151515 86.9393939394 202 68 c 0,36,37
 167 43 167 43 112 -6 c 1,38,39
 95.7515019198 33.7185508627 95.7515019198 33.7185508627 95.7515019198 73.3205554151 c 0,40,41
 95.7515019198 107.704205376 95.7515019198 107.704205376 108 142 c 0,42,43
 119 176 119 176 138 203 c 1,44,-1
 0 170 l 1,45,-1
 16 282 l 1,46,-1
 259 295 l 1,47,48
 223.409090909 239.636363636 223.409090909 239.636363636 211.704545455 192.318181818 c 0,49,50
 204.571005917 163.479289941 204.571005917 163.479289941 204.571005917 149.616610063 c 0,51,52
 204.571005917 140.733727811 204.571005917 140.733727811 207.5 138 c 0,53,54
 215 131 215 131 229 135 c 0,55,56
 250 141 250 141 275 161 c 0,57,58
 300 178 300 178 313 179.5 c 128,-1,59
 326 181 326 181 335.5 169.5 c 128,-1,60
 345 158 345 158 358.5 142 c 128,-1,61
 372 126 372 126 389 112.5 c 0,62,63
 416.847650231 90.3856895223 416.847650231 90.3856895223 439.447836959 90.3856895223 c 0,64,65
 449.771379045 90.3856895223 449.771379045 90.3856895223 459 95 c 1,66,67
 487 119 487 119 492.5 154 c 0,68,69
 494.333333333 165.666666667 494.333333333 165.666666667 494.333333333 177.444444444 c 0,70,71
 494.333333333 201 494.333333333 201 487 225 c 0,72,73
 476 261 476 261 452 292 c 128,-1,74
 428 323 428 323 401 336.5 c 0,75,76
 358 358 358 358 270 358 c 0,77,78
 231 358 231 358 190 354 c 1,4,5
EndSplineSet
MultipleSubs2: "Multiple Substitution lookup 324 subtable" U0C1A_U0C46.abvs U0C56 U0C1A_U0C46.abvs U0C56
EndChar

StartChar: U0C1B
Encoding: 3099 3099 54
Width: 659
GlyphClass: 2
Flags: W
LayerCount: 2
Back
Fore
SplineSet
482 535 m 1,0,-1
 496 420 l 1,1,-1
 168 347 l 1,2,-1
 167 397 l 1,3,-1
 482 535 l 1,0,-1
190 354 m 1,4,5
 191 357 191 357 191 365 c 128,-1,6
 191 373 191 373 187 403 c 1,7,8
 194 409 194 409 224.5 410 c 0,9,10
 228.857142857 410.142857143 228.857142857 410.142857143 233.459183673 410.142857143 c 0,11,12
 261.071428571 410.142857143 261.071428571 410.142857143 297.5 405 c 0,13,14
 340 399 340 399 387.5 386 c 128,-1,15
 435 373 435 373 475.5 351.5 c 0,16,17
 568.183387913 302.297707651 568.183387913 302.297707651 570 226 c 0,18,19
 570.04179339 223.450603215 570.04179339 223.450603215 570.04179339 220.923046531 c 0,20,21
 570.04179339 119.313760783 570.04179339 119.313760783 502.5 53 c 0,22,23
 475 26 475 26 447.5 13.5 c 128,-1,24
 420 1 420 1 398 -1.5 c 0,25,26
 394.071428571 -1.94642857143 394.071428571 -1.94642857143 390.142857143 -1.94642857143 c 2,27,-1
 354 7.5 l 1,28,29
 332 19 332 19 315.5 35 c 128,-1,30
 299 51 299 51 285.5 66.5 c 128,-1,31
 272 82 272 82 259 85 c 0,32,33
 253.666666667 86.9393939394 253.666666667 86.9393939394 247.56932966 86.9393939394 c 0,34,35
 228.515151515 86.9393939394 228.515151515 86.9393939394 202 68 c 0,36,37
 167 43 167 43 112 -6 c 1,38,39
 95.7515019198 33.7185508627 95.7515019198 33.7185508627 95.7515019198 73.3205554151 c 0,40,41
 95.7515019198 107.704205376 95.7515019198 107.704205376 108 142 c 0,42,43
 119 176 119 176 138 203 c 1,44,-1
 0 170 l 1,45,-1
 16 282 l 1,46,-1
 259 295 l 1,47,48
 223.409090909 239.636363636 223.409090909 239.636363636 211.704545455 192.318181818 c 0,49,50
 204.571005917 163.479289941 204.571005917 163.479289941 204.571005917 149.616610063 c 0,51,52
 204.571005917 140.733727811 204.571005917 140.733727811 207.5 138 c 0,53,54
 215 131 215 131 229 135 c 0,55,56
 250 141 250 141 275 161 c 0,57,58
 300 178 300 178 313 179.5 c 128,-1,59
 326 181 326 181 335.5 169.5 c 128,-1,60
 345 158 345 158 358.5 142 c 128,-1,61
 372 126 372 126 389 112.5 c 0,62,63
 416.847650231 90.3856895223 416.847650231 90.3856895223 439.447836959 90.3856895223 c 0,64,65
 449.771379045 90.3856895223 449.771379045 90.3856895223 459 95 c 1,66,67
 487 119 487 119 492.5 154 c 0,68,69
 494.333333333 165.666666667 494.333333333 165.666666667 494.333333333 177.444444444 c 0,70,71
 494.333333333 201 494.333333333 201 487 225 c 0,72,73
 476 261 476 261 452 292 c 128,-1,74
 428 323 428 323 401 336.5 c 0,75,76
 358 358 358 358 270 358 c 0,77,78
 231 358 231 358 190 354 c 1,4,5
150 -82 m 1,79,-1
 237 -82 l 1,80,-1
 271 37 l 1,81,-1
 215 37 l 1,82,-1
 150 -82 l 1,79,-1
EndSplineSet
MultipleSubs2: "Multiple Substitution lookup 324 subtable" U0C1B_U0C46.abvs U0C56 U0C1B_U0C46.abvs U0C56
EndChar

StartChar: U0C1C
Encoding: 3100 3100 55
Width: 726
GlyphClass: 2
Flags: W
AnchorPoint: "Anchor-1" 280 -27 basechar 0
LayerCount: 2
Back
Fore
SplineSet
375 512 m 1,0,-1
 506 502 l 1,1,2
 509.57201722 471.637853629 509.57201722 471.637853629 509.57201722 441.882027523 c 0,3,4
 509.57201722 404.718111931 509.57201722 404.718111931 504 368.5 c 0,5,6
 498.13592233 330.383495146 498.13592233 330.383495146 482.067961165 308.691747573 c 128,-1,7
 466 287 466 287 451 280 c 0,8,9
 422.156693855 264.67699361 422.156693855 264.67699361 392.658722948 264.67699361 c 0,10,11
 363.646012779 264.67699361 363.646012779 264.67699361 334 279.5 c 0,12,13
 291.705882353 300.647058824 291.705882353 300.647058824 260 341 c 0,14,15
 251.181787808 351.287914224 251.181787808 351.287914224 251.181787808 367.121528519 c 0,16,17
 251.181787808 384.659022568 251.181787808 384.659022568 262 409 c 0,18,19
 272 428 272 428 290 450 c 1,20,21
 293.373134328 424.701492537 293.373134328 424.701492537 306.186567164 404.350746269 c 128,-1,22
 319 384 319 384 333.5 375 c 128,-1,23
 348 366 348 366 360.5 357.5 c 128,-1,24
 373 349 373 349 384 344.5 c 0,25,26
 396.445394191 339.408702376 396.445394191 339.408702376 404.676290473 339.408702376 c 128,-1,27
 413.009307056 339.408702376 413.009307056 339.408702376 417.02259887 344.627118644 c 0,28,29
 425 355 425 355 423 375 c 128,-1,30
 421 395 421 395 414 418 c 0,31,32
 406.447368421 442.815789474 406.447368421 442.815789474 375 512 c 1,0,-1
621 259 m 1,33,34
 621.424535192 248.386620209 621.424535192 248.386620209 621.424535192 238.069091224 c 0,35,36
 621.424535192 155.902937709 621.424535192 155.902937709 594.5 92.5 c 0,37,38
 579 56 579 56 545.5 41.5 c 128,-1,39
 512 27 512 27 478 16 c 0,40,41
 445.47826087 5.47826086957 445.47826087 5.47826086957 411.126654064 5.47826086957 c 0,42,43
 409.565217391 5.47826086957 409.565217391 5.47826086957 408 5.5 c 0,44,45
 326.993657505 6.6250880902 326.993657505 6.6250880902 251 79 c 1,46,47
 215.621621622 76.9189189189 215.621621622 76.9189189189 116 14 c 0,48,49
 97 2 97 2 93 1 c 0,50,51
 90 -1 90 -1 84.5 17.5 c 128,-1,52
 79 36 79 36 75.5 63 c 0,53,54
 72.5186951848 85.9986371456 72.5186951848 85.9986371456 72.5186951848 106.465818597 c 0,55,56
 72.5186951848 174.023009458 72.5186951848 174.023009458 105 214 c 0,57,58
 135.16 251.12 135.16 251.12 159 269 c 1,59,60
 141.153585538 266.858430265 141.153585538 266.858430265 124.871648334 266.858430265 c 0,61,62
 76.1940951456 266.858430265 76.1940951456 266.858430265 41.5 286 c 0,63,64
 -0.561862020537 309.206544563 -0.561862020537 309.206544563 -0.561862020537 362.089927916 c 0,65,66
 -0.561862020537 375.141200281 -0.561862020537 375.141200281 2 390 c 0,67,68
 11.0419161677 446.05988024 11.0419161677 446.05988024 71.5 478 c 0,69,70
 118.75 502.962264151 118.75 502.962264151 185.5 508 c 0,71,72
 198.936116889 509.014046558 198.936116889 509.014046558 210.051863771 509.014046558 c 0,73,74
 244.983144131 509.014046558 244.983144131 509.014046558 257 499 c 0,75,76
 279.714285714 481.333333333 279.714285714 481.333333333 285.357142857 468.166666667 c 0,77,78
 289.622747145 458.213589995 289.622747145 458.213589995 289.622747145 444.857569908 c 0,79,80
 289.622747145 425.868241435 289.622747145 425.868241435 281 400 c 1,81,82
 261.819672131 355.885245902 261.819672131 355.885245902 236.409836066 312.442622951 c 0,83,84
 188.037037037 229.740740741 188.037037037 229.740740741 185 210 c 0,85,86
 171.587208577 166.408427877 171.587208577 166.408427877 171.587208577 145.990333317 c 0,87,88
 174.536346923 131.899896842 174.536346923 131.899896842 182 128 c 1,89,90
 194.36 128 194.36 128 228.68 150 c 0,91,92
 295.324324324 192.720720721 295.324324324 192.720720721 303 194 c 0,93,94
 310.808641975 198.685185185 310.808641975 198.685185185 327.404320988 180.342592593 c 0,95,96
 351.6 153.6 351.6 153.6 375 125 c 256,97,98
 403.018867925 90.7547169811 403.018867925 90.7547169811 424.509433962 79.3773584906 c 0,99,100
 446.933184882 67.5059609446 446.933184882 67.5059609446 468.471330222 67.5059609446 c 0,101,102
 489.66439244 67.5059609446 489.66439244 67.5059609446 510 79 c 0,103,104
 520 85 520 85 526 109 c 0,105,106
 530 125 530 125 530 143 c 0,107,108
 530 152 530 152 529 161.5 c 0,109,110
 521.086956522 236.673913043 521.086956522 236.673913043 473 259 c 1,111,-1
 621 259 l 1,33,34
113 436 m 1,112,113
 95.7001933527 427.350096676 95.7001933527 427.350096676 95.7001933527 396.84647937 c 0,114,115
 95.7001933527 381.639071907 95.7001933527 381.639071907 100 361 c 0,116,117
 104.744791667 325.4140625 104.744791667 325.4140625 195 315 c 1,118,119
 203.080288462 347.321153846 203.080288462 347.321153846 203.080288462 370.336656805 c 0,120,121
 203.080288462 408.382692308 203.080288462 408.382692308 181 421 c 0,122,123
 154.75 436 154.75 436 113 436 c 1,112,113
EndSplineSet
MultipleSubs2: "Multiple Substitution lookup 324 subtable" U0C1C_U0C46.abvs U0C56 U0C1C_U0C46.abvs U0C56
EndChar

StartChar: U0C1D
Encoding: 3101 3101 56
Width: 1005
GlyphClass: 2
Flags: W
LayerCount: 2
Back
Fore
SplineSet
537 6 m 1,0,1
 490.333333333 27 490.333333333 27 417 27 c 2,2,-1
 392 27 l 2,3,4
 343.333333333 27 343.333333333 27 278 13 c 1,5,6
 292.609375 35.578125 292.609375 35.578125 317.3046875 68.7890625 c 128,-1,7
 342 102 342 102 356 121 c 0,8,9
 358.631917414 124.509223219 358.631917414 124.509223219 367.582693357 124.509223219 c 0,10,11
 377.963107125 124.509223219 377.963107125 124.509223219 396.842105263 119.789473684 c 0,12,13
 461.6 103.6 461.6 103.6 474 85 c 1,14,15
 498 94 498 94 521 123 c 128,-1,16
 544 152 544 152 548.5 196.5 c 0,17,18
 549.236363636 203.781818182 549.236363636 203.781818182 549.236363636 211.451900826 c 0,19,20
 549.236363636 250.654545455 549.236363636 250.654545455 530 300 c 0,21,22
 507 359 507 359 438 429 c 1,23,-1
 580 429 l 1,24,25
 641.535120255 331.688647039 641.535120255 331.688647039 641.535120255 228.913717429 c 0,26,27
 641.535120255 105.03327182 641.535120255 105.03327182 537 6 c 1,0,1
797 0 m 1,28,29
 739.10367409 21.0532094217 739.10367409 21.0532094217 685.245134978 21.0532094217 c 0,30,31
 668.425675373 21.0532094217 668.425675373 21.0532094217 652 19 c 1,32,33
 600 19 600 19 535 6 c 1,34,-1
 560 42 l 2,35,36
 571 57 571 57 584.5 76.5 c 128,-1,37
 598 96 598 96 612 115 c 0,38,39
 616.014828545 119.014828545 616.014828545 119.014828545 625.447257054 119.014828545 c 0,40,41
 636.617238184 119.014828545 636.617238184 119.014828545 655.384615385 113.384615385 c 0,42,43
 721.186440678 93.6440677966 721.186440678 93.6440677966 734 79 c 1,44,45
 768.810344828 90.6034482759 768.810344828 90.6034482759 791 137 c 0,46,47
 806.942130908 170.333546443 806.942130908 170.333546443 806.942130908 207.816810423 c 0,48,49
 806.942130908 266.77503555 806.942130908 266.77503555 767.5 336 c 0,50,51
 743 379 743 379 698 426 c 1,52,-1
 836 426 l 1,53,54
 898 326.511627907 898 326.511627907 898 220 c 0,55,56
 898 95.6842105263 898 95.6842105263 797 0 c 1,28,29
20 411 m 1,57,-1
 291 587 l 1,58,-1
 350 511 l 1,59,-1
 44 367 l 1,60,-1
 20 411 l 1,57,-1
334.5 414 m 0,61,62
 440.24230477 364.960090541 440.24230477 364.960090541 440.24230477 263.996851757 c 0,63,64
 440.24230477 253.05343436 440.24230477 253.05343436 439 241.5 c 0,65,66
 427.798581123 137.326804442 427.798581123 137.326804442 352 62.5 c 0,67,68
 313 24 313 24 258 8 c 256,69,70
 228.217559499 -0.663982691232 228.217559499 -0.663982691232 200.425273307 -0.663982691232 c 0,71,72
 135.238325131 -0.663982691232 135.238325131 -0.663982691232 81 47 c 0,73,74
 48 76 48 76 28 114 c 128,-1,75
 8 152 8 152 2.5 179.5 c 0,76,77
 -0.130434782609 192.652173913 -0.130434782609 192.652173913 -0.130434782609 205.575614367 c 0,78,79
 -0.130434782609 219.673913043 -0.130434782609 219.673913043 3 233.5 c 0,80,81
 9 260 9 260 22.5 287 c 128,-1,82
 36 314 36 314 55.5 341 c 128,-1,83
 75 368 75 368 96 388.5 c 0,84,85
 141.403669725 432.822629969 141.403669725 432.822629969 180.701834862 437.411314985 c 0,86,87
 199.336527792 439.587211389 199.336527792 439.587211389 217.396473365 439.587211389 c 0,88,89
 279.327575443 439.587211389 279.327575443 439.587211389 334.5 414 c 0,61,62
264 77 m 0,90,91
 267.076923077 76.3846153846 267.076923077 76.3846153846 270.094674556 76.3846153846 c 0,92,93
 286.692307692 76.3846153846 286.692307692 76.3846153846 301.5 95 c 0,94,95
 319 117 319 117 329.5 149.5 c 128,-1,96
 340 182 340 182 340 218.5 c 128,-1,97
 340 255 340 255 324.5 279 c 128,-1,98
 309 303 309 303 286.5 321.5 c 128,-1,99
 264 340 264 340 240 350.5 c 0,100,101
 211.060671968 363.160956014 211.060671968 363.160956014 189.894215142 363.160956014 c 0,102,103
 170.02111535 363.160956014 170.02111535 363.160956014 157 352 c 0,104,105
 146 345 146 345 131.5 324.5 c 128,-1,106
 117 304 117 304 106.5 277 c 128,-1,107
 96 250 96 250 93.5 218 c 0,108,109
 93.1527777778 213.555555556 93.1527777778 213.555555556 93.1527777778 209.188271605 c 0,110,111
 93.1527777778 182.111111111 93.1527777778 182.111111111 106.5 158 c 0,112,113
 142.288799309 93.3492657645 142.288799309 93.3492657645 264 77 c 0,90,91
435 -128 m 1,114,-1
 522 -128 l 1,115,-1
 557 -9 l 1,116,-1
 501 -9 l 1,117,-1
 435 -128 l 1,114,-1
EndSplineSet
MultipleSubs2: "Multiple Substitution lookup 324 subtable" U0C1D_U0C46.abvs U0C56 U0C1D_U0C46.abvs U0C56
EndChar

StartChar: U0C1E
Encoding: 3102 3102 57
Width: 901
GlyphClass: 2
Flags: W
AnchorPoint: "Anchor-1" 287 -41 basechar 0
LayerCount: 2
Back
Fore
SplineSet
581 170 m 1,0,1
 625.727272727 322.818181818 625.727272727 322.818181818 630 357 c 1,2,3
 663 357 663 357 719 364 c 1,4,-1
 670 180 l 1,5,-1
 581 170 l 1,0,1
528 292 m 1,6,-1
 784 305 l 1,7,-1
 797 240 l 1,8,-1
 489 236 l 1,9,-1
 528 292 l 1,6,-1
473 123 m 0,10,11
 460 104 460 104 450 95 c 1,12,-1
 522 36 l 1,13,-1
 450 -10 l 1,14,15
 435 6 435 6 423.5 19.5 c 128,-1,16
 412 33 412 33 400 45 c 128,-1,17
 388 57 388 57 381 66 c 1,18,19
 319.166666667 15.7604166667 319.166666667 15.7604166667 230 3.5 c 0,20,21
 204.923431039 0.0519717678365 204.923431039 0.0519717678365 182.064886063 0.0519717678365 c 0,22,23
 127.777245832 0.0519717678365 127.777245832 0.0519717678365 86 19.5 c 0,24,25
 26.7738940011 47.0707734822 26.7738940011 47.0707734822 26.7738940011 102.095524387 c 0,26,27
 26.7738940011 105.495357018 26.7738940011 105.495357018 27 109 c 0,28,29
 32.6508161817 161.740951029 32.6508161817 161.740951029 91.5 189.5 c 0,30,31
 135.41265395 210.213516014 135.41265395 210.213516014 200.553799498 210.213516014 c 0,32,33
 207.167487544 210.213516014 207.167487544 210.213516014 214 210 c 0,34,35
 263.727586207 208.493103448 263.727586207 208.493103448 330.5 181.5 c 0,36,37
 360.130434783 169.52173913 360.130434783 169.52173913 391 151 c 1,38,39
 414.484848485 169.787878788 414.484848485 169.787878788 434.242424242 201.893939394 c 128,-1,40
 454 234 454 234 460 258.5 c 0,41,42
 464.8 278.1 464.8 278.1 464.8 292.9 c 0,43,44
 464.8 296.6 464.8 296.6 464.5 300 c 0,45,46
 463 317 463 317 456 330 c 0,47,48
 446.021276596 348.531914894 446.021276596 348.531914894 417 367 c 0,49,50
 394 379 394 379 367 379.5 c 0,51,52
 366.341463415 379.512195122 366.341463415 379.512195122 365.690660321 379.512195122 c 0,53,54
 339.658536585 379.512195122 339.658536585 379.512195122 326 360 c 0,55,56
 311.636363636 338.454545455 311.636363636 338.454545455 305 292 c 1,57,-1
 237 292 l 1,58,59
 241 313 241 313 241 330.5 c 0,60,61
 241 375.272727273 241 375.272727273 226.5 386.636363636 c 128,-1,62
 212 398 212 398 188.5 402 c 0,63,64
 175.966666667 404.133333333 175.966666667 404.133333333 163.717777778 404.133333333 c 0,65,66
 153 404.133333333 153 404.133333333 142.5 402.5 c 0,67,68
 120 399 120 399 106 387.5 c 0,69,70
 97.4782608696 380.5 97.4782608696 380.5 97.4782608696 370.535916824 c 0,71,72
 97.4782608696 364.130434783 97.4782608696 364.130434783 101 356.5 c 0,73,74
 123.548387097 307.64516129 123.548387097 307.64516129 152 295 c 1,75,-1
 86 240 l 1,76,77
 28.2111553785 293.93625498 28.2111553785 293.93625498 7 346 c 0,78,79
 1.5 359.5 1.5 359.5 1.5 371.25 c 128,-1,80
 1.5 383 1.5 383 7 393 c 0,81,82
 18 416 18 416 53.5 439 c 128,-1,83
 89 462 89 462 128.5 478.5 c 128,-1,84
 168 495 168 495 200.5 501 c 0,85,86
 211.333333333 503 211.333333333 503 219.277777778 503 c 0,87,88
 235.166666667 503 235.166666667 503 239.5 495 c 0,89,90
 250.464646465 474.757575758 250.464646465 474.757575758 257.232323232 448.878787879 c 128,-1,91
 264 423 264 423 269 407 c 1,92,93
 298.894736842 448.852631579 298.894736842 448.852631579 337 466 c 0,94,95
 345.906746032 470.008035714 345.906746032 470.008035714 359.952764048 470.008035714 c 0,96,97
 392.86656746 470.008035714 392.86656746 470.008035714 454 448 c 0,98,99
 500.575342466 431.232876712 500.575342466 431.232876712 509.287671233 419.616438356 c 2,100,-1
 530 392 l 2,101,102
 542 376 542 376 547 352 c 0,103,104
 550.925575385 333.157238152 550.925575385 333.157238152 550.925575385 312.552350142 c 0,105,106
 550.925575385 286.216510087 550.925575385 286.216510087 544.512635678 257.002006976 c 0,107,108
 533.082278481 204.930379747 533.082278481 204.930379747 473 123 c 0,10,11
165.5 150.5 m 0,109,110
 137 145 137 145 132 124 c 0,111,112
 131 119.8 131 119.8 131 116.02 c 0,113,114
 131 100.9 131 100.9 147 92.5 c 0,115,116
 167 82 167 82 199 80 c 0,117,118
 208.621783293 79.3986385442 208.621783293 79.3986385442 218.182757332 79.3986385442 c 0,119,120
 279.33521499 79.3986385442 279.33521499 79.3986385442 338 104 c 1,121,122
 326 120 326 120 294 132.5 c 128,-1,123
 262 145 262 145 228 150.5 c 0,124,125
 211 153.25 211 153.25 195.375 153.25 c 128,-1,126
 179.75 153.25 179.75 153.25 165.5 150.5 c 0,109,110
EndSplineSet
MultipleSubs2: "Multiple Substitution lookup 324 subtable" U0C1E_U0C46.abvs U0C56 U0C1E_U0C46.abvs U0C56
EndChar

StartChar: U0C1F
Encoding: 3103 3103 58
Width: 656
GlyphClass: 2
Flags: W
LayerCount: 2
Back
Fore
SplineSet
502 423 m 1,0,1
 516.436090226 398.939849624 516.436090226 398.939849624 534.218045113 333.469924812 c 0,2,3
 561.904904772 231.531941523 561.904904772 231.531941523 561.904904772 173.534218998 c 0,4,5
 561.904904772 163.049047716 561.904904772 163.049047716 561 154 c 0,6,7
 553 99 553 99 521.5 56.5 c 128,-1,8
 490 14 490 14 433 0 c 0,9,10
 428.612995696 -0.626714900564 428.612995696 -0.626714900564 423.906588161 -0.626714900564 c 0,11,12
 394.106168744 -0.626714900564 394.106168744 -0.626714900564 351.5 24.5 c 0,13,14
 332 36 332 36 311.5 46 c 128,-1,15
 291 56 291 56 269.5 56 c 128,-1,16
 248 56 248 56 231 50 c 128,-1,17
 214 44 214 44 201 36 c 128,-1,18
 188 28 188 28 177.5 18.5 c 128,-1,19
 167 9 167 9 158 3 c 1,20,21
 130.457627119 13.593220339 130.457627119 13.593220339 79 74 c 0,22,23
 25.2596153846 137.086538462 25.2596153846 137.086538462 4 197 c 0,24,25
 0.218782230714 208.343653308 0.218782230714 208.343653308 0.218782230714 220.919727192 c 0,26,27
 0.218782230714 264.917594337 0.218782230714 264.917594337 46.5 324 c 0,28,29
 70 354 70 354 95 377.5 c 128,-1,30
 120 401 120 401 132 413 c 0,31,32
 152.95806755 428.524494482 152.95806755 428.524494482 176.447240993 428.524494482 c 0,33,34
 223.20815894 428.524494482 223.20815894 428.524494482 280 367 c 0,35,36
 308.024828608 333.879748008 308.024828608 333.879748008 308.024828608 308.320020466 c 0,37,38
 308.024828608 298.049657217 308.024828608 298.049657217 303.5 289 c 0,39,40
 296 274 296 274 278.5 260.5 c 128,-1,41
 261 247 261 247 240 229 c 256,42,43
 206.320754717 200.132075472 206.320754717 200.132075472 155 195 c 0,44,45
 147 194.333333333 147 194.333333333 139.222222222 194.333333333 c 0,46,47
 123.666666667 194.333333333 123.666666667 194.333333333 109 197 c 1,48,49
 109 162.56 109 162.56 135.5 135 c 1,50,51
 178.545810917 107.298588704 178.545810917 107.298588704 207 104 c 1,52,53
 231.260869565 104 231.260869565 104 265.5 135.5 c 0,54,55
 278 147 278 147 286.5 157 c 128,-1,56
 295 167 295 167 298 167 c 256,57,58
 301 167 301 167 306.5 156 c 128,-1,59
 312 145 312 145 324 133 c 0,60,61
 356.069860848 100.930139152 356.069860848 100.930139152 398.971667105 100.930139152 c 0,62,63
 400.974035421 100.930139152 400.974035421 100.930139152 403 101 c 0,64,65
 430.666666667 101 430.666666667 101 455 137.5 c 0,66,67
 474.607796022 166.911694033 474.607796022 166.911694033 474.607796022 200.008847524 c 0,68,69
 474.607796022 208.496862902 474.607796022 208.496862902 473.318181818 217.227272727 c 0,70,71
 459.654043037 309.730543179 459.654043037 309.730543179 361 423 c 1,72,-1
 502 423 l 1,0,1
143.139884696 256.456855418 m 0,73,74
 144.050819207 256.456855418 144.050819207 256.456855418 145 256.5 c 0,75,76
 165.866666667 257.448484848 165.866666667 257.448484848 183.433333333 270.224242424 c 128,-1,77
 201 283 201 283 207.5 292 c 128,-1,78
 214 301 214 301 209.5 313 c 128,-1,79
 205 325 205 325 195 333.5 c 128,-1,80
 185 342 185 342 172.5 345 c 128,-1,81
 160 348 160 348 151 341 c 128,-1,82
 142 334 142 334 135.5 323 c 0,83,84
 121.446899005 299.217829086 121.446899005 299.217829086 121.446899005 280.750323748 c 0,85,86
 121.446899005 256.456855418 121.446899005 256.456855418 143.139884696 256.456855418 c 0,73,74
132 538 m 0,87,88
 134.62195122 545.865853659 134.62195122 545.865853659 159.81097561 544.932926829 c 128,-1,89
 185 544 185 544 195.5 539.5 c 128,-1,90
 206 535 206 535 204 524 c 0,91,92
 200 516 200 516 193 505 c 128,-1,93
 186 494 186 494 180.5 481.5 c 0,94,95
 172.686936868 463.743038336 172.686936868 463.743038336 172.686936868 450.067817621 c 0,96,97
 172.686936868 439.907282409 172.686936868 439.907282409 177 432 c 1,98,99
 186.473684211 424.105263158 186.473684211 424.105263158 165 408 c 0,100,101
 155 400 155 400 141 393 c 1,102,103
 109.904096439 420.437561966 109.904096439 420.437561966 109.904096439 467.690513656 c 0,104,105
 109.904096439 470.314700288 109.904096439 470.314700288 110 473 c 0,106,107
 111 501 111 501 132 538 c 0,87,88
EndSplineSet
MultipleSubs2: "Multiple Substitution lookup 324 subtable" U0C1F_U0C46.abvs U0C56 U0C1F_U0C46.abvs U0C56
EndChar

StartChar: U0C20
Encoding: 3104 3104 59
Width: 538
GlyphClass: 2
Flags: W
AnchorPoint: "Anchor-1" 266 -20 basechar 0
LayerCount: 2
Back
Fore
SplineSet
28 402 m 1,0,-1
 283 589 l 1,1,-1
 341 516 l 1,2,-1
 50 364 l 1,3,-1
 28 402 l 1,0,-1
393.5 376 m 128,-1,5
 419 352 419 352 431 320.5 c 0,6,7
 439.727272727 297.590909091 439.727272727 297.590909091 439.727272727 266.747933884 c 0,8,9
 439.727272727 255.181818182 439.727272727 255.181818182 438.5 242.5 c 0,10,11
 434 196 434 196 412 149.5 c 128,-1,12
 390 103 390 103 351.5 64.5 c 128,-1,13
 313 26 313 26 258.5 10 c 0,14,15
 228.431034483 1.1724137931 228.431034483 1.1724137931 201.406064209 1.1724137931 c 0,16,17
 179.448275862 1.1724137931 179.448275862 1.1724137931 159.5 7 c 0,18,19
 115 20 115 20 82 49 c 128,-1,20
 49 78 49 78 28.5 116 c 128,-1,21
 8 154 8 154 2 186 c 0,22,23
 -0.130434782609 195.739130435 -0.130434782609 195.739130435 -0.130434782609 206.497164461 c 0,24,25
 -0.130434782609 231.086956522 -0.130434782609 231.086956522 11 261 c 0,26,27
 27 304 27 304 55 342.5 c 128,-1,28
 83 381 83 381 117 408.5 c 128,-1,29
 151 436 151 436 185.5 440 c 0,30,31
 199.3 441.6 199.3 441.6 213.98 441.6 c 0,32,33
 236 441.6 236 441.6 260 438 c 0,34,35
 300 432 300 432 334 416 c 128,-1,4
 368 400 368 400 393.5 376 c 128,-1,5
264 79 m 0,36,37
 267.076923077 78.3846153846 267.076923077 78.3846153846 270.094674556 78.3846153846 c 0,38,39
 286.692307692 78.3846153846 286.692307692 78.3846153846 301.5 97 c 0,40,41
 319 119 319 119 329.5 151.5 c 0,42,43
 340.517241379 185.600985222 340.517241379 185.600985222 340.517241379 223.003567182 c 0,44,45
 340.517241379 257.862068966 340.517241379 257.862068966 327 282 c 0,46,47
 292.679245283 330.452830189 292.679245283 330.452830189 240 353.5 c 0,48,49
 212.849900131 365.378168693 212.849900131 365.378168693 191.943225979 365.378168693 c 0,50,51
 171.481305609 365.378168693 171.481305609 365.378168693 157 354 c 0,52,53
 130.75 337.295454545 130.75 337.295454545 107 279 c 0,54,55
 93.7190653095 246.401342123 93.7190653095 246.401342123 93.7190653095 217.349558159 c 0,56,57
 93.7190653095 186.701043312 93.7190653095 186.701043312 108.5 160 c 0,58,59
 144.303775241 95.3222124671 144.303775241 95.3222124671 264 79 c 0,36,37
261 262.5 m 128,-1,61
 278 250 278 250 278 232.5 c 128,-1,62
 278 215 278 215 261 202.5 c 128,-1,63
 244 190 244 190 222 190 c 256,64,65
 200 190 200 190 183 202.5 c 128,-1,66
 166 215 166 215 166 232.5 c 128,-1,67
 166 250 166 250 183 262.5 c 128,-1,68
 200 275 200 275 222 275 c 256,69,60
 244 275 244 275 261 262.5 c 128,-1,61
EndSplineSet
MultipleSubs2: "Multiple Substitution lookup 324 subtable" U0C20_U0C46.abvs U0C56 U0C20_U0C46.abvs U0C56
EndChar

StartChar: U0C21
Encoding: 3105 3105 60
Width: 646
GlyphClass: 2
Flags: W
LayerCount: 2
Back
Fore
SplineSet
43 346 m 1,0,-1
 22 389 l 1,1,-1
 415 614 l 1,2,-1
 451 530 l 1,3,-1
 43 346 l 1,0,-1
453 424 m 1,4,5
 434.625 389.875 434.625 389.875 422 352 c 1,6,7
 410 354 410 354 384 359 c 128,-1,8
 358 364 358 364 326.5 365.5 c 0,9,10
 317.502166231 365.928468275 317.502166231 365.928468275 308.810467746 365.928468275 c 0,11,12
 243.856936549 365.928468275 243.856936549 365.928468275 196 342 c 0,13,14
 147.575757576 316.363636364 147.575757576 316.363636364 120 275 c 0,15,16
 85.3638709677 228.139354839 85.3638709677 228.139354839 81 172.5 c 0,17,18
 80.5562833143 166.842612258 80.5562833143 166.842612258 80.5562833143 161.558731815 c 0,19,20
 80.5562833143 113.019871221 80.5562833143 113.019871221 118 96 c 0,21,22
 120.888888889 95.1111111111 120.888888889 95.1111111111 124.395061728 95.1111111111 c 0,23,24
 136.666666667 95.1111111111 136.666666667 95.1111111111 156.5 106 c 0,25,26
 217.125827815 139.284768212 217.125827815 139.284768212 273 185 c 1,27,28
 302.54610951 127.877521614 302.54610951 127.877521614 346.5 92.5 c 0,29,30
 389.363636364 58 389.363636364 58 422 58 c 1,31,32
 422 -19 422 -19 469 75 c 1,33,34
 455.773928643 69.4891369344 455.773928643 69.4891369344 441.547619711 69.4891369344 c 0,35,36
 430.136934423 69.4891369344 430.136934423 69.4891369344 418.082758621 73.0344827586 c 0,37,38
 367.041450777 88.0466321244 367.041450777 88.0466321244 350.520725389 112.523316062 c 128,-1,39
 334 137 334 137 334 159 c 128,-1,40
 334 181 334 181 343.5 199 c 0,41,42
 363.210280374 236.345794393 363.210280374 236.345794393 397 246 c 0,43,44
 404 247 404 247 420.5 249.5 c 0,45,46
 426.392857143 250.392857143 426.392857143 250.392857143 432.668367347 250.392857143 c 0,47,48
 443.964285714 250.392857143 443.964285714 250.392857143 456.5 247.5 c 0,49,50
 505.845070423 236.112676056 505.845070423 236.112676056 530 174 c 0,51,52
 541.235951679 146.712688781 541.235951679 146.712688781 541.235951679 121.298223618 c 0,53,54
 541.235951679 85.5459303602 541.235951679 85.5459303602 519 53.5 c 0,55,56
 481.87755102 3.90798504668e-14 481.87755102 3.90798504668e-14 408 0 c 256,57,58
 354.5625 0 354.5625 0 298.5 46 c 0,59,60
 279 62 279 62 265 74 c 0,61,62
 257.186046512 80.6976744186 257.186046512 80.6976744186 248.904813413 80.6976744186 c 0,63,64
 242.348837209 80.6976744186 242.348837209 80.6976744186 235.5 76.5 c 0,65,66
 220 67 220 67 195 50.5 c 128,-1,67
 170 34 170 34 145.5 20.5 c 0,68,69
 106.623053886 -0.921990716066 106.623053886 -0.921990716066 85.3496208769 -0.921990716066 c 0,70,71
 75.1524883951 -0.921990716066 75.1524883951 -0.921990716066 69 4 c 0,72,73
 0.239553172223 63.2762472653 0.239553172223 63.2762472653 0.239553172223 155.208963105 c 0,74,75
 0.239553172223 178.092772391 0.239553172223 178.092772391 4.5 203 c 0,76,77
 18.1225572979 282.639565742 18.1225572979 282.639565742 83 348.5 c 0,78,79
 116 382 116 382 159 404 c 0,80,81
 219.360652384 437.860853776 219.360652384 437.860853776 311.613197531 437.860853776 c 0,82,83
 321.136663447 437.860853776 321.136663447 437.860853776 331 437.5 c 0,84,85
 372 436 372 436 404 430.5 c 128,-1,86
 436 425 436 425 453 424 c 1,4,5
449 114 m 128,-1,88
 466 106 466 106 474.5 113 c 128,-1,89
 483 120 483 120 481.5 138 c 128,-1,90
 480 156 480 156 470 171.5 c 0,91,92
 450.767992088 201.309612264 450.767992088 201.309612264 422.65892267 201.309612264 c 0,93,94
 411.971145178 201.309612264 411.971145178 201.309612264 400 197 c 1,95,96
 392.297702665 188.655844554 392.297702665 188.655844554 392.297702665 178.523811128 c 0,97,98
 392.297702665 160.378887424 392.297702665 160.378887424 417 136.5 c 0,99,87
 432 122 432 122 449 114 c 128,-1,88
EndSplineSet
MultipleSubs2: "Multiple Substitution lookup 324 subtable" U0C21_U0C46.abvs U0C56 U0C21_U0C46.abvs U0C56
EndChar

StartChar: U0C22
Encoding: 3106 3106 61
Width: 646
GlyphClass: 2
Flags: W
LayerCount: 2
Back
Fore
SplineSet
219 30 m 1,0,-1
 269 31 l 1,1,-1
 251 -76 l 1,2,-1
 174 -79 l 1,3,-1
 219 30 l 1,0,-1
43 346 m 1,4,-1
 22 389 l 1,5,-1
 433 623 l 1,6,-1
 469 539 l 1,7,-1
 43 346 l 1,4,-1
453 424 m 1,8,9
 425 368 425 368 420 359 c 1,10,11
 376.382277333 376.719699834 376.382277333 376.719699834 324.200792278 376.719699834 c 0,12,13
 303.757598669 376.719699834 303.757598669 376.719699834 282 374 c 0,14,15
 216.945736434 365.868217054 216.945736434 365.868217054 159 318 c 0,16,17
 113.533642691 280.440835267 113.533642691 280.440835267 93 225 c 0,18,19
 80.4950701219 191.236689329 80.4950701219 191.236689329 80.4950701219 163.873871582 c 0,20,21
 80.4950701219 143.394242647 80.4950701219 143.394242647 87.5 126.5 c 0,22,23
 96 106 96 106 118 96 c 0,24,25
 120.888888889 95.1111111111 120.888888889 95.1111111111 124.395061728 95.1111111111 c 0,26,27
 136.666666667 95.1111111111 136.666666667 95.1111111111 156.5 106 c 0,28,29
 217.125827815 139.284768212 217.125827815 139.284768212 273 185 c 1,30,31
 302.54610951 127.877521614 302.54610951 127.877521614 346.5 92.5 c 0,32,33
 389.363636364 58 389.363636364 58 422 58 c 1,34,35
 422 -19 422 -19 469 75 c 1,36,37
 455.773928643 69.4891369344 455.773928643 69.4891369344 441.547619711 69.4891369344 c 0,38,39
 430.136934423 69.4891369344 430.136934423 69.4891369344 418.082758621 73.0344827586 c 0,40,41
 367.041450777 88.0466321244 367.041450777 88.0466321244 350.520725389 112.523316062 c 128,-1,42
 334 137 334 137 334 159 c 128,-1,43
 334 181 334 181 343.5 199 c 0,44,45
 363.210280374 236.345794393 363.210280374 236.345794393 397 246 c 0,46,47
 404 247 404 247 420.5 249.5 c 0,48,49
 426.392857143 250.392857143 426.392857143 250.392857143 432.668367347 250.392857143 c 0,50,51
 443.964285714 250.392857143 443.964285714 250.392857143 456.5 247.5 c 0,52,53
 505.845070423 236.112676056 505.845070423 236.112676056 530 174 c 0,54,55
 541.235951679 146.712688781 541.235951679 146.712688781 541.235951679 121.298223618 c 0,56,57
 541.235951679 85.5459303602 541.235951679 85.5459303602 519 53.5 c 0,58,59
 481.87755102 3.90798504668e-14 481.87755102 3.90798504668e-14 408 0 c 256,60,61
 354.5625 0 354.5625 0 298.5 46 c 0,62,63
 279 62 279 62 265 74 c 0,64,65
 257.186046512 80.6976744186 257.186046512 80.6976744186 248.904813413 80.6976744186 c 0,66,67
 242.348837209 80.6976744186 242.348837209 80.6976744186 235.5 76.5 c 0,68,69
 220 67 220 67 195 50.5 c 128,-1,70
 170 34 170 34 145.5 20.5 c 0,71,72
 106.623053886 -0.921990716066 106.623053886 -0.921990716066 85.3496208769 -0.921990716066 c 0,73,74
 75.1524883951 -0.921990716066 75.1524883951 -0.921990716066 69 4 c 0,75,76
 0.239553172223 63.2762472653 0.239553172223 63.2762472653 0.239553172223 155.208963105 c 0,77,78
 0.239553172223 178.092772391 0.239553172223 178.092772391 4.5 203 c 0,79,80
 18.5925593904 285.387270282 18.5925593904 285.387270282 85 348 c 0,81,82
 120 381 120 381 163 403 c 0,83,84
 226.889567039 438.840488827 226.889567039 438.840488827 314.478634562 438.840488827 c 0,85,86
 356.73174581 438.840488827 356.73174581 438.840488827 404.5 430.5 c 0,87,88
 436 425 436 425 453 424 c 1,8,9
449 114 m 128,-1,90
 466 106 466 106 474.5 113 c 128,-1,91
 483 120 483 120 481.5 138 c 128,-1,92
 480 156 480 156 470 171.5 c 0,93,94
 450.767992088 201.309612264 450.767992088 201.309612264 422.65892267 201.309612264 c 0,95,96
 411.971145178 201.309612264 411.971145178 201.309612264 400 197 c 1,97,98
 392.297702665 188.655844554 392.297702665 188.655844554 392.297702665 178.523811128 c 0,99,100
 392.297702665 160.378887424 392.297702665 160.378887424 417 136.5 c 0,101,89
 432 122 432 122 449 114 c 128,-1,90
EndSplineSet
MultipleSubs2: "Multiple Substitution lookup 324 subtable" U0C22_U0C46.abvs U0C56 U0C22_U0C46.abvs U0C56
EndChar

StartChar: U0C23
Encoding: 3107 3107 62
Width: 646
GlyphClass: 2
Flags: W
LayerCount: 2
Back
Fore
SplineSet
236 2 m 1,0,1
 212.893017045 -1.300997565 212.893017045 -1.300997565 187.379839965 -1.300997565 c 0,2,3
 158.257481737 -1.300997565 158.257481737 -1.300997565 126 3 c 256,4,5
 96.9710391823 6.87052810903 96.9710391823 6.87052810903 63.5 56.5 c 0,6,7
 22.9960158536 116.557631665 22.9960158536 116.557631665 22.9960158536 167.296395704 c 0,8,9
 22.9960158536 172.95617439 22.9960158536 172.95617439 23.5 178.5 c 0,10,11
 25 195 25 195 41.5 203 c 0,12,13
 92.8461538462 227.895104895 92.8461538462 227.895104895 127 231 c 1,14,-1
 128 247 l 1,15,16
 90.9019607843 253.745098039 90.9019607843 253.745098039 57 272 c 0,17,18
 -0.0945945945946 305.378378378 -0.0945945945946 305.378378378 -0.0945945945946 345.700693937 c 0,19,20
 -0.0945945945946 351.283783784 -0.0945945945946 351.283783784 1 357 c 0,21,22
 5.14652014652 392.245421245 5.14652014652 392.245421245 79 427 c 0,23,24
 156 462 156 462 206 462 c 0,25,26
 234 462 234 462 241 450 c 0,27,28
 246 437 246 437 251.5 424 c 128,-1,29
 257 411 257 411 261 399.5 c 0,30,31
 270 373.625 270 373.625 270 372 c 2,32,-1
 275 355 l 1,33,-1
 285 371 l 1,34,35
 290.8 382.6 290.8 382.6 309.4 397.3 c 0,36,37
 341.918367347 423 341.918367347 423 391 423 c 2,38,-1
 403 423 l 1,39,40
 561.211764706 414.317647059 561.211764706 414.317647059 561.211764706 261.383391003 c 0,41,42
 561.211764706 255.788235294 561.211764706 255.788235294 561 250 c 0,43,44
 559.005314438 172.207263065 559.005314438 172.207263065 493 82 c 0,45,46
 464 46 464 46 432.5 23 c 128,-1,47
 401 0 401 0 378.5 0 c 0,48,49
 344.166666667 0 344.166666667 0 319.583333333 29.5 c 128,-1,50
 295 59 295 59 286.5 89 c 0,51,52
 280.217391304 111.173913043 280.217391304 111.173913043 280.217391304 124.879962193 c 0,53,54
 280.217391304 129.717391304 280.217391304 129.717391304 281 133.5 c 0,55,56
 287.391304348 164.391304348 287.391304348 164.391304348 317.195652174 193.195652174 c 128,-1,57
 347 222 347 222 384 222 c 128,-1,58
 421 222 421 222 458 182 c 1,59,-1
 465 174 l 1,60,-1
 470 183 l 1,61,62
 488 209 488 209 488 245.5 c 0,63,64
 488 310.928571429 488 310.928571429 461 336 c 0,65,66
 438 360 438 360 407.5 360 c 0,67,68
 346.2 360 346.2 360 333 327 c 0,69,70
 330 322 330 322 327 312.5 c 128,-1,71
 324 303 324 303 320.5 293 c 0,72,73
 311.590909091 267.545454545 311.590909091 267.545454545 310 258 c 1,74,-1
 249 258 l 1,75,76
 251.25 264.75 251.25 264.75 254 295 c 0,77,78
 254 345 254 345 230 362 c 0,79,80
 209.6 379 209.6 379 161 379 c 0,81,82
 128.333333333 379 128.333333333 379 111.666666667 371.5 c 128,-1,83
 95 364 95 364 92 357 c 0,84,85
 85.0909090909 340.878787879 85.0909090909 340.878787879 94 329 c 0,86,87
 113.188679245 297.018867925 113.188679245 297.018867925 175 278 c 0,88,89
 188 274 188 274 197 273 c 1,90,-1
 189 210 l 1,91,92
 120.320754717 190.377358491 120.320754717 190.377358491 104 161 c 0,93,94
 101 150 101 150 108.5 138.5 c 128,-1,95
 116 127 116 127 127.5 120 c 128,-1,96
 139 113 139 113 152.5 108 c 0,97,98
 176.8 99 176.8 99 200.4 99 c 128,-1,99
 224 99 224 99 236 102 c 1,100,-1
 236 2 l 1,0,1
346 144 m 0,101,102
 345.757575758 140.96969697 345.757575758 140.96969697 345.757575758 138.078971534 c 0,103,104
 345.757575758 117.121212121 345.757575758 117.121212121 358.5 103.5 c 1,105,106
 393.42820096 79.8652078044 393.42820096 79.8652078044 416 77 c 1,107,108
 437.090909091 77 437.090909091 77 442.5 102.5 c 0,109,110
 443.442307692 106.942307692 443.442307692 106.942307692 443.442307692 111.74704142 c 0,111,112
 443.442307692 124.788461538 443.442307692 124.788461538 436.5 140.5 c 0,113,114
 419.046511628 180 419.046511628 180 384.023255814 180 c 128,-1,115
 349 180 349 180 346 144 c 0,101,102
EndSplineSet
MultipleSubs2: "Multiple Substitution lookup 324 subtable" U0C23_U0C46.abvs U0C56 U0C23_U0C46.abvs U0C56
EndChar

StartChar: U0C24
Encoding: 3108 3108 63
Width: 593
GlyphClass: 2
Flags: W
AnchorPoint: "Anchor-2" 321 -30 basechar 0
AnchorPoint: "Anchor-1" 259 -34 basechar 0
LayerCount: 2
Back
Fore
SplineSet
122 378 m 1,0,-1
 112 438 l 1,1,-1
 414 614 l 1,2,-1
 432 508 l 1,3,4
 253 432.5 l 2,5,6
 226 422 226 422 201.5 411.5 c 128,-1,7
 177 401 177 401 156.5 392.5 c 128,-1,8
 136 384 136 384 122 378 c 1,0,-1
394 369 m 1,9,10
 443 369 443 369 468.5 349 c 128,-1,11
 494 329 494 329 500.5 297 c 0,12,13
 503.316666667 283.133333333 503.316666667 283.133333333 503.316666667 268.233888889 c 0,14,15
 503.316666667 248.75 503.316666667 248.75 498.5 227.5 c 0,16,17
 490 190 490 190 473 154.5 c 128,-1,18
 456 119 456 119 432.5 90.5 c 128,-1,19
 409 62 409 62 386 50 c 0,20,21
 301 2 301 2 230.5 0 c 0,22,23
 224.970588235 -0.156862745098 224.970588235 -0.156862745098 219.561130334 -0.156862745098 c 0,24,25
 156 -0.156862745098 156 -0.156862745098 109 21.5 c 0,26,27
 58 45 58 45 29.5 83.5 c 0,28,29
 -0.284246706937 123.734859587 -0.284246706937 123.734859587 -0.284246706937 165.646369692 c 0,30,31
 -0.284246706937 194.671131877 -0.284246706937 194.671131877 14 224.5 c 0,32,33
 49.739513759 299.132514026 49.739513759 299.132514026 120.5 334 c 0,34,35
 149.825 348.45 149.825 348.45 176.9825 348.45 c 0,36,37
 181.775 348.45 181.775 348.45 186.5 348 c 0,38,39
 218 345 218 345 233.5 330.5 c 128,-1,40
 249 316 249 316 250.5 295 c 0,41,42
 250.705523362 292.122672935 250.705523362 292.122672935 250.705523362 289.20546186 c 0,43,44
 250.705523362 247.649432574 250.705523362 247.649432574 209 198 c 0,45,46
 181.510222982 165.729392196 181.510222982 165.729392196 146.818458882 165.729392196 c 0,47,48
 135.774188095 165.729392196 135.774188095 165.729392196 124 169 c 0,49,50
 102 175 102 175 82 191 c 1,51,52
 87.0652173913 147.945652174 87.0652173913 147.945652174 117 123 c 0,53,54
 157.636363636 89.1363636364 157.636363636 89.1363636364 249 80 c 256,55,56
 265.22106838 78.377893162 265.22106838 78.377893162 279.747796703 78.377893162 c 0,57,58
 343.377893162 78.377893162 343.377893162 78.377893162 374.5 109.5 c 0,59,60
 391 126 391 126 397.5 145 c 128,-1,61
 404 164 404 164 410 178 c 1,62,63
 403 172 403 172 386 168 c 0,64,65
 376.285714286 165.714285714 376.285714286 165.714285714 365.591836735 165.714285714 c 0,66,67
 357.571428571 165.714285714 357.571428571 165.714285714 349 167 c 0,68,69
 297.874172185 174.668874172 297.874172185 174.668874172 282 217 c 0,70,71
 272.467550844 246.463933754 272.467550844 246.463933754 272.467550844 270.711690386 c 0,72,73
 272.467550844 312.662354626 272.467550844 312.662354626 301 339 c 0,74,75
 314 351 314 351 331 365 c 1,76,77
 313.355072464 410.876811594 313.355072464 410.876811594 257 416 c 0,78,79
 248.333333333 417 248.333333333 417 239.444444444 417 c 0,80,81
 221.666666667 417 221.666666667 417 203 413 c 1,82,83
 139.022857143 430.771428571 139.022857143 430.771428571 137 451 c 1,84,85
 184.821605199 462.593116412 184.821605199 462.593116412 225.560308154 462.593116412 c 0,86,87
 282.43187184 462.593116412 282.43187184 462.593116412 325.5 440 c 0,88,89
 356 424 356 424 372.5 403 c 128,-1,90
 389 382 389 382 394 369 c 1,9,10
115 293 m 1,91,92
 110 281 110 281 114.5 264.5 c 128,-1,93
 119 248 119 248 130.5 235 c 0,94,95
 147.304133833 216.004022624 147.304133833 216.004022624 168.186595035 216.004022624 c 0,96,97
 181.734952281 216.004022624 181.734952281 216.004022624 197 224 c 1,98,99
 197.580645161 230.193548387 197.580645161 230.193548387 197.580645161 235.750260146 c 0,100,101
 197.580645161 258.903225806 197.580645161 258.903225806 187.5 271 c 0,102,103
 168.306247964 294.032502444 168.306247964 294.032502444 131.415031012 294.032502444 c 0,104,105
 123.604187032 294.032502444 123.604187032 294.032502444 115 293 c 1,91,92
416 221 m 1,106,107
 417.22530161 228.964460464 417.22530161 228.964460464 417.22530161 236.519298659 c 0,108,109
 417.22530161 259.416987263 417.22530161 259.416987263 405.969512195 278.551829268 c 0,110,111
 377.373626374 327.164835165 377.373626374 327.164835165 337 329 c 1,112,113
 333.954844347 313.012932824 333.954844347 313.012932824 333.954844347 299.468975234 c 0,114,115
 333.954844347 266.045155653 333.954844347 266.045155653 352.5 247.5 c 0,116,117
 376.153846154 223.846153846 376.153846154 223.846153846 416 221 c 1,106,107
EndSplineSet
MultipleSubs2: "Multiple Substitution lookup 324 subtable" U0C24_U0C46.abvs U0C56 U0C24_U0C46.abvs U0C56
EndChar

StartChar: U0C25
Encoding: 3109 3109 64
Width: 594
GlyphClass: 2
Flags: W
LayerCount: 2
Back
Fore
SplineSet
32 407 m 1,0,-1
 373 551 l 1,1,-1
 383 451 l 1,2,-1
 38 356 l 1,3,-1
 32 407 l 1,0,-1
446.5 311.5 m 128,-1,5
 482 271 482 271 488.5 219.5 c 0,6,7
 490.511904762 203.55952381 490.511904762 203.55952381 490.511904762 188.672902494 c 0,8,9
 490.511904762 155.464285714 490.511904762 155.464285714 480.5 127.5 c 0,10,11
 466 87 466 87 442.5 58.5 c 128,-1,12
 419 30 419 30 390.5 15 c 128,-1,13
 362 0 362 0 340.5 -2 c 0,14,15
 335.722222222 -2.44444444444 335.722222222 -2.44444444444 331.216049383 -2.44444444444 c 0,16,17
 315.444444444 -2.44444444444 315.444444444 -2.44444444444 303 3 c 0,18,19
 287 10 287 10 270.5 20.5 c 128,-1,20
 254 31 254 31 235.5 40 c 128,-1,21
 217 49 217 49 193 49 c 128,-1,22
 169 49 169 49 139 36 c 128,-1,23
 109 23 109 23 87 0 c 1,24,25
 5.13782219884 68.6586007365 5.13782219884 68.6586007365 2 167.5 c 0,26,27
 1.81818181818 173.227272727 1.81818181818 173.227272727 1.81818181818 179.318181818 c 0,28,29
 1.81818181818 206.727272727 1.81818181818 206.727272727 5.5 241.5 c 0,30,31
 10 284 10 284 35.5 317 c 128,-1,32
 61 350 61 350 89 371 c 0,33,34
 152.624541808 413.416361205 152.624541808 413.416361205 223.616282513 413.416361205 c 0,35,36
 289.395604814 413.416361205 289.395604814 413.416361205 361.5 377 c 0,37,4
 411 352 411 352 446.5 311.5 c 128,-1,5
306.5 81.5 m 0,38,39
 321.777777778 69.9259259259 321.777777778 69.9259259259 337.484224966 69.9259259259 c 0,40,41
 338.740740741 69.9259259259 338.740740741 69.9259259259 340 70 c 0,42,43
 357 71 357 71 370 82.5 c 128,-1,44
 383 94 383 94 391.5 113 c 128,-1,45
 400 132 400 132 403 157 c 0,46,47
 403.947368421 164.894736842 403.947368421 164.894736842 403.947368421 172.988919668 c 0,48,49
 403.947368421 190.526315789 403.947368421 190.526315789 399.5 209 c 0,50,51
 385.603918824 266.722183345 385.603918824 266.722183345 324 311 c 0,52,53
 267.333333333 351 267.333333333 351 206 351 c 0,54,55
 158.565217391 351 158.565217391 351 133 326.5 c 0,56,57
 95.2680412371 290.340206186 95.2680412371 290.340206186 84 234 c 0,58,59
 78.0930694659 205.309194549 78.0930694659 205.309194549 78.0930694659 181.709847276 c 0,60,61
 78.0930694659 147.50786838 78.0930694659 147.50786838 90.5 124 c 0,62,63
 103.870203418 98.6669829966 103.870203418 98.6669829966 123.641138378 98.6669829966 c 0,64,65
 135.641512302 98.6669829966 135.641512302 98.6669829966 150 108 c 0,66,67
 184 128 184 128 209 143.5 c 128,-1,68
 234 159 234 159 240 159 c 0,69,70
 245 157 245 157 254 142.5 c 128,-1,71
 263 128 263 128 276.5 111 c 128,-1,72
 290 94 290 94 306.5 81.5 c 0,38,39
265.5 289 m 128,-1,74
 281 276 281 276 281 257.5 c 128,-1,75
 281 239 281 239 265.5 226 c 128,-1,76
 250 213 250 213 226.5 213 c 128,-1,77
 203 213 203 213 188 226 c 128,-1,78
 173 239 173 239 173 257.5 c 128,-1,79
 173 276 173 276 188 289 c 128,-1,80
 203 302 203 302 226.5 302 c 128,-1,73
 250 302 250 302 265.5 289 c 128,-1,74
173 30 m 1,81,-1
 223 31 l 1,82,-1
 205 -76 l 1,83,-1
 128 -79 l 1,84,-1
 173 30 l 1,81,-1
EndSplineSet
MultipleSubs2: "Multiple Substitution lookup 324 subtable" U0C25_U0C46.abvs U0C56 U0C25_U0C46.abvs U0C56
EndChar

StartChar: U0C26
Encoding: 3110 3110 65
Width: 593
GlyphClass: 2
Flags: W
LayerCount: 2
Back
Fore
SplineSet
32 407 m 1,0,-1
 373 551 l 1,1,-1
 383 451 l 1,2,-1
 38 356 l 1,3,-1
 32 407 l 1,0,-1
446.5 311.5 m 128,-1,5
 482 271 482 271 488.5 219.5 c 0,6,7
 490.511904762 203.55952381 490.511904762 203.55952381 490.511904762 188.672902494 c 0,8,9
 490.511904762 155.464285714 490.511904762 155.464285714 480.5 127.5 c 0,10,11
 466 87 466 87 442.5 58.5 c 128,-1,12
 419 30 419 30 390.5 15 c 128,-1,13
 362 0 362 0 340.5 -2 c 0,14,15
 335.722222222 -2.44444444444 335.722222222 -2.44444444444 331.216049383 -2.44444444444 c 0,16,17
 315.444444444 -2.44444444444 315.444444444 -2.44444444444 303 3 c 0,18,19
 287 10 287 10 270.5 20.5 c 128,-1,20
 254 31 254 31 235.5 40 c 128,-1,21
 217 49 217 49 193 49 c 128,-1,22
 169 49 169 49 139 36 c 128,-1,23
 109 23 109 23 87 0 c 1,24,25
 5.13782219884 68.6586007365 5.13782219884 68.6586007365 2 167.5 c 0,26,27
 1.81818181818 173.227272727 1.81818181818 173.227272727 1.81818181818 179.318181818 c 0,28,29
 1.81818181818 206.727272727 1.81818181818 206.727272727 5.5 241.5 c 0,30,31
 10 284 10 284 35.5 317 c 128,-1,32
 61 350 61 350 89 371 c 0,33,34
 152.624541808 413.416361205 152.624541808 413.416361205 223.616282513 413.416361205 c 0,35,36
 289.395604814 413.416361205 289.395604814 413.416361205 361.5 377 c 0,37,4
 411 352 411 352 446.5 311.5 c 128,-1,5
306.5 81.5 m 0,38,39
 321.777777778 69.9259259259 321.777777778 69.9259259259 337.484224966 69.9259259259 c 0,40,41
 338.740740741 69.9259259259 338.740740741 69.9259259259 340 70 c 0,42,43
 357 71 357 71 370 82.5 c 128,-1,44
 383 94 383 94 391.5 113 c 128,-1,45
 400 132 400 132 403 157 c 0,46,47
 403.947368421 164.894736842 403.947368421 164.894736842 403.947368421 172.988919668 c 0,48,49
 403.947368421 190.526315789 403.947368421 190.526315789 399.5 209 c 0,50,51
 385.603918824 266.722183345 385.603918824 266.722183345 324 311 c 0,52,53
 267.333333333 351 267.333333333 351 206 351 c 0,54,55
 158.565217391 351 158.565217391 351 133 326.5 c 0,56,57
 95.2680412371 290.340206186 95.2680412371 290.340206186 84 234 c 0,58,59
 78.0930694659 205.309194549 78.0930694659 205.309194549 78.0930694659 181.709847276 c 0,60,61
 78.0930694659 147.50786838 78.0930694659 147.50786838 90.5 124 c 0,62,63
 103.870203418 98.6669829966 103.870203418 98.6669829966 123.641138378 98.6669829966 c 0,64,65
 135.641512302 98.6669829966 135.641512302 98.6669829966 150 108 c 0,66,67
 184 128 184 128 209 143.5 c 128,-1,68
 234 159 234 159 240 159 c 0,69,70
 245 157 245 157 254 142.5 c 128,-1,71
 263 128 263 128 276.5 111 c 128,-1,72
 290 94 290 94 306.5 81.5 c 0,38,39
EndSplineSet
MultipleSubs2: "Multiple Substitution lookup 324 subtable" U0C26_U0C46.abvs U0C56 U0C26_U0C46.abvs U0C56
EndChar

StartChar: U0C27
Encoding: 3111 3111 66
Width: 593
GlyphClass: 2
Flags: W
LayerCount: 2
Back
Fore
SplineSet
32 407 m 1,0,-1
 373 551 l 1,1,-1
 383 451 l 1,2,-1
 38 356 l 1,3,-1
 32 407 l 1,0,-1
446.5 311.5 m 128,-1,5
 482 271 482 271 488.5 219.5 c 0,6,7
 490.511904762 203.55952381 490.511904762 203.55952381 490.511904762 188.672902494 c 0,8,9
 490.511904762 155.464285714 490.511904762 155.464285714 480.5 127.5 c 0,10,11
 466 87 466 87 442.5 58.5 c 128,-1,12
 419 30 419 30 390.5 15 c 128,-1,13
 362 0 362 0 340.5 -2 c 0,14,15
 335.722222222 -2.44444444444 335.722222222 -2.44444444444 331.216049383 -2.44444444444 c 0,16,17
 315.444444444 -2.44444444444 315.444444444 -2.44444444444 303 3 c 0,18,19
 287 10 287 10 270.5 20.5 c 128,-1,20
 254 31 254 31 235.5 40 c 128,-1,21
 217 49 217 49 193 49 c 128,-1,22
 169 49 169 49 139 36 c 128,-1,23
 109 23 109 23 87 0 c 1,24,25
 5.13782219884 68.6586007365 5.13782219884 68.6586007365 2 167.5 c 0,26,27
 1.81818181818 173.227272727 1.81818181818 173.227272727 1.81818181818 179.318181818 c 0,28,29
 1.81818181818 206.727272727 1.81818181818 206.727272727 5.5 241.5 c 0,30,31
 10 284 10 284 35.5 317 c 128,-1,32
 61 350 61 350 89 371 c 0,33,34
 152.624541808 413.416361205 152.624541808 413.416361205 223.616282513 413.416361205 c 0,35,36
 289.395604814 413.416361205 289.395604814 413.416361205 361.5 377 c 0,37,4
 411 352 411 352 446.5 311.5 c 128,-1,5
306.5 81.5 m 0,38,39
 321.777777778 69.9259259259 321.777777778 69.9259259259 337.484224966 69.9259259259 c 0,40,41
 338.740740741 69.9259259259 338.740740741 69.9259259259 340 70 c 0,42,43
 357 71 357 71 370 82.5 c 128,-1,44
 383 94 383 94 391.5 113 c 128,-1,45
 400 132 400 132 403 157 c 0,46,47
 403.947368421 164.894736842 403.947368421 164.894736842 403.947368421 172.988919668 c 0,48,49
 403.947368421 190.526315789 403.947368421 190.526315789 399.5 209 c 0,50,51
 385.603918824 266.722183345 385.603918824 266.722183345 324 311 c 0,52,53
 267.333333333 351 267.333333333 351 206 351 c 0,54,55
 158.565217391 351 158.565217391 351 133 326.5 c 0,56,57
 95.2680412371 290.340206186 95.2680412371 290.340206186 84 234 c 0,58,59
 78.0930694659 205.309194549 78.0930694659 205.309194549 78.0930694659 181.709847276 c 0,60,61
 78.0930694659 147.50786838 78.0930694659 147.50786838 90.5 124 c 0,62,63
 103.870203418 98.6669829966 103.870203418 98.6669829966 123.641138378 98.6669829966 c 0,64,65
 135.641512302 98.6669829966 135.641512302 98.6669829966 150 108 c 0,66,67
 184 128 184 128 209 143.5 c 128,-1,68
 234 159 234 159 240 159 c 0,69,70
 245 157 245 157 254 142.5 c 128,-1,71
 263 128 263 128 276.5 111 c 128,-1,72
 290 94 290 94 306.5 81.5 c 0,38,39
173 30 m 1,73,-1
 223 31 l 1,74,-1
 205 -76 l 1,75,-1
 128 -79 l 1,76,-1
 173 30 l 1,73,-1
EndSplineSet
MultipleSubs2: "Multiple Substitution lookup 324 subtable" U0C27_U0C46.abvs U0C56 U0C27_U0C46.abvs U0C56
EndChar

StartChar: U0C28
Encoding: 3112 3112 67
Width: 583
GlyphClass: 2
Flags: W
LayerCount: 2
Back
Fore
SplineSet
69 450 m 1,0,-1
 380 561 l 1,1,-1
 393 450 l 1,2,-1
 76 381 l 1,3,-1
 69 450 l 1,0,-1
6 -32 m 1,4,5
 2.58333333333 -14.9166666667 2.58333333333 -14.9166666667 0 60 c 1,6,7
 8.9656846876 165.795079314 8.9656846876 165.795079314 75 216.5 c 0,8,9
 117.344231039 249.014320262 117.344231039 249.014320262 163.043145629 249.014320262 c 0,10,11
 174.417658493 249.014320262 174.417658493 249.014320262 186 247 c 1,12,13
 196.316498316 190.259259259 196.316498316 190.259259259 234.5 133.5 c 0,14,15
 253 106 253 106 275 90.5 c 0,16,17
 287.867924528 81.4339622642 287.867924528 81.4339622642 300.051619794 81.4339622642 c 0,18,19
 308.698113208 81.4339622642 308.698113208 81.4339622642 317 86 c 0,20,21
 383.454023321 138.463702622 383.454023321 138.463702622 383.454023321 195.32430347 c 0,22,23
 383.454023321 223.617815498 383.454023321 223.617815498 367 253 c 0,24,25
 343.235067437 295.437379576 343.235067437 295.437379576 298.5 330.5 c 0,26,27
 280 345 280 345 265 354.5 c 0,28,29
 224.736842105 380 224.736842105 380 76 380 c 1,30,31
 181.208709887 424.633998134 181.208709887 424.633998134 225.345856125 424.633998134 c 0,32,33
 233.790807092 424.633998134 233.790807092 424.633998134 240 423 c 0,34,35
 342 387 342 387 396 343 c 128,-1,36
 450 299 450 299 468 253.5 c 0,37,38
 479.368421053 224.763157895 479.368421053 224.763157895 479.368421053 196.824099723 c 0,39,40
 479.368421053 180.526315789 479.368421053 180.526315789 475.5 164.5 c 0,41,42
 465 121 465 121 438.5 86 c 128,-1,43
 412 51 412 51 376 28 c 128,-1,44
 340 5 340 5 309 1 c 0,45,46
 300.142857143 -0.142857142857 300.142857143 -0.142857142857 291.857142857 -0.142857142857 c 0,47,48
 271.142857143 -0.142857142857 271.142857143 -0.142857142857 254 7 c 0,49,50
 230 17 230 17 212.5 34 c 128,-1,51
 195 51 195 51 181 72 c 128,-1,52
 167 93 167 93 156 110.5 c 128,-1,53
 145 128 145 128 136 138 c 128,-1,54
 127 148 127 148 119 145 c 128,-1,55
 111 142 111 142 107.5 133 c 128,-1,56
 104 124 104 124 103.5 111 c 0,57,58
 103.397442196 108.333497092 103.397442196 108.333497092 103.397442196 105.475475802 c 0,59,60
 103.397442196 61.2093786152 103.397442196 61.2093786152 128 -29 c 1,61,-1
 6 -32 l 1,4,5
EndSplineSet
MultipleSubs2: "Multiple Substitution lookup 324 subtable" U0C28_U0C46.abvs U0C56 U0C28_U0C46.abvs U0C56
EndChar

StartChar: U0C2A
Encoding: 3114 3114 68
Width: 546
GlyphClass: 2
Flags: W
AnchorPoint: "Anchor-1" 287 -13 basechar 0
LayerCount: 2
Back
Fore
SplineSet
24 326 m 1,0,-1
 1 381 l 1,1,-1
 310 550 l 1,2,-1
 352 459 l 1,3,-1
 24 326 l 1,0,-1
417 374 m 1,4,5
 456.291654208 298.988660148 456.291654208 298.988660148 456.291654208 230.251014636 c 0,6,7
 456.291654208 226.624588865 456.291654208 226.624588865 456.182291667 223.015625 c 0,8,9
 454 151 454 151 430.5 93.5 c 128,-1,10
 407 36 407 36 358 12 c 1,11,12
 337.765741065 -0.140555361178 337.765741065 -0.140555361178 314.364640209 -0.140555361178 c 0,13,14
 273.711131421 -0.140555361178 273.711131421 -0.140555361178 223.5 36.5 c 0,15,16
 205 50 205 50 191.5 58.5 c 128,-1,17
 178 67 178 67 161.5 59 c 128,-1,18
 145 51 145 51 129 38 c 128,-1,19
 113 25 113 25 99 13 c 128,-1,20
 85 1 85 1 79 1 c 0,21,22
 57 1 57 1 38.5 19 c 128,-1,23
 20 37 20 37 9.5 63 c 0,24,25
 -2.3946692534 92.4534667227 -2.3946692534 92.4534667227 -2.3946692534 118.11826171 c 0,26,27
 -2.3946692534 146.351614798 -2.3946692534 146.351614798 12 170 c 0,28,29
 44.4333333333 218.65 44.4333333333 218.65 91 225 c 0,30,31
 97.2670666514 225.854599998 97.2670666514 225.854599998 103.1394106 225.854599998 c 0,32,33
 144.235608001 225.854599998 144.235608001 225.854599998 166 184 c 0,34,35
 195.633027523 128.220183486 195.633027523 128.220183486 238.5 102.5 c 0,36,37
 266 86 266 86 297.5 86 c 128,-1,38
 329 86 329 86 353 119.5 c 0,39,40
 373.571428571 148.214285714 373.571428571 148.214285714 373.571428571 192.724489796 c 0,41,42
 373.571428571 200.142857143 373.571428571 200.142857143 373 208 c 0,43,44
 367.891472868 256.531007752 367.891472868 256.531007752 314 334 c 1,45,-1
 417 374 l 1,4,5
105 77 m 0,46,47
 124 82 124 82 126.5 98 c 0,48,49
 127.235294118 102.705882353 127.235294118 102.705882353 127.235294118 107.411764706 c 0,50,51
 127.235294118 118.705882353 127.235294118 118.705882353 123 130 c 0,52,53
 117 146 117 146 104.5 158 c 128,-1,54
 92 170 92 170 81 167 c 0,55,56
 62 162 62 162 59.5 146 c 0,57,58
 58.8421052632 141.789473684 58.8421052632 141.789473684 58.8421052632 137.54432133 c 0,59,60
 58.8421052632 125.657894737 58.8421052632 125.657894737 64 113.5 c 0,61,62
 71 97 71 97 83 85.5 c 128,-1,63
 95 74 95 74 105 77 c 0,46,47
EndSplineSet
MultipleSubs2: "Multiple Substitution lookup 324 subtable" U0C2A_U0C46.abvs U0C56 U0C2A_U0C46.abvs U0C56
EndChar

StartChar: U0C2B
Encoding: 3115 3115 69
Width: 548
GlyphClass: 2
Flags: W
LayerCount: 2
Back
Fore
SplineSet
47 332 m 1,0,-1
 25 389 l 1,1,-1
 336 557 l 1,2,-1
 378 466 l 1,3,-1
 47 332 l 1,0,-1
417 374 m 1,4,5
 456.291654208 298.988660148 456.291654208 298.988660148 456.291654208 230.251014636 c 0,6,7
 456.291654208 226.624588865 456.291654208 226.624588865 456.182291667 223.015625 c 0,8,9
 454 151 454 151 430.5 93.5 c 128,-1,10
 407 36 407 36 358 12 c 1,11,12
 337.765741065 -0.140555361178 337.765741065 -0.140555361178 314.364640209 -0.140555361178 c 0,13,14
 273.711131421 -0.140555361178 273.711131421 -0.140555361178 223.5 36.5 c 0,15,16
 205 50 205 50 191.5 58.5 c 128,-1,17
 178 67 178 67 161.5 59 c 128,-1,18
 145 51 145 51 129 38 c 128,-1,19
 113 25 113 25 99 13 c 128,-1,20
 85 1 85 1 79 1 c 0,21,22
 57 1 57 1 38.5 19 c 128,-1,23
 20 37 20 37 9.5 63 c 0,24,25
 -2.3946692534 92.4534667227 -2.3946692534 92.4534667227 -2.3946692534 118.11826171 c 0,26,27
 -2.3946692534 146.351614798 -2.3946692534 146.351614798 12 170 c 0,28,29
 44.4333333333 218.65 44.4333333333 218.65 91 225 c 0,30,31
 97.2670666514 225.854599998 97.2670666514 225.854599998 103.1394106 225.854599998 c 0,32,33
 144.235608001 225.854599998 144.235608001 225.854599998 166 184 c 0,34,35
 195.633027523 128.220183486 195.633027523 128.220183486 238.5 102.5 c 0,36,37
 266 86 266 86 297.5 86 c 128,-1,38
 329 86 329 86 353 119.5 c 0,39,40
 373.571428571 148.214285714 373.571428571 148.214285714 373.571428571 192.724489796 c 0,41,42
 373.571428571 200.142857143 373.571428571 200.142857143 373 208 c 0,43,44
 367.891472868 256.531007752 367.891472868 256.531007752 314 334 c 1,45,-1
 417 374 l 1,4,5
105 77 m 0,46,47
 124 82 124 82 126.5 98 c 0,48,49
 127.235294118 102.705882353 127.235294118 102.705882353 127.235294118 107.411764706 c 0,50,51
 127.235294118 118.705882353 127.235294118 118.705882353 123 130 c 0,52,53
 117 146 117 146 104.5 158 c 128,-1,54
 92 170 92 170 81 167 c 0,55,56
 62 162 62 162 59.5 146 c 0,57,58
 58.8421052632 141.789473684 58.8421052632 141.789473684 58.8421052632 137.54432133 c 0,59,60
 58.8421052632 125.657894737 58.8421052632 125.657894737 64 113.5 c 0,61,62
 71 97 71 97 83 85.5 c 128,-1,63
 95 74 95 74 105 77 c 0,46,47
143 30 m 1,64,-1
 194 31 l 1,65,-1
 175 -76 l 1,66,-1
 98 -79 l 1,67,-1
 143 30 l 1,64,-1
EndSplineSet
MultipleSubs2: "Multiple Substitution lookup 324 subtable" U0C2B_U0C46.abvs U0C56 U0C2B_U0C46.abvs U0C56
EndChar

StartChar: U0C2C
Encoding: 3116 3116 70
Width: 663
GlyphClass: 2
Flags: W
LayerCount: 2
Back
Fore
SplineSet
418 438 m 1,0,1
 500.148760331 379.32231405 500.148760331 379.32231405 542.5 309.5 c 0,2,3
 558.797619048 282.630952381 558.797619048 282.630952381 558.797619048 256.926020408 c 0,4,5
 558.797619048 253.452380952 558.797619048 253.452380952 558.5 250 c 0,6,7
 556 221 556 221 546 184.5 c 128,-1,8
 536 148 536 148 515.5 112.5 c 128,-1,9
 495 77 495 77 464 47 c 128,-1,10
 433 17 433 17 395 3 c 0,11,12
 383.96 -2.76 383.96 -2.76 372.344 -2.76 c 0,13,14
 359.76 -2.76 359.76 -2.76 346.5 4 c 0,15,16
 321 17 321 17 296.5 31 c 128,-1,17
 272 45 272 45 248.5 55.5 c 0,18,19
 235.162162162 61.4594594595 235.162162162 61.4594594595 222.30752374 61.4594594595 c 0,20,21
 212.513513514 61.4594594595 212.513513514 61.4594594595 203 58 c 0,22,23
 187.266666667 54.0666666667 187.266666667 54.0666666667 133.133333333 33.5333333333 c 0,24,25
 47.9378274193 1.21779660731 47.9378274193 1.21779660731 29.2163607469 1.21779660731 c 0,26,27
 26.3036723211 1.21779660731 26.3036723211 1.21779660731 25 2 c 0,28,29
 16 4 16 4 7.5 25 c 0,30,31
 1.47916666667 39.875 1.47916666667 39.875 1.47916666667 60.2690972222 c 0,32,33
 1.47916666667 68.6666666667 1.47916666667 68.6666666667 2.5 78 c 0,34,35
 11.4267393395 159.615902533 11.4267393395 159.615902533 103 227 c 1,36,37
 98.6363636364 226.181818182 98.6363636364 226.181818182 93.6033057851 226.181818182 c 0,38,39
 80.1818181818 226.181818182 80.1818181818 226.181818182 62 232 c 0,40,41
 37 240 37 240 19.5 259 c 0,42,43
 0.43661971831 279.697384306 0.43661971831 279.697384306 0.43661971831 309.470343186 c 0,44,45
 0.43661971831 337.690140845 0.43661971831 337.690140845 33 376 c 0,46,47
 67 416 67 416 109 428.5 c 0,48,49
 136.631578947 436.723684211 136.631578947 436.723684211 161.882617729 436.723684211 c 0,50,51
 175.013157895 436.723684211 175.013157895 436.723684211 187.5 434.5 c 0,52,53
 224 428 224 428 249 407 c 128,-1,54
 274 386 274 386 277.5 354.5 c 0,55,56
 278.162162162 348.540540541 278.162162162 348.540540541 278.162162162 342.813732652 c 0,57,58
 278.162162162 318.27027027 278.162162162 318.27027027 266 298 c 0,59,60
 251 273 251 273 229.5 256.5 c 128,-1,61
 208 240 208 240 186 228.5 c 128,-1,62
 164 217 164 217 146 202 c 128,-1,63
 128 187 128 187 116 164 c 128,-1,64
 104 141 104 141 103.5 123 c 128,-1,65
 103 105 103 105 112.5 96 c 128,-1,66
 122 87 122 87 139 93 c 0,67,68
 194.930232558 112.651162791 194.930232558 112.651162791 224.465116279 133.325581395 c 128,-1,69
 254 154 254 154 261 158.5 c 128,-1,70
 268 163 268 163 270.5 159.5 c 128,-1,71
 273 156 273 156 284.5 141.5 c 128,-1,72
 296 127 296 127 312 113 c 0,73,74
 344.37464503 84.6721855984 344.37464503 84.6721855984 370.521336748 84.6721855984 c 0,75,76
 378.016556795 84.6721855984 378.016556795 84.6721855984 385 87 c 0,77,78
 391 88 391 88 406.5 100.5 c 128,-1,79
 422 113 422 113 436.5 134 c 0,80,81
 464.003350736 173.832438997 464.003350736 173.832438997 464.003350736 215.930048424 c 0,82,83
 464.003350736 229.841346531 464.003350736 229.841346531 461 244 c 0,84,85
 444.847145488 322.456721915 444.847145488 322.456721915 343 408.5 c 0,86,87
 314 433 314 433 307 438 c 1,88,-1
 418 438 l 1,0,1
87 382 m 0,89,90
 79.1395348837 367.488372093 79.1395348837 367.488372093 79.1395348837 354.073553272 c 0,91,92
 79.1395348837 345.302325581 79.1395348837 345.302325581 82.5 337 c 0,93,94
 91 316 91 316 108.5 302.5 c 128,-1,95
 126 289 126 289 147 285 c 0,96,97
 153.461538462 283.769230769 153.461538462 283.769230769 158.976331361 283.769230769 c 0,98,99
 171.384615385 283.769230769 171.384615385 283.769230769 179 290 c 1,100,101
 186.68627451 307.568627451 186.68627451 307.568627451 186.68627451 321.520184544 c 0,102,103
 186.68627451 332.980392157 186.68627451 332.980392157 181.5 342 c 0,104,105
 170 362 170 362 150.5 372.5 c 128,-1,106
 131 383 131 383 111 385 c 128,-1,107
 91 387 91 387 87 382 c 0,89,90
EndSplineSet
MultipleSubs2: "Multiple Substitution lookup 324 subtable" U0C2C_U0C46.abvs U0C56 U0C2C_U0C46.abvs U0C56
EndChar

StartChar: U0C2D
Encoding: 3117 3117 71
Width: 659
GlyphClass: 2
Flags: W
LayerCount: 2
Back
Fore
SplineSet
318 457 m 1,0,-1
 521 612 l 1,1,-1
 531 501 l 1,2,-1
 325 406 l 1,3,-1
 318 457 l 1,0,-1
387 438 m 1,4,5
 443 430 443 430 485.5 394 c 128,-1,6
 528 358 528 358 543.5 318 c 0,7,8
 557.228571429 282.571428571 557.228571429 282.571428571 557.228571429 255.772244898 c 0,9,10
 557.228571429 252.314285714 557.228571429 252.314285714 557 249 c 0,11,12
 555 220 555 220 545 184 c 128,-1,13
 535 148 535 148 514.5 113 c 128,-1,14
 494 78 494 78 461.5 48.5 c 128,-1,15
 429 19 429 19 385 7 c 1,16,17
 364 14 364 14 343.5 22.5 c 128,-1,18
 323 31 323 31 304.5 37 c 0,19,20
 272.937947064 47.2363414927 272.937947064 47.2363414927 251.598042136 47.2363414927 c 0,21,22
 244.181707464 47.2363414927 244.181707464 47.2363414927 238 46 c 0,23,24
 224.838509317 44.9875776398 224.838509317 44.9875776398 155.919254658 27.9937888199 c 0,25,26
 44.5599197686 0.535322682659 44.5599197686 0.535322682659 25.4193191681 0.535322682659 c 0,27,28
 22.9293546347 0.535322682659 22.9293546347 0.535322682659 22 1 c 0,29,30
 13 3 13 3 5 24 c 0,31,32
 -0.333333333333 38 -0.333333333333 38 -0.333333333333 56.8888888889 c 0,33,34
 -0.333333333333 66.3333333333 -0.333333333333 66.3333333333 1 77 c 0,35,36
 11.1300813008 158.040650407 11.1300813008 158.040650407 100 226 c 1,37,38
 92.5894736842 224.652631579 92.5894736842 224.652631579 85.3065927978 224.652631579 c 0,39,40
 49.3473684211 224.652631579 49.3473684211 224.652631579 16.5 257.5 c 0,41,42
 -1.52197048838 275.521970488 -1.52197048838 275.521970488 -1.52197048838 300.429849262 c 0,43,44
 -1.52197048838 312.196559154 -1.52197048838 312.196559154 2.5 325.5 c 0,45,46
 9 347 9 347 32 374 c 0,47,48
 66 415 66 415 107 427.5 c 0,49,50
 133.973684211 435.723684211 133.973684211 435.723684211 158.99965374 435.723684211 c 0,51,52
 172.013157895 435.723684211 172.013157895 435.723684211 184.5 433.5 c 0,53,54
 221 427 221 427 246 406 c 128,-1,55
 271 385 271 385 274.5 353.5 c 0,56,57
 275.180555556 347.375 275.180555556 347.375 275.180555556 341.495756173 c 0,58,59
 275.180555556 317.138888889 275.180555556 317.138888889 263.5 297 c 0,60,61
 249 272 249 272 228 255.5 c 128,-1,62
 207 239 207 239 185.5 227.5 c 128,-1,63
 164 216 164 216 145.5 201 c 128,-1,64
 127 186 127 186 115 163 c 128,-1,65
 103 140 103 140 102.5 122 c 128,-1,66
 102 104 102 104 111.5 95 c 0,67,68
 116.121621622 90.6216216216 116.121621622 90.6216216216 124.648283419 90.6216216216 c 0,69,70
 133.648648649 90.6216216216 133.648648649 90.6216216216 147 95.5 c 0,71,72
 173 105 173 105 197.5 118.5 c 128,-1,73
 222 132 222 132 237.5 142.5 c 128,-1,74
 253 153 253 153 260.5 157.5 c 128,-1,75
 268 162 268 162 270.5 158.5 c 128,-1,76
 273 155 273 155 284.5 140.5 c 128,-1,77
 296 126 296 126 312 112 c 0,78,79
 344.25012362 83.7811418323 344.25012362 83.7811418323 368.822789323 83.7811418323 c 0,80,81
 375.713235192 83.7811418323 375.713235192 83.7811418323 382 86 c 0,82,83
 389 87 389 87 404.5 99.5 c 128,-1,84
 420 112 420 112 434.5 133 c 0,85,86
 462.744075829 173.90521327 462.744075829 173.90521327 468 258 c 1,87,88
 462 297 462 297 451.5 319.5 c 128,-1,89
 441 342 441 342 417 362.5 c 128,-1,90
 393 383 393 383 369.5 391.5 c 128,-1,91
 346 400 346 400 329 406 c 1,92,-1
 387 438 l 1,4,5
87 381 m 0,93,94
 79.1395348837 366.488372093 79.1395348837 366.488372093 79.1395348837 353.073553272 c 0,95,96
 79.1395348837 344.302325581 79.1395348837 344.302325581 82.5 336 c 0,97,98
 91 315 91 315 108.5 301.5 c 128,-1,99
 126 288 126 288 147 284 c 0,100,101
 153.461538462 282.769230769 153.461538462 282.769230769 158.976331361 282.769230769 c 0,102,103
 171.384615385 282.769230769 171.384615385 282.769230769 179 289 c 1,104,105
 185.260869565 305.695652174 185.260869565 305.695652174 185.260869565 319.124763705 c 0,106,107
 185.260869565 331.434782609 185.260869565 331.434782609 180 341 c 0,108,109
 169 361 169 361 149.5 371.5 c 128,-1,110
 130 382 130 382 110.5 384 c 128,-1,111
 91 386 91 386 87 381 c 0,93,94
212 30 m 1,112,-1
 262 31 l 1,113,-1
 244 -76 l 1,114,-1
 167 -79 l 1,115,-1
 212 30 l 1,112,-1
EndSplineSet
MultipleSubs2: "Multiple Substitution lookup 324 subtable" U0C2D_U0C46.abvs U0C56 U0C2D_U0C46.abvs U0C56
EndChar

StartChar: U0C2E
Encoding: 3118 3118 72
Width: 819
GlyphClass: 2
Flags: W
LayerCount: 2
Back
Fore
SplineSet
49 374 m 1,0,-1
 71 423 l 1,1,2
 109.45742802 426.964683301 109.45742802 426.964683301 144.507488399 426.964683301 c 0,3,4
 277.947179649 426.964683301 277.947179649 426.964683301 362 369.5 c 0,5,6
 459 303.183673469 459 303.183673469 459 184 c 0,7,8
 459 133.458333333 459 133.458333333 434 84.5 c 0,9,10
 408.628571429 34.8142857143 408.628571429 34.8142857143 361 11 c 1,11,12
 340.765741065 -1.14055536118 340.765741065 -1.14055536118 317.364640209 -1.14055536118 c 0,13,14
 276.711131421 -1.14055536118 276.711131421 -1.14055536118 226.5 35.5 c 0,15,16
 208 49 208 49 194.5 57.5 c 128,-1,17
 181 66 181 66 164.5 58 c 128,-1,18
 148 50 148 50 131.5 37.5 c 128,-1,19
 115 25 115 25 101.5 12.5 c 128,-1,20
 88 0 88 0 82 0 c 0,21,22
 79.8 -0.2 79.8 -0.2 77.64 -0.2 c 0,23,24
 58.2 -0.2 58.2 -0.2 42 16 c 0,25,26
 24 34 24 34 13 60.5 c 0,27,28
 1.48387096774 88.2434017595 1.48387096774 88.2434017595 1.48387096774 118.39698231 c 0,29,30
 1.48387096774 146.758064516 1.48387096774 146.758064516 16 169.5 c 0,31,32
 31 193 31 193 51.5 207 c 128,-1,33
 72 221 72 221 94 224 c 0,34,35
 100.267066651 224.854599998 100.267066651 224.854599998 106.1394106 224.854599998 c 0,36,37
 147.235608001 224.854599998 147.235608001 224.854599998 169 183 c 0,38,39
 198.633027523 127.220183486 198.633027523 127.220183486 241.5 101.5 c 0,40,41
 269 85 269 85 300.5 85 c 128,-1,42
 332 85 332 85 355 115.5 c 128,-1,43
 378 146 378 146 378 202 c 0,44,45
 378 269.347826087 378 269.347826087 319 324.5 c 0,46,47
 269.408219178 370.857534247 269.408219178 370.857534247 170.5 379.5 c 0,48,49
 154.517241379 380.896551724 154.517241379 380.896551724 136.752675386 380.896551724 c 0,50,51
 97.275862069 380.896551724 97.275862069 380.896551724 49 374 c 1,0,-1
86 84.5 m 128,-1,53
 98 73 98 73 112.5 77 c 128,-1,54
 127 81 127 81 129.5 97 c 0,55,56
 130.235294118 101.705882353 130.235294118 101.705882353 130.235294118 106.411764706 c 0,57,58
 130.235294118 117.705882353 130.235294118 117.705882353 126 129 c 0,59,60
 120 145 120 145 107.5 157 c 128,-1,61
 95 169 95 169 80.5 165 c 128,-1,62
 66 161 66 161 63 145 c 0,63,64
 62.1 140.2 62.1 140.2 62.1 135.355 c 0,65,66
 62.1 124.05 62.1 124.05 67 112.5 c 0,67,52
 74 96 74 96 86 84.5 c 128,-1,53
40 423 m 1,68,-1
 359 557 l 1,69,-1
 384 466 l 1,70,-1
 40 371 l 1,71,-1
 40 423 l 1,68,-1
348 4 m 1,72,-1
 410 119 l 1,73,74
 441.384615385 119 441.384615385 119 488.692307692 104 c 128,-1,75
 536 89 536 89 552 80 c 1,76,77
 588.211340206 94.4845360825 588.211340206 94.4845360825 610.5 141 c 0,78,79
 626.796036559 175.009119776 626.796036559 175.009119776 626.796036559 213.421686864 c 0,80,81
 626.796036559 274.198975656 626.796036559 274.198975656 586 346 c 0,82,83
 561 390 561 390 514 438 c 1,84,-1
 657 438 l 1,85,86
 719.534847582 336.199085332 719.534847582 336.199085332 719.534847582 230.015609603 c 0,87,88
 719.534847582 227.509025894 719.534847582 227.509025894 719.5 225 c 0,89,90
 718.450664137 149.447817837 718.450664137 149.447817837 675.5 75 c 0,91,92
 653 36 653 36 614 -1 c 1,93,94
 541.647058824 29 541.647058824 29 497.823529412 29 c 1,95,96
 497.823529412 65.6920415225 497.823529412 65.6920415225 348 4 c 1,72,-1
EndSplineSet
MultipleSubs2: "Multiple Substitution lookup 324 subtable" U0C2E_U0C46.abvs U0C56 U0C2E_U0C46.abvs U0C56
EndChar

StartChar: U0C2F
Encoding: 3119 3119 73
Width: 946
GlyphClass: 2
Flags: W
AnchorPoint: "Anchor-2" 621 -55 basechar 0
LayerCount: 2
Back
Fore
SplineSet
784 422 m 1,0,1
 849 326.666666667 849 326.666666667 849 219 c 0,2,3
 849 145.545454545 849 145.545454545 807 73 c 0,4,5
 785 35 785 35 748 -1 c 1,6,7
 692.017857143 21.3928571429 692.017857143 21.3928571429 632.5 25 c 0,8,9
 619.896155092 25.7638693883 619.896155092 25.7638693883 608.202232434 25.7638693883 c 0,10,11
 586.347085718 25.7638693883 586.347085718 25.7638693883 567.670212766 23.0957446809 c 0,12,13
 511.875 15.125 511.875 15.125 494 11 c 1,14,15
 506 25 506 25 518 39 c 0,16,17
 536 60 536 60 571 105 c 0,18,19
 575.061354715 110.076693394 575.061354715 110.076693394 584.738495989 110.076693394 c 0,20,21
 593.146911799 110.076693394 593.146911799 110.076693394 605.795121951 106.243902439 c 0,22,23
 659.074074074 90.0987654321 659.074074074 90.0987654321 685 78 c 1,24,25
 719.049382716 92.5925925926 719.049382716 92.5925925926 743 137.5 c 0,26,27
 759.490667808 168.420002139 759.490667808 168.420002139 759.490667808 206.164244454 c 0,28,29
 759.490667808 263.074846281 759.490667808 263.074846281 722 335.5 c 0,30,31
 700 378 700 378 651 422 c 1,32,-1
 784 422 l 1,0,1
481 424 m 1,33,34
 501 421 501 421 526.5 405 c 128,-1,35
 552 389 552 389 575 362 c 0,36,37
 631 296.260869565 631 296.260869565 631 210 c 0,38,39
 631 132.6 631 132.6 576 71 c 0,40,41
 523.048192771 11.6939759036 523.048192771 11.6939759036 449 -1 c 1,42,43
 432 1 432 1 413.5 11.5 c 128,-1,44
 395 22 395 22 376.5 32.5 c 0,45,46
 342.512843442 51.7900077759 342.512843442 51.7900077759 322.165212981 51.7900077759 c 0,47,48
 315.349562383 51.7900077759 315.349562383 51.7900077759 310.06424581 49.625698324 c 0,49,50
 289 41 289 41 276.5 36 c 128,-1,51
 264 31 264 31 254 25.5 c 0,52,53
 240.842105263 18.2631578947 240.842105263 18.2631578947 202 1 c 1,54,55
 162 4 162 4 122.5 26.5 c 128,-1,56
 83 49 83 49 54 85.5 c 0,57,58
 0.596277852895 152.715029599 0.596277852895 152.715029599 0.596277852895 230.851414137 c 0,59,60
 0.596277852895 250.577667117 0.596277852895 250.577667117 4 271 c 0,61,62
 12 301 12 301 35 336.5 c 128,-1,63
 58 372 58 372 84.5 393.5 c 128,-1,64
 111 415 111 415 134.5 424.5 c 128,-1,65
 158 434 158 434 168 435 c 0,66,67
 192.82700477 437.803048926 192.82700477 437.803048926 215.01530037 437.803048926 c 0,68,69
 297.036341289 437.803048926 297.036341289 437.803048926 343 399.5 c 0,70,71
 390.372093023 360.023255814 390.372093023 360.023255814 400 283 c 0,72,73
 402.951219512 267.975609756 402.951219512 267.975609756 402.951219512 249.568114218 c 0,74,75
 402.951219512 199.365853659 402.951219512 199.365853659 381 124 c 1,76,77
 388 124 388 124 404.5 112 c 0,78,79
 437.689655172 87.8620689655 437.689655172 87.8620689655 450 65 c 1,80,81
 506.322580645 77.5161290323 506.322580645 77.5161290323 532 138.5 c 0,82,83
 544 167 544 167 545.5 222.5 c 0,84,85
 545.621621622 227 545.621621622 227 545.621621622 231.371804237 c 0,86,87
 545.621621622 280.918918919 545.621621622 280.918918919 530 314 c 0,88,89
 513 350 513 350 494 368 c 0,90,91
 470 388 470 388 439 393 c 1,92,-1
 428 433 l 1,93,94
 434.832521884 433.854065235 434.832521884 433.854065235 441.29871418 433.854065235 c 0,95,96
 463.262682576 433.854065235 463.262682576 433.854065235 481 424 c 1,33,34
214 67 m 0,97,98
 233 67 233 67 253.5 93 c 128,-1,99
 274 119 274 119 288 157.5 c 128,-1,100
 302 196 302 196 306 229.5 c 0,101,102
 307 237.875 307 237.875 307 246.53125 c 0,103,104
 307 272.5 307 272.5 298 301 c 0,105,106
 286 339 286 339 253 363.5 c 0,107,108
 222.490566038 386.150943396 222.490566038 386.150943396 169.75756497 386.150943396 c 0,109,110
 165.452830189 386.150943396 165.452830189 386.150943396 161 386 c 0,111,112
 125.210231254 384.116327961 125.210231254 384.116327961 105.5 296 c 0,113,114
 98.0381418275 262.641104641 98.0381418275 262.641104641 98.0381418275 230.974551589 c 0,115,116
 98.0381418275 190.880806789 98.0381418275 190.880806789 110 153.5 c 128,-1,117
 122 116 122 116 147 91 c 0,118,119
 171.038461538 66.9615384615 171.038461538 66.9615384615 210.794378698 66.9615384615 c 0,120,121
 212.384615385 66.9615384615 212.384615385 66.9615384615 214 67 c 0,97,98
600 567 m 1,122,-1
 611 464 l 1,123,-1
 424 387 l 1,124,-1
 417 437 l 1,125,-1
 600 567 l 1,122,-1
EndSplineSet
MultipleSubs2: "Multiple Substitution lookup 324 subtable" U0C2F_U0C46.abvs U0C56 U0C2F_U0C46.abvs U0C56
EndChar

StartChar: U0C30
Encoding: 3120 3120 74
Width: 538
GlyphClass: 2
Flags: W
AnchorPoint: "Anchor-1" 259 -20 basechar 0
LayerCount: 2
Back
Fore
SplineSet
48 422 m 1,0,-1
 306 601 l 1,1,-1
 369 506 l 1,2,-1
 71 375 l 1,3,-1
 48 422 l 1,0,-1
334 414 m 0,4,5
 439.523293814 364.341979381 439.523293814 364.341979381 439.523293814 262.138521916 c 0,6,7
 439.523293814 252.074036082 439.523293814 252.074036082 438.5 241.5 c 0,8,9
 428.535714286 138.535714286 428.535714286 138.535714286 353 63 c 0,10,11
 315 25 315 25 260.5 8.5 c 0,12,13
 230.016949153 -0.728813559322 230.016949153 -0.728813559322 202.505889112 -0.728813559322 c 0,14,15
 180.830508475 -0.728813559322 180.830508475 -0.728813559322 161 5 c 0,16,17
 116 18 116 18 82.5 47 c 128,-1,18
 49 76 49 76 28.5 114 c 128,-1,19
 8 152 8 152 1.5 184.5 c 0,20,21
 -0.377777777778 193.888888889 -0.377777777778 193.888888889 -0.377777777778 204.112345679 c 0,22,23
 -0.377777777778 229.277777778 -0.377777777778 229.277777778 11 259.5 c 0,24,25
 27 302 27 302 55 341 c 128,-1,26
 83 380 83 380 117 407.5 c 128,-1,27
 151 435 151 435 185.5 438.5 c 0,28,29
 201.22828596 440.095623213 201.22828596 440.095623213 216.556882671 440.095623213 c 0,30,31
 278.546800672 440.095623213 278.546800672 440.095623213 334 414 c 0,4,5
264 77 m 0,32,33
 266.4 76.64 266.4 76.64 268.764 76.64 c 0,34,35
 286.1 76.64 286.1 76.64 301.5 96 c 0,36,37
 319 118 319 118 329.5 150.5 c 0,38,39
 340.517241379 184.600985222 340.517241379 184.600985222 340.517241379 222.003567182 c 0,40,41
 340.517241379 256.862068966 340.517241379 256.862068966 327 281 c 1,42,43
 290.300429185 328.493562232 290.300429185 328.493562232 240 350.5 c 0,44,45
 211.060671968 363.160956014 211.060671968 363.160956014 189.894215142 363.160956014 c 0,46,47
 170.02111535 363.160956014 170.02111535 363.160956014 157 352 c 1,48,49
 130.75 335.295454545 130.75 335.295454545 107 277 c 0,50,51
 93.7190653095 244.401342123 93.7190653095 244.401342123 93.7190653095 215.349558159 c 0,52,53
 93.7190653095 184.701043312 93.7190653095 184.701043312 108.5 158 c 0,54,55
 144.303775241 93.3222124671 144.303775241 93.3222124671 264 77 c 0,32,33
EndSplineSet
MultipleSubs2: "Multiple Substitution lookup 324 subtable" U0C30_U0C46.abvs U0C56 U0C30_U0C46.abvs U0C56
EndChar

StartChar: U0C31
Encoding: 3121 3121 75
Width: 718
GlyphClass: 2
Flags: W
LayerCount: 2
Back
Fore
SplineSet
404.5 424 m 128,-1,1
 425 441 425 441 441.5 446.5 c 0,2,3
 450.142857143 449.380952381 450.142857143 449.380952381 462.626984127 449.380952381 c 0,4,5
 473.976190476 449.380952381 473.976190476 449.380952381 488.5 447 c 0,6,7
 519 442 519 442 549.5 419.5 c 0,8,9
 623 365.278688525 623 365.278688525 623 233 c 0,10,11
 623 155 623 155 592 94.5 c 128,-1,12
 561 34 561 34 515 4 c 0,13,14
 506 -1 506 -1 496 1 c 128,-1,15
 486 3 486 3 468.5 7 c 0,16,17
 411.625 20 411.625 20 341 20 c 0,18,19
 333.941364552 20.3361254975 333.941364552 20.3361254975 326.834372127 20.3361254975 c 0,20,21
 264.525654049 20.3361254975 264.525654049 20.3361254975 198.5 -5.5 c 0,22,23
 187 -10 187 -10 177 -9 c 0,24,25
 130.105263158 1.82186234818 130.105263158 1.82186234818 82.5 36 c 0,26,27
 8.55822689707 89.0864012021 8.55822689707 89.0864012021 1 159 c 0,28,29
 -0.210872774022 170.20057316 -0.210872774022 170.20057316 -0.210872774022 181.412701877 c 0,30,31
 -0.210872774022 248.002552511 -0.210872774022 248.002552511 42.5 315 c 0,32,33
 68 355 68 355 108 387 c 128,-1,34
 148 419 148 419 187 424 c 0,35,36
 199.1875 425.5625 199.1875 425.5625 210.59375 425.5625 c 0,37,38
 235.6875 425.5625 235.6875 425.5625 257 418 c 0,39,40
 288 407 288 407 307.5 384.5 c 128,-1,41
 327 362 327 362 328 342 c 0,42,43
 328.129032258 339.419354839 328.129032258 339.419354839 328.129032258 336.863683663 c 0,44,45
 328.129032258 299.806451613 328.129032258 299.806451613 301 268 c 0,46,47
 272 234 272 234 223 217 c 0,48,49
 209.770544703 212.398450331 209.770544703 212.398450331 195.58749019 212.398450331 c 0,50,51
 171.203099337 212.398450331 171.203099337 212.398450331 144 226 c 0,52,53
 126 236 126 236 112 250 c 1,54,55
 101.279330325 218.552702285 101.279330325 218.552702285 101.279330325 192.090835037 c 0,56,57
 101.279330325 153.146266273 101.279330325 153.146266273 124.5 125 c 0,58,59
 152.927710843 90.5421686747 152.927710843 90.5421686747 215.5 79.5 c 0,60,61
 238.407139144 75.4575636805 238.407139144 75.4575636805 258.51504349 75.4575636805 c 0,62,63
 279.830254722 75.4575636805 279.830254722 75.4575636805 298 80 c 0,64,65
 321.445783133 85.0240963855 321.445783133 85.0240963855 335 104 c 0,66,67
 340 113 340 113 341 122 c 1,68,69
 366.86527677 75.4425018143 366.86527677 75.4425018143 431.410720849 75.4425018143 c 0,70,71
 438.473774494 75.4425018143 438.473774494 75.4425018143 446 76 c 0,72,73
 505.967941507 80.4420697413 505.967941507 80.4420697413 533.5 145 c 0,74,75
 544.864864865 171.648648649 544.864864865 171.648648649 544.864864865 213.040905771 c 0,76,77
 544.864864865 224.459459459 544.864864865 224.459459459 544 237 c 0,78,79
 541.911724138 293.383448276 541.911724138 293.383448276 512 326.5 c 0,80,81
 490.983363143 349.768419377 490.983363143 349.768419377 458.149279931 349.768419377 c 0,82,83
 443.285520242 349.768419377 443.285520242 349.768419377 426 345 c 0,84,85
 413.499829905 341.590862701 413.499829905 341.590862701 413.499829905 329.597060074 c 0,86,87
 413.499829905 323.250425237 413.499829905 323.250425237 417 314.5 c 0,88,89
 425.181818182 294.045454545 425.181818182 294.045454545 453 250 c 256,90,91
 465.305084746 230.516949153 465.305084746 230.516949153 465.305084746 211.266949153 c 128,-1,92
 465.305084746 192.016949153 465.305084746 192.016949153 453 173 c 0,93,94
 427.124069479 133.009925558 427.124069479 133.009925558 377 129 c 0,95,96
 349.25 125.916666667 349.25 125.916666667 312.25 125.916666667 c 128,-1,97
 275.25 125.916666667 275.25 125.916666667 229 129 c 1,98,-1
 229 201 l 1,99,-1
 371 201 l 2,100,101
 395 201 395 201 397.5 211.5 c 128,-1,102
 400 222 400 222 390 240 c 0,103,104
 357.693440077 285.229183892 357.693440077 285.229183892 357.693440077 327.667399974 c 0,105,106
 357.693440077 354.386880155 357.693440077 354.386880155 370.5 380 c 0,107,0
 384 407 384 407 404.5 424 c 128,-1,1
187 361 m 0,108,109
 171.941176471 351.588235294 171.941176471 351.588235294 171.941176471 334.204152249 c 0,110,111
 171.941176471 314.335038363 171.941176471 314.335038363 184.5 298.5 c 0,112,113
 196 284 196 284 214 279 c 0,114,115
 218.285714286 277.80952381 218.285714286 277.80952381 222.5430839 277.80952381 c 0,116,117
 236.166666667 277.80952381 236.166666667 277.80952381 249.5 290 c 0,118,119
 264.43902439 303.658536585 264.43902439 303.658536585 264.43902439 317.681439619 c 0,120,121
 264.43902439 335.56097561 264.43902439 335.56097561 248.5 351.5 c 0,122,123
 236 364 236 364 218.5 368.5 c 0,124,125
 213.727272727 369.727272727 213.727272727 369.727272727 209.214876033 369.727272727 c 0,126,127
 197.181818182 369.727272727 197.181818182 369.727272727 187 361 c 0,108,109
EndSplineSet
MultipleSubs2: "Multiple Substitution lookup 324 subtable" U0C31_U0C46.abvs U0C56 U0C31_U0C46.abvs U0C56
EndChar

StartChar: U0C32
Encoding: 3122 3122 76
Width: 579
GlyphClass: 2
Flags: W
AnchorPoint: "Anchor-2" 300 -12 basechar 0
LayerCount: 2
Back
Fore
SplineSet
313 434 m 1,0,1
 321.045454545 431.318181818 321.045454545 431.318181818 350.545454545 431.318181818 c 128,-1,2
 380.045454545 431.318181818 380.045454545 431.318181818 431 434 c 1,3,4
 476.516295161 370.602303168 476.516295161 370.602303168 476.516295161 285.437658276 c 0,5,6
 476.516295161 272.711837097 476.516295161 272.711837097 475.5 259.5 c 0,7,8
 468.626617375 170.146025878 468.626617375 170.146025878 417.5 94 c 0,9,10
 367.000504796 18.7879858657 367.000504796 18.7879858657 302 5 c 0,11,12
 267.840144287 -2.49850491253 267.840144287 -2.49850491253 234.300804928 -2.49850491253 c 0,13,14
 177.510880217 -2.49850491253 177.510880217 -2.49850491253 122.5 19 c 0,15,16
 79 36 79 36 46 68 c 128,-1,17
 13 100 13 100 3.5 150.5 c 0,18,19
 -0.260416666667 170.489583333 -0.260416666667 170.489583333 -0.260416666667 190.635850694 c 0,20,21
 -0.260416666667 221.385416667 -0.260416666667 221.385416667 8.5 252.5 c 0,22,23
 23 304 23 304 49 346 c 128,-1,24
 75 388 75 388 105 414 c 128,-1,25
 135 440 135 440 159 440 c 0,26,27
 214 438 214 438 237.5 417.5 c 128,-1,28
 261 397 261 397 263.5 368.5 c 0,29,30
 263.916666667 363.75 263.916666667 363.75 263.916666667 358.875 c 0,31,32
 263.916666667 334.5 263.916666667 334.5 253.5 307 c 0,33,34
 241 274 241 274 222 249 c 0,35,36
 203.043754392 219.512506833 203.043754392 219.512506833 171.636355504 219.512506833 c 0,37,38
 153.821234285 219.512506833 153.821234285 219.512506833 132 229 c 0,39,40
 105 241 105 241 80 265 c 1,41,42
 83.4929577465 165.450704225 83.4929577465 165.450704225 150.5 115.5 c 0,43,44
 198.12195122 80 198.12195122 80 253 80 c 256,45,46
 322.735849057 80 322.735849057 80 363.5 154.5 c 0,47,48
 378 181 378 181 386 219.5 c 0,49,50
 389.210489009 234.950478358 389.210489009 234.950478358 389.210489009 251.421294586 c 0,51,52
 389.210489009 303.592177544 389.210489009 303.592177544 357 366 c 0,53,54
 339 401 339 401 313 434 c 1,0,1
115 381 m 0,55,56
 103.621802546 367.725436303 103.621802546 367.725436303 103.621802546 352.594551639 c 0,57,58
 103.621802546 338.143862707 103.621802546 338.143862707 114 322 c 0,59,60
 131.600682594 294.62116041 131.600682594 294.62116041 165 281.5 c 0,61,62
 178.075489604 276.363200513 178.075489604 276.363200513 187.942286718 276.363200513 c 0,63,64
 203.417920308 276.363200513 203.417920308 276.363200513 211 289 c 1,65,66
 215.951408387 303.854225162 215.951408387 303.854225162 215.951408387 316.829838214 c 0,67,68
 215.951408387 338.216716163 215.951408387 338.216716163 202.5 354.5 c 0,69,70
 186.561983471 373.79338843 186.561983471 373.79338843 151 382 c 0,71,72
 136.700636319 385.299853157 136.700636319 385.299853157 127.905873499 385.299853157 c 0,73,74
 117.866568771 385.299853157 117.866568771 385.299853157 115 381 c 0,55,56
EndSplineSet
MultipleSubs2: "Multiple Substitution lookup 324 subtable" U0C32_U0C46.abvs U0C56 U0C32_U0C46.abvs U0C56
EndChar

StartChar: U0C33
Encoding: 3123 3123 77
Width: 556
GlyphClass: 2
Flags: W
AnchorPoint: "Anchor-1" 253 -27 basechar 0
LayerCount: 2
Back
Fore
SplineSet
260 423 m 1,0,-1
 249 466 l 1,1,-1
 468 611 l 1,2,-1
 508 540 l 1,3,-1
 260 423 l 1,0,-1
353 248 m 1,4,5
 404 226 404 226 429.5 195.5 c 0,6,7
 454.037735849 166.150943396 454.037735849 166.150943396 454.037735849 134.9499822 c 0,8,9
 454.037735849 101.172257163 454.037735849 101.172257163 426 69.5 c 0,10,11
 399 39 399 39 352.5 20.5 c 128,-1,12
 306 2 306 2 256.5 0 c 0,13,14
 248.884615385 -0.307692307692 248.884615385 -0.307692307692 241.399408284 -0.307692307692 c 0,15,16
 200.230769231 -0.307692307692 200.230769231 -0.307692307692 163 9 c 0,17,18
 119 20 119 20 87 45.5 c 128,-1,19
 55 71 55 71 49 110 c 0,20,21
 47.3103448276 123.275862069 47.3103448276 123.275862069 47.3103448276 134.949464923 c 0,22,23
 47.3103448276 171.637931034 47.3103448276 171.637931034 64 192.5 c 0,24,25
 86 220 86 220 122 236 c 1,26,27
 109 241 109 241 98 246.5 c 128,-1,28
 87 252 87 252 67 259 c 1,29,30
 0.00434958387703 303.025713131 0.00434958387703 303.025713131 0.00434958387703 357.501255389 c 0,31,32
 0.00434958387703 378.010072721 0.00434958387703 378.010072721 9.5 400 c 0,33,34
 26.9475609756 440.404878049 26.9475609756 440.404878049 61.5 469 c 0,35,36
 76 481 76 481 89 487.5 c 0,37,38
 94.8275862069 490.413793103 94.8275862069 490.413793103 104.171819263 490.413793103 c 0,39,40
 115.672413793 490.413793103 115.672413793 490.413793103 132.5 486 c 0,41,42
 163 478 163 478 190 459.5 c 128,-1,43
 217 441 217 441 231.5 413 c 0,44,45
 238.75 399 238.75 399 238.75 384.125 c 128,-1,46
 238.75 369.25 238.75 369.25 231.5 353.5 c 0,47,48
 206.873015873 300 206.873015873 300 166 300 c 0,49,50
 164.272727273 299.909090909 164.272727273 299.909090909 162.545454545 299.909090909 c 2,51,-1
 128 309 l 1,52,53
 136.826923077 294.288461538 136.826923077 294.288461538 224.5 277.5 c 0,54,55
 248 273 248 273 268 271 c 1,56,57
 315.612903226 286.870967742 315.612903226 286.870967742 344 323 c 0,58,59
 365.3987412 346.53861532 365.3987412 346.53861532 365.3987412 365.660334381 c 0,60,61
 365.3987412 371.448448389 365.3987412 371.448448389 363.438053097 376.831858407 c 0,62,63
 345.980771912 424.763858558 345.980771912 424.763858558 279.552184133 424.763858558 c 0,64,65
 271.166302693 424.763858558 271.166302693 424.763858558 262 424 c 1,66,-1
 259 451 l 1,67,68
 280.515923004 460.562632446 280.515923004 460.562632446 307.25900069 460.562632446 c 0,69,70
 327.058261714 460.562632446 327.058261714 460.562632446 349.722627737 455.321167883 c 0,71,72
 403 443 403 443 427 415.5 c 0,73,74
 448.735849057 390.594339623 448.735849057 390.594339623 448.735849057 362.407796369 c 0,75,76
 448.735849057 359.471698113 448.735849057 359.471698113 448.5 356.5 c 0,77,78
 446 325 446 325 421 294.5 c 128,-1,79
 396 264 396 264 353 248 c 1,4,5
81 394.5 m 128,-1,81
 83 379 83 379 97.5 365.5 c 0,82,83
 119.862967952 344.6793057 119.862967952 344.6793057 134.381953607 344.6793057 c 0,84,85
 142.381605067 344.6793057 142.381605067 344.6793057 148 351 c 0,86,87
 158 358 158 358 156 373 c 128,-1,88
 154 388 154 388 140 403 c 128,-1,89
 126 418 126 418 110 421.5 c 128,-1,90
 94 425 94 425 85 419 c 1,91,80
 79 410 79 410 81 394.5 c 128,-1,81
314 66 m 0,92,93
 344 79 344 79 356.5 107 c 0,94,95
 361.46031746 118.111111111 361.46031746 118.111111111 361.46031746 130.0095742 c 0,96,97
 361.46031746 148.095238095 361.46031746 148.095238095 350 168 c 0,98,99
 331.769499418 202.637951106 331.769499418 202.637951106 267.5 216.5 c 0,100,101
 240.134146341 222.402439024 240.134146341 222.402439024 219.246579417 222.402439024 c 0,102,103
 201.207317073 222.402439024 201.207317073 222.402439024 188 218 c 1,104,105
 141.008130081 192.154471545 141.008130081 192.154471545 141.008130081 159.661312711 c 0,106,107
 141.008130081 152.971544715 141.008130081 152.971544715 143 146 c 0,108,109
 154.396946565 106.110687023 154.396946565 106.110687023 190 87.5 c 0,110,111
 233.25 64.8920454545 233.25 64.8920454545 269.125 62.4460227273 c 0,112,113
 279.514631685 61.7376387487 279.514631685 61.7376387487 287.650206042 61.7376387487 c 0,114,115
 307.606458123 61.7376387487 307.606458123 61.7376387487 314 66 c 0,92,93
EndSplineSet
MultipleSubs2: "Multiple Substitution lookup 324 subtable" U0C33_U0C46.abvs U0C56 U0C33_U0C46.abvs U0C56
EndChar

StartChar: U0C35
Encoding: 3125 3125 78
Width: 554
GlyphClass: 2
Flags: W
AnchorPoint: "Anchor-2" 280 -2 basechar 0
AnchorPoint: "Anchor-1" 300 -34 basechar 0
LayerCount: 2
Back
Fore
SplineSet
49 374 m 1,0,-1
 71 423 l 1,1,2
 109.45742802 426.964683301 109.45742802 426.964683301 144.507488399 426.964683301 c 0,3,4
 277.947179649 426.964683301 277.947179649 426.964683301 362 369.5 c 0,5,6
 459 303.183673469 459 303.183673469 459 184 c 0,7,8
 459 133.458333333 459 133.458333333 434 84.5 c 0,9,10
 408.628571429 34.8142857143 408.628571429 34.8142857143 361 11 c 1,11,12
 340.765741065 -1.14055536118 340.765741065 -1.14055536118 317.364640209 -1.14055536118 c 0,13,14
 276.711131421 -1.14055536118 276.711131421 -1.14055536118 226.5 35.5 c 0,15,16
 208 49 208 49 194.5 57.5 c 128,-1,17
 181 66 181 66 164.5 58 c 128,-1,18
 148 50 148 50 131.5 37.5 c 128,-1,19
 115 25 115 25 101.5 12.5 c 128,-1,20
 88 0 88 0 82 0 c 0,21,22
 79.8 -0.2 79.8 -0.2 77.64 -0.2 c 0,23,24
 58.2 -0.2 58.2 -0.2 42 16 c 0,25,26
 24 34 24 34 13 60.5 c 0,27,28
 1.48387096774 88.2434017595 1.48387096774 88.2434017595 1.48387096774 118.39698231 c 0,29,30
 1.48387096774 146.758064516 1.48387096774 146.758064516 16 169.5 c 0,31,32
 31 193 31 193 51.5 207 c 128,-1,33
 72 221 72 221 94 224 c 0,34,35
 100.267066651 224.854599998 100.267066651 224.854599998 106.1394106 224.854599998 c 0,36,37
 147.235608001 224.854599998 147.235608001 224.854599998 169 183 c 0,38,39
 198.633027523 127.220183486 198.633027523 127.220183486 241.5 101.5 c 0,40,41
 269 85 269 85 300.5 85 c 128,-1,42
 332 85 332 85 355 115.5 c 128,-1,43
 378 146 378 146 378 202 c 0,44,45
 378 269.347826087 378 269.347826087 319 324.5 c 0,46,47
 269.408219178 370.857534247 269.408219178 370.857534247 170.5 379.5 c 0,48,49
 154.517241379 380.896551724 154.517241379 380.896551724 136.752675386 380.896551724 c 0,50,51
 97.275862069 380.896551724 97.275862069 380.896551724 49 374 c 1,0,-1
86 84.5 m 128,-1,53
 98 73 98 73 112.5 77 c 128,-1,54
 127 81 127 81 129.5 97 c 0,55,56
 130.235294118 101.705882353 130.235294118 101.705882353 130.235294118 106.411764706 c 0,57,58
 130.235294118 117.705882353 130.235294118 117.705882353 126 129 c 0,59,60
 120 145 120 145 107.5 157 c 128,-1,61
 95 169 95 169 80.5 165 c 128,-1,62
 66 161 66 161 63 145 c 0,63,64
 62.1 140.2 62.1 140.2 62.1 135.355 c 0,65,66
 62.1 124.05 62.1 124.05 67 112.5 c 0,67,52
 74 96 74 96 86 84.5 c 128,-1,53
40 423 m 1,68,-1
 359 557 l 1,69,-1
 384 466 l 1,70,-1
 40 371 l 1,71,-1
 40 423 l 1,68,-1
EndSplineSet
MultipleSubs2: "Multiple Substitution lookup 324 subtable" U0C35_U0C46.abvs U0C56 U0C35_U0C46.abvs U0C56
EndChar

StartChar: U0C36
Encoding: 3126 3126 79
Width: 591
GlyphClass: 2
Flags: W
AnchorPoint: "Anchor-1" 362 -61 basechar 0
LayerCount: 2
Back
Fore
SplineSet
128 420 m 1,0,1
 203.166666667 431 203.166666667 431 265.583333333 431 c 128,-1,2
 328 431 328 431 363 423.5 c 128,-1,3
 398 416 398 416 415.5 404 c 128,-1,4
 433 392 433 392 438.5 378.5 c 128,-1,5
 444 365 444 365 441 351 c 128,-1,6
 438 337 438 337 431 324.5 c 0,7,8
 420.550724638 305.84057971 420.550724638 305.84057971 402 291 c 1,9,10
 476 254 476 254 487 199 c 0,11,12
 488.730172066 190.349139669 488.730172066 190.349139669 488.730172066 181.479507582 c 0,13,14
 488.730172066 143.49581597 488.730172066 143.49581597 457 101.5 c 0,15,16
 421.785714286 54.8928571429 421.785714286 54.8928571429 370 29 c 0,17,18
 319.762775853 1.94918699777 319.762775853 1.94918699777 260.017337172 1.94918699777 c 0,19,20
 227.42357721 1.94918699777 227.42357721 1.94918699777 192 10 c 0,21,22
 148 20 148 20 116.5 45.5 c 128,-1,23
 85 71 85 71 80.5 105.5 c 0,24,25
 78.475 121.025 78.475 121.025 78.475 134.42375 c 0,26,27
 78.475 150.8 78.475 150.8 81.5 164 c 0,28,29
 87 188 87 188 100 205.5 c 0,30,31
 124.473309609 238.444839858 124.473309609 238.444839858 170 255 c 1,32,33
 118.978723404 251.907801418 118.978723404 251.907801418 52 224 c 0,34,35
 25 213 25 213 0 198 c 1,36,-1
 0 282 l 1,37,38
 163.60913095 317.637632484 163.60913095 317.637632484 259.103200074 317.637632484 c 0,39,40
 313.6732431 317.637632484 313.6732431 317.637632484 346 306 c 1,41,42
 349.613636364 316.840909091 349.613636364 316.840909091 349.613636364 330.090909091 c 128,-1,43
 349.613636364 343.340909091 349.613636364 343.340909091 346 359 c 0,44,45
 338.234042553 387.475177305 338.234042553 387.475177305 269.5 391 c 0,46,47
 255.731314812 391.70608642 255.731314812 391.70608642 241.427241666 391.70608642 c 0,48,49
 188.393426613 391.70608642 188.393426613 391.70608642 128 382 c 1,50,-1
 128 420 l 1,0,1
303.5 66 m 128,-1,52
 327 66 327 66 343 69.5 c 128,-1,53
 359 73 359 73 370 85.5 c 128,-1,54
 381 98 381 98 386 116.5 c 128,-1,55
 391 135 391 135 391 156.5 c 128,-1,56
 391 178 391 178 385 198 c 256,57,58
 374.262472885 233.79175705 374.262472885 233.79175705 310 250.5 c 0,59,60
 285 257 285 257 263 257.5 c 128,-1,61
 241 258 241 258 234 255 c 0,62,63
 193.804878049 232.892682927 193.804878049 232.892682927 177.5 190.5 c 0,64,65
 169.970319001 170.922829404 169.970319001 170.922829404 169.970319001 153.606025181 c 0,66,67
 169.970319001 132.647489598 169.970319001 132.647489598 181 115 c 0,68,69
 196.08045977 84.8390804598 196.08045977 84.8390804598 255.5 71.5 c 0,70,51
 280 66 280 66 303.5 66 c 128,-1,52
128 382 m 1,71,-1
 111 430 l 1,72,-1
 384 594 l 1,73,-1
 423 503 l 1,74,-1
 128 382 l 1,71,-1
EndSplineSet
MultipleSubs2: "Multiple Substitution lookup 324 subtable" U0C36_U0C46.abvs U0C56 U0C36_U0C46.abvs U0C56
EndChar

StartChar: U0C37
Encoding: 3127 3127 80
Width: 569
GlyphClass: 2
Flags: W
AnchorPoint: "Anchor-1" 300 -96 basechar 0
LayerCount: 2
Back
Fore
SplineSet
76 332 m 1,0,-1
 53 384 l 1,1,-1
 361 581 l 1,2,-1
 403 470 l 1,3,-1
 76 332 l 1,0,-1
456 378 m 1,4,5
 469.334713622 311.326431889 469.334713622 311.326431889 469.334713622 242.025140799 c 0,6,7
 469.334713622 231.045549536 469.334713622 231.045549536 469 220 c 0,8,9
 469 139 469 139 397 49 c 0,10,11
 377 24 377 24 357 1 c 0,12,13
 355 1 355 1 339 6.5 c 128,-1,14
 323 12 323 12 299 19 c 0,15,16
 235.694878502 37.4639937702 235.694878502 37.4639937702 183.788608344 37.4639937702 c 0,17,18
 158.266368228 37.4639937702 158.266368228 37.4639937702 135.5 33 c 0,19,20
 88.7920792079 23.8415841584 88.7920792079 23.8415841584 62.396039604 11.9207920792 c 128,-1,21
 36 0 36 0 25 -2.5 c 128,-1,22
 14 -5 14 -5 7.5 13.5 c 128,-1,23
 1 32 1 32 0.5 59 c 0,24,25
 0.441010028068 62.1854584843 0.441010028068 62.1854584843 0.441010028068 65.3012225932 c 0,26,27
 0.441010028068 127.567630041 0.441010028068 127.567630041 24 162 c 0,28,29
 47.4860335196 195.271880819 47.4860335196 195.271880819 102.5 218.5 c 0,30,31
 125 228 125 228 143 230 c 128,-1,32
 161 232 161 232 165 224 c 0,33,34
 186.093167702 178.298136646 186.093167702 178.298136646 249.5 141 c 0,35,36
 302.2 110 302.2 110 328 110 c 0,37,38
 329.259062002 109.685234499 329.259062002 109.685234499 330.562615354 109.685234499 c 0,39,40
 345.0381206 109.685234499 345.0381206 109.685234499 365 148.5 c 0,41,42
 386 189.333333333 386 189.333333333 386 227 c 0,43,44
 382.174757282 263.339805825 382.174757282 263.339805825 369.587378641 289.169902913 c 128,-1,45
 357 315 357 315 347 332 c 1,46,-1
 456 378 l 1,4,5
80 83 m 0,47,48
 93 70 93 70 108.5 75.5 c 128,-1,49
 124 81 124 81 134.5 95 c 128,-1,50
 145 109 145 109 149.5 125 c 128,-1,51
 154 141 154 141 144 149 c 128,-1,52
 134 157 134 157 119.5 150 c 128,-1,53
 105 143 105 143 93.5 130.5 c 128,-1,54
 82 118 82 118 77 103.5 c 128,-1,55
 72 89 72 89 80 83 c 0,47,48
538 -15 m 1,56,57
 491.016949153 -64.593220339 491.016949153 -64.593220339 475 -71 c 1,58,59
 425.737704918 -31.5901639344 425.737704918 -31.5901639344 405 65.5 c 0,60,61
 397.882352941 98.8235294118 397.882352941 98.8235294118 397.882352941 143.242214533 c 0,62,63
 397.882352941 167.470588235 397.882352941 167.470588235 400 195 c 1,64,-1
 469 214 l 1,65,66
 467.980519688 198.367968544 467.980519688 198.367968544 467.980519688 183.188472358 c 0,67,68
 467.980519688 111.846170506 467.980519688 111.846170506 490.5 50.5 c 0,69,70
 505 11 505 11 538 -15 c 1,56,57
EndSplineSet
MultipleSubs2: "Multiple Substitution lookup 324 subtable" U0C37_U0C46.abvs U0C56 U0C37_U0C46.abvs U0C56
EndChar

StartChar: U0C38
Encoding: 3128 3128 81
Width: 559
GlyphClass: 2
Flags: W
AnchorPoint: "Anchor-1" 280 -34 basechar 0
LayerCount: 2
Back
Fore
SplineSet
3 -66 m 1,0,1
 0 -24 0 -24 0 -6 c 2,2,-1
 0 33 l 1,3,4
 1.75675675676 99.7567567568 1.75675675676 99.7567567568 58.5 156.5 c 0,5,6
 81 179 81 179 104.5 190 c 0,7,8
 123.648148148 198.962962963 123.648148148 198.962962963 133.833333333 198.962962963 c 0,9,10
 136.148148148 198.962962963 136.148148148 198.962962963 138 198.5 c 0,11,12
 148 196 148 196 169.5 177.5 c 128,-1,13
 191 159 191 159 217 137.5 c 0,14,15
 284.431978969 81.7389404677 284.431978969 81.7389404677 301.720868665 81.7389404677 c 0,16,17
 302.095618145 81.7389404677 302.095618145 81.7389404677 302.446808511 81.7651391162 c 0,18,19
 319 83 319 83 332 97.5 c 128,-1,20
 345 112 345 112 353 133.5 c 0,21,22
 369.080099518 176.715267454 369.080099518 176.715267454 369.080099518 215.380304374 c 0,23,24
 369.080099518 252.823781061 369.080099518 252.823781061 354 286 c 0,25,26
 332.773584906 332.698113208 332.773584906 332.698113208 305 357 c 1,27,-1
 420 416 l 1,28,29
 456.157887135 330.535903137 456.157887135 330.535903137 456.157887135 235.589565584 c 0,30,31
 456.157887135 229.315485382 456.157887135 229.315485382 456 223 c 0,32,33
 452.345425868 126.153785489 452.345425868 126.153785489 393 58.5 c 0,34,35
 368 30 368 30 339 15 c 0,36,37
 310.935483871 0.483870967742 310.935483871 0.483870967742 288.958376691 0.483870967742 c 0,38,39
 288.225806452 0.483870967742 288.225806452 0.483870967742 287.5 0.5 c 0,40,41
 265 1 265 1 240.5 17.5 c 128,-1,42
 216 34 216 34 192.5 53 c 128,-1,43
 169 72 169 72 149.5 87 c 128,-1,44
 130 102 130 102 122 101 c 0,45,46
 86.2124253016 98.0177021085 86.2124253016 98.0177021085 86.2124253016 44.7317828752 c 0,47,48
 86.2124253016 14.1502987936 86.2124253016 14.1502987936 98 -33 c 1,49,-1
 3 -66 l 1,0,1
49 334 m 1,50,-1
 30 387 l 1,51,-1
 331 570 l 1,52,-1
 380 469 l 1,53,-1
 49 334 l 1,50,-1
EndSplineSet
MultipleSubs2: "Multiple Substitution lookup 324 subtable" U0C38_U0C46.abvs U0C56 U0C38_U0C46.abvs U0C56
EndChar

StartChar: U0C39
Encoding: 3129 3129 82
Width: 808
GlyphClass: 2
Flags: W
LayerCount: 2
Back
Fore
SplineSet
697 159 m 0,0,1
 686.432835821 129.059701493 686.432835821 129.059701493 663 115 c 0,2,3
 639.68973388 99.4598225865 639.68973388 99.4598225865 617.065502463 99.4598225865 c 0,4,5
 602.38839031 99.4598225865 602.38839031 99.4598225865 588 106 c 1,6,7
 516.75 148.75 516.75 148.75 507.5 176.5 c 0,8,9
 503.816042781 187.551871658 503.816042781 187.551871658 503.816042781 197.79603077 c 0,10,11
 503.816042781 210.632085561 503.816042781 210.632085561 509.6 222.2 c 0,12,13
 520 243 520 243 535.5 262.5 c 128,-1,14
 551 282 551 282 588 309 c 1,15,-1
 434 300 l 1,16,17
 458 236 458 236 458 178.5 c 0,18,19
 458 57 458 57 368 12 c 1,20,21
 346.574592119 -0.360812239079 346.574592119 -0.360812239079 321.699454757 -0.360812239079 c 0,22,23
 278.743395456 -0.360812239079 278.743395456 -0.360812239079 225.5 36.5 c 0,24,25
 206 50 206 50 192.5 58.5 c 128,-1,26
 179 67 179 67 162.5 59 c 128,-1,27
 146 51 146 51 129.5 38.5 c 128,-1,28
 113 26 113 26 99.5 13.5 c 128,-1,29
 86 1 86 1 80 1 c 0,30,31
 77.8 0.8 77.8 0.8 75.64 0.8 c 0,32,33
 56.2 0.8 56.2 0.8 40 17 c 0,34,35
 22 35 22 35 11 61.5 c 0,36,37
 -0.516129032258 89.2434017595 -0.516129032258 89.2434017595 -0.516129032258 119.39698231 c 0,38,39
 -0.516129032258 147.758064516 -0.516129032258 147.758064516 14 170.5 c 0,40,41
 29 194 29 194 49.5 208 c 128,-1,42
 70 222 70 222 92 225 c 0,43,44
 98.2670666514 225.854599998 98.2670666514 225.854599998 104.1394106 225.854599998 c 0,45,46
 145.235608001 225.854599998 145.235608001 225.854599998 167 184 c 0,47,48
 196.633027523 128.220183486 196.633027523 128.220183486 239.5 102.5 c 0,49,50
 267 86 267 86 298.5 86 c 128,-1,51
 330 86 330 86 352 109 c 128,-1,52
 374 132 374 132 374 187 c 0,53,54
 374 235 374 235 336.5 319 c 0,55,56
 324 347 324 347 306 373 c 1,57,-1
 574 373 l 2,58,59
 623 373 623 373 664 332 c 0,60,61
 709.578212739 286.421787261 709.578212739 286.421787261 709.578212739 226.248829074 c 0,62,63
 709.578212739 194.638269426 709.578212739 194.638269426 697 159 c 0,0,1
106 77 m 0,64,65
 125 82 125 82 127.5 98 c 0,66,67
 128.235294118 102.705882353 128.235294118 102.705882353 128.235294118 107.411764706 c 0,68,69
 128.235294118 118.705882353 128.235294118 118.705882353 124 130 c 0,70,71
 118 146 118 146 105.5 158 c 128,-1,72
 93 170 93 170 82 167 c 0,73,74
 63 162 63 162 60.5 146 c 0,75,76
 59.8421052632 141.789473684 59.8421052632 141.789473684 59.8421052632 137.54432133 c 0,77,78
 59.8421052632 125.657894737 59.8421052632 125.657894737 65 113.5 c 0,79,80
 72 97 72 97 84 85.5 c 128,-1,81
 96 74 96 74 106 77 c 0,64,65
618.5 169.5 m 0,82,83
 622.7625 167.9875 622.7625 167.9875 626.9115625 167.9875 c 0,84,85
 637.85 167.9875 637.85 167.9875 648 178.5 c 0,86,87
 659.529411765 190.441176471 659.529411765 190.441176471 659.529411765 205.095155709 c 0,88,89
 659.529411765 208.235294118 659.529411765 208.235294118 659 211.5 c 0,90,91
 656 230 656 230 644.5 245 c 128,-1,92
 633 260 633 260 617.5 265.5 c 128,-1,93
 602 271 602 271 590 258 c 0,94,95
 579.714285714 246.857142857 579.714285714 246.857142857 579.714285714 230.571428571 c 0,96,97
 579.714285714 227.857142857 579.714285714 227.857142857 580 225 c 0,98,99
 582 205 582 205 592.5 190 c 128,-1,100
 603 175 603 175 618.5 169.5 c 0,82,83
3 371 m 1,101,-1
 272 567 l 1,102,-1
 326 493 l 1,103,-1
 32 329 l 1,104,-1
 3 371 l 1,101,-1
EndSplineSet
MultipleSubs2: "Multiple Substitution lookup 324 subtable" U0C39_U0C46.abvs U0C56 U0C39_U0C46.abvs U0C56
EndChar

StartChar: uni0C3D
Encoding: 3133 3133 83
Width: 766
GlyphClass: 2
Flags: W
LayerCount: 2
Back
Fore
SplineSet
218 385 m 0,0,1
 127 385 127 385 68 267 c 0,2,3
 66 267 66 267 57 280 c 128,-1,4
 48 293 48 293 37 308 c 2,5,-1
 8 349 l 1,6,7
 64.1 395.75 64.1 395.75 92.05 411.875 c 0,8,9
 152.933333333 447 152.933333333 447 217.966666667 447 c 128,-1,10
 283 447 283 447 317.5 435.5 c 128,-1,11
 352 424 352 424 370 405.5 c 0,12,13
 395.727904378 379.057431612 395.727904378 379.057431612 395.727904378 334.501423474 c 0,14,15
 395.727904378 327.006948155 395.727904378 327.006948155 395 319 c 1,16,17
 380.435897436 253.461538462 380.435897436 253.461538462 263 183 c 0,18,19
 233 165 233 165 208.5 151 c 128,-1,20
 184 137 184 137 170 127.5 c 128,-1,21
 156 118 156 118 159 113 c 0,22,23
 156.714285714 97 156.714285714 97 272.5 97 c 0,24,25
 449.181818182 97 449.181818182 97 595.5 115.5 c 0,26,27
 700.158415842 128.732673267 700.158415842 128.732673267 719 151 c 1,28,29
 707.705882353 97.3529411765 707.705882353 97.3529411765 701.352941176 58.1764705882 c 128,-1,30
 695 19 695 19 691 10.5 c 128,-1,31
 687 2 687 2 680 2 c 0,32,33
 665.517241379 1.72413793103 665.517241379 1.72413793103 651.243757432 1.72413793103 c 0,34,35
 562.034482759 1.72413793103 562.034482759 1.72413793103 481 12.5 c 0,36,37
 387 25 387 25 311.5 37 c 128,-1,38
 236 49 236 49 182 53 c 0,39,40
 172.181818182 53.7272727273 172.181818182 53.7272727273 163.388429752 53.7272727273 c 0,41,42
 123.818181818 53.7272727273 123.818181818 53.7272727273 105 39 c 0,43,44
 93 29 93 29 88 24 c 2,45,-1
 80 16 l 2,46,47
 77 13 77 13 74 9.5 c 128,-1,48
 71 6 71 6 63 0 c 1,49,50
 52 3 52 3 41.5 19.5 c 128,-1,51
 31 36 31 36 28 56.5 c 0,52,53
 26.8538297288 64.3321635202 26.8538297288 64.3321635202 26.8538297288 71.4761493874 c 0,54,55
 26.8538297288 112.68983827 26.8538297288 112.68983827 65 131 c 1,56,57
 92 150 92 150 128.5 166.5 c 128,-1,58
 165 183 165 183 198 205 c 0,59,60
 278 258.333333333 278 258.333333333 278 339 c 0,61,62
 278 361.588235294 278 361.588235294 256.5 375.5 c 0,63,64
 241.818181818 385 241.818181818 385 218 385 c 0,0,1
EndSplineSet
EndChar

